<svg width="541" height="579" viewBox="0 0 541 579" fill="none" xmlns="http://www.w3.org/2000/svg">
<path d="M227.023 406.714C218.841 398.535 210.029 388.775 210.776 377.097C211.263 369.467 215.81 362.855 219.707 356.331C224.958 347.534 229.344 337.904 230.212 327.636C231.079 317.367 227.947 306.338 220.264 299.673C225.239 297.226 230.158 301.256 233.152 306.002C243.124 321.801 242.091 331.606 235.388 349.302C233.95 353.101 232.222 356.803 231.188 360.738C230.153 364.672 230.101 369.156 232.341 372.525C238.6 355.873 251.433 340.875 249.987 323.094C248.79 308.367 237.561 294.961 240.09 280.411C241.395 272.912 246.19 266.635 249.63 259.881C253.071 253.127 255.067 244.482 250.873 238.189C254.782 242.319 259.789 247.773 259.771 253.522C259.753 259.286 256.326 264.357 254.029 269.621C249.855 279.185 249.34 290.363 252.619 300.285C255.489 308.968 261.202 317.2 260.321 326.323C263.639 318.643 265.642 308.881 264.569 300.556C263.879 295.2 262.263 289.869 262.868 284.502C263.646 277.605 267.937 271.755 271.066 265.592C276.888 254.127 278.84 240.652 276.518 227.952C284.723 236.611 284.535 250.069 281.787 261.797C279.038 273.525 273.871 284.748 273.048 296.779C272.415 306.037 274.4 315.282 274.372 324.562C274.333 336.856 270.775 348.818 267.249 360.572C272.014 351.964 279.827 349.86 284.455 342.246C289.253 334.352 286.139 317.417 287.492 308.226C288.764 299.588 292.505 294.199 300.983 292.731C295.113 299.443 297.125 311.074 298.358 319.991C299.591 328.909 301.454 338.372 297.938 346.628C295.021 353.479 288.89 358.241 284.452 364.175C279.645 370.603 276.82 378.562 276.476 386.648C280.269 381.074 287.846 381.062 292.505 379.566C298.142 377.755 300.613 370.516 301.074 364.926C307.098 375.041 304.527 384.711 295.748 387.107C284.692 390.123 278.46 402.65 279.336 408.228C261.415 410.438 239.937 419.62 227.023 406.714Z" fill="#0C3729"/>
<path d="M298.136 403.521H250.476H202.816C202.816 403.521 201.996 467.9 218.213 489.418H250.476H282.741C298.955 467.9 298.136 403.521 298.136 403.521Z" fill="#CDBBA7"/>
<path d="M202.809 424.201V567.62" stroke="black" stroke-miterlimit="10"/>
<path d="M262.381 424.201V567.62" stroke="black" stroke-miterlimit="10"/>
<path d="M298.142 424.201V567.62" stroke="black" stroke-miterlimit="10"/>
<path d="M298.141 489.418H202.809" stroke="black" stroke-miterlimit="10"/>
<path d="M202.952 413.921H298.011" stroke="black" stroke-miterlimit="10"/>
<path d="M343.407 169.233C343.407 169.233 348.597 128.706 350.871 123.068C353.146 117.43 357.568 109.285 358.748 107.927C359.927 106.57 369.304 109.924 369.304 109.924L372.899 116.984L362.984 114.044C362.984 114.044 357.766 123.161 356.587 125.374C355.408 127.586 350.898 169.591 350.898 169.591L343.407 169.233Z" fill="#8B3130"/>
<path d="M317.797 169.233C317.797 169.233 322.987 128.706 325.261 123.068C327.536 117.43 331.958 109.285 333.137 107.927C334.316 106.57 343.693 109.924 343.693 109.924L347.288 116.984L337.373 114.044C337.373 114.044 332.155 123.161 330.976 125.374C329.797 127.586 325.287 169.591 325.287 169.591L317.797 169.233Z" fill="#8B3130"/>
<path d="M457.827 530.617C457.827 530.617 467.919 524.181 468.704 521.769C469.49 519.356 465.485 471.493 465.485 471.493H508.233L512.065 535.873C512.065 535.873 478.397 557.966 457.827 530.617Z" fill="#9F5B5D"/>
<path d="M424.021 567.619C424.021 567.619 421.026 549.842 424.021 545.9C429.524 538.661 457.827 530.617 457.827 530.617L475.516 537.453C475.516 537.453 485.356 528.637 487.702 525.79C489.911 523.109 506.57 526.996 511.681 529.41C514.577 530.778 517.946 567.619 517.946 567.619H424.021Z" fill="white"/>
<path d="M433.575 539.494L447.478 556.76" stroke="#332737" stroke-miterlimit="10" stroke-linecap="round" stroke-linejoin="round"/>
<path d="M422.689 556.76H516.825" stroke="#332737" stroke-miterlimit="10" stroke-linecap="round" stroke-linejoin="round"/>
<path d="M475.516 537.455C475.516 537.455 456.912 545.9 465.168 556.76" stroke="#332737" stroke-miterlimit="10" stroke-linecap="round" stroke-linejoin="round"/>
<path d="M454.209 530.216L461.444 537.455" stroke="#332737" stroke-miterlimit="10" stroke-linecap="round" stroke-linejoin="round"/>
<path d="M447.479 532.255L454.712 539.494" stroke="#332737" stroke-miterlimit="10" stroke-linecap="round" stroke-linejoin="round"/>
<path d="M352.533 530.617C352.533 530.617 362.625 524.181 363.411 521.769C364.196 519.356 376.776 471.493 376.776 471.493L414.513 478.733L404.686 546.251C404.686 546.251 373.103 557.966 352.533 530.617Z" fill="#9F5B5D"/>
<path d="M372.431 255.992L352.957 506.082L417.533 517.389L442.538 334.344L456.855 517.389L521.043 510.909L489.595 255.512L372.431 255.992Z" fill="#88A51D"/>
<path d="M347.337 49.2417C347.337 49.2417 373.239 52.8606 370.094 65.3001C370.094 65.3001 346.06 67.1774 347.337 49.2417Z" fill="#332737"/>
<path d="M358.152 41.4243C358.152 41.4243 364.178 24.8444 369.036 23.8882C372.088 23.2874 374.381 23.7235 374.079 25.0671C374.079 25.0671 378.224 25.0747 379.026 25.9409C379.828 26.8071 378.792 29.9593 378.792 29.9593C378.792 29.9593 382.095 29.7214 383.399 30.8667C384.85 32.1401 386.47 35.0772 384.832 35.7879C384.832 35.7879 388.861 37.7384 389.862 41.4228C390.864 45.1073 388.571 44.9242 387.941 44.7778C387.31 44.6299 385.479 44.2715 382.137 41.4228C382.137 41.4228 379.102 50.335 371.586 50.335L358.152 41.4243Z" fill="#9F5B5D"/>
<path d="M358.152 41.4246L339.973 68.1565L354.848 81.0612L371.586 50.3367L358.152 41.4246Z" fill="#9F5B5D"/>
<path d="M372.78 238.803C372.78 238.803 371.644 253.58 372.431 255.992C373.217 258.405 487.237 256.316 489.595 255.512C491.953 254.707 490.381 237.828 490.381 237.828L372.78 238.803Z" fill="white"/>
<path d="M460.276 45.034L457.948 102.76L427.934 101.827V45.034H460.276Z" fill="#9F5B5D"/>
<path d="M427.977 66.8786L427.934 84.0731C427.934 84.0731 448.321 84.6861 450.383 65.3002L427.977 66.8786Z" fill="#332737"/>
<path d="M410.202 44.3191C410.202 45.96 410.294 47.6116 410.48 49.2433C410.926 53.1992 411.908 57.0514 413.437 60.4476C416.627 67.5252 421.877 75.225 432.949 75.225C454.178 75.225 459.112 68.6735 459.112 44.3206C459.112 30.385 448.161 19.0862 434.652 19.0862C421.152 19.0831 410.202 26.9766 410.202 44.3191Z" fill="#9F5B5D"/>
<path d="M424.927 43.2362C424.793 44.0796 425.352 44.8756 426.176 45.0129C427 45.1501 427.778 44.5782 427.913 43.7349C428.047 42.8916 427.488 42.0955 426.663 41.9583C425.839 41.8195 425.061 42.3929 424.927 43.2362Z" fill="#332737"/>
<path d="M411.904 41.0083C411.77 41.8516 412.329 42.6477 413.153 42.785C413.977 42.9222 414.755 42.3503 414.889 41.507C415.023 40.6637 414.465 39.8676 413.64 39.7288C412.816 39.5916 412.038 40.1635 411.904 41.0083Z" fill="#332737"/>
<path d="M434.657 59.8436C437.949 59.8436 440.618 57.1132 440.618 53.745C440.618 50.3769 437.949 47.6465 434.657 47.6465C431.366 47.6465 428.697 50.3769 428.697 53.745C428.697 57.1132 431.366 59.8436 434.657 59.8436Z" fill="#944446"/>
<path d="M410.48 49.2417C410.926 53.1976 411.908 57.0498 413.437 60.446C415.078 59.3647 416.163 57.4768 416.163 55.3326C416.163 52.0599 413.641 49.3851 410.48 49.2417Z" fill="#944446"/>
<path d="M421.877 63.5446C420.541 64.0692 419.145 64.2034 417.779 63.9395" stroke="#332737" stroke-miterlimit="10" stroke-linecap="round" stroke-linejoin="round"/>
<path d="M418.905 54.8446C418.905 54.8446 413.948 54.2804 414.225 49.9493C414.373 47.6481 418.905 49.8365 418.905 49.8365L419.828 43.4863" stroke="#332737" stroke-miterlimit="10" stroke-linecap="round" stroke-linejoin="round"/>
<path d="M370.094 65.3L345.864 112.888C345.864 112.888 391.425 99.2391 401.585 97.3466C407.266 96.2882 483.528 93.7415 491.391 100.665C494.667 103.55 539.911 177.887 540.698 183.22C541.484 188.552 490.382 237.829 490.382 237.829L469.941 205.976L503.747 183.22L479.374 143.649L490.382 237.829L372.781 238.804L383.985 145.31C383.985 145.31 310.298 154.342 304.268 147.722C285.58 127.209 347.34 49.2431 347.34 49.2431C347.34 49.2431 349.948 61.3075 370.094 65.3Z" fill="#FFCC00"/>
<path d="M340.678 58.0394C340.678 58.0394 345.865 72.6673 365.043 75.2217" stroke="#332737" stroke-miterlimit="10" stroke-linecap="round" stroke-linejoin="round"/>
<path d="M420.912 96.6618C420.912 96.6618 423.157 90.2095 424.71 89.0383C427.455 86.9688 462.178 87.9936 463.652 88.2956C465.126 88.5975 465.445 96.0808 465.445 96.0808C465.445 96.0808 432.42 101.71 420.912 96.6618Z" fill="white"/>
<path d="M485.439 195.542L497.342 231.039L490.382 237.828L485.439 195.542Z" fill="#332737"/>
<path d="M383.983 145.308L395.186 144.476L382.314 159.233L383.983 145.308Z" fill="#332737"/>
<path d="M503.747 183.219L513.181 186.838" stroke="#332737" stroke-miterlimit="10" stroke-linecap="round" stroke-linejoin="round"/>
<path d="M479.375 143.648V122.985C479.375 122.985 490.129 138.755 485.44 153.495L479.375 143.648Z" fill="#332737"/>
<path d="M376.715 205.975L388.751 220.52" stroke="#332737" stroke-miterlimit="10" stroke-linecap="round" stroke-linejoin="round"/>
<path d="M345.864 112.888L337.467 119.165" stroke="#332737" stroke-miterlimit="10" stroke-linecap="round" stroke-linejoin="round"/>
<path d="M432.496 29.8084C432.496 29.8084 431.944 36.4864 433.402 38.8929C435.344 42.1 440.617 42.1 440.617 42.1C440.617 42.1 448.829 31.7192 453.54 39.7103C459.111 49.1623 446.561 52.0965 446.561 52.0965C440.617 60.449 447.773 66.4346 447.773 66.4346C459.539 71.5678 461.893 67.1605 465.586 59.8451C468.111 54.8445 476.395 19.0845 451.447 11.493C443.3 9.01332 419.743 4.45811 419.743 4.45811C419.743 4.45811 418.038 -0.774212 415.667 0.0980957C413.295 0.970403 410.893 6.20272 410.893 6.20272C410.893 6.20272 406.104 3.14965 405.174 5.33041C404.242 7.51118 406.186 13.3977 406.186 13.3977C406.186 13.3977 398.221 13.8583 398.647 16.2571C399.073 18.656 403.621 25.6909 403.621 25.6909C403.621 25.6909 400.106 32.2072 399.893 35.2588C399.68 38.3119 410.203 43.2849 410.203 43.2849C410.177 41.0554 411.095 36.3797 411.095 36.3797C411.095 36.3797 421.84 37.2215 432.496 29.8084Z" fill="#332737"/>
<path d="M444.095 41.4565C444.095 41.4565 448.95 38.716 451.018 42.71C453.086 46.704 447.077 49.1608 447.077 49.1608" stroke="#332737" stroke-miterlimit="10" stroke-linecap="round" stroke-linejoin="round"/>
<path d="M457.144 288.226C457.144 288.226 455.395 304.327 450.383 313.805C445.37 323.283 442.537 334.346 442.537 334.346" stroke="#332737" stroke-miterlimit="10" stroke-linecap="round" stroke-linejoin="round"/>
<path d="M372.185 267.779H490.894" stroke="#332737" stroke-miterlimit="10" stroke-linecap="round" stroke-linejoin="round"/>
<path d="M365.023 508.196L382.733 370.73" stroke="#332737" stroke-miterlimit="10" stroke-linecap="round" stroke-linejoin="round"/>
<path d="M463.115 371.398L475.576 515.499" stroke="#332737" stroke-miterlimit="10" stroke-linecap="round" stroke-linejoin="round"/>
<path d="M318.727 567.619C318.727 567.619 315.732 549.842 318.727 545.9C324.23 538.661 352.533 530.617 352.533 530.617L370.222 537.453C370.222 537.453 380.062 528.637 382.408 525.79C384.617 523.109 401.277 526.996 406.387 529.41C409.283 530.778 412.652 567.619 412.652 567.619H318.727Z" fill="white"/>
<path d="M328.283 539.494L342.184 556.76" stroke="#332737" stroke-miterlimit="10" stroke-linecap="round" stroke-linejoin="round"/>
<path d="M317.396 556.76H411.531" stroke="#332737" stroke-miterlimit="10" stroke-linecap="round" stroke-linejoin="round"/>
<path d="M370.224 537.455C370.224 537.455 351.619 545.9 359.874 556.76" stroke="#332737" stroke-miterlimit="10" stroke-linecap="round" stroke-linejoin="round"/>
<path d="M348.917 530.216L356.15 537.455" stroke="#332737" stroke-miterlimit="10" stroke-linecap="round" stroke-linejoin="round"/>
<path d="M342.185 532.255L349.42 539.494" stroke="#332737" stroke-miterlimit="10" stroke-linecap="round" stroke-linejoin="round"/>
<path d="M392.304 257.119V272.002" stroke="#332737" stroke-miterlimit="10" stroke-linecap="round" stroke-linejoin="round"/>
<path d="M481.634 257.119V272.002" stroke="#332737" stroke-miterlimit="10" stroke-linecap="round" stroke-linejoin="round"/>
<path d="M449.438 413.921C452.419 415.256 455.859 415.489 458.987 414.571" stroke="#332737" stroke-miterlimit="10" stroke-linecap="round" stroke-linejoin="round"/>
<path d="M360.944 403.521C363.232 405.695 365.053 407.199 368.116 407.813" stroke="#332737" stroke-miterlimit="10" stroke-linecap="round" stroke-linejoin="round"/>
<path d="M371.586 50.3367L367.891 51.9441" stroke="#332737" stroke-miterlimit="10" stroke-linecap="round" stroke-linejoin="round"/>
<path d="M303.588 123.493C303.588 123.493 326.452 131.653 320.561 150.146" stroke="#332737" stroke-miterlimit="10" stroke-linecap="round" stroke-linejoin="round"/>
<path d="M530.28 165.286C530.28 165.286 515.374 181.227 532.254 195.042" stroke="#332737" stroke-miterlimit="10" stroke-linecap="round" stroke-linejoin="round"/>
<path d="M387.573 164.551H408.072C408.072 164.551 410.43 237.816 412.395 243.446C414.361 249.077 423.009 271.265 423.009 271.265H385.272C385.272 271.265 371.006 212.752 387.573 164.551Z" fill="#8B3130"/>
<path d="M304.113 271.265C304.113 271.265 301.165 256.787 304.113 240.497C307.061 224.208 312.388 175.066 310.02 168.264L387.573 164.55C387.573 164.55 386.874 235.084 386.212 241.703C385.288 250.954 391.773 271.265 391.773 271.265H304.113Z" fill="#8B3130"/>
<path d="M403.497 165.135C403.497 165.135 395.603 117.236 393.329 111.598C391.054 105.96 386.632 97.8149 385.453 96.4576C384.274 95.1004 354.283 104.324 354.283 104.324L351.177 111.484L381.219 102.576C381.219 102.576 386.437 111.693 387.616 113.905C388.795 116.118 396.009 165.495 396.009 165.495L403.497 165.135Z" fill="#8B3130"/>
<path d="M375.356 165.135C375.356 165.135 370.166 124.608 367.891 118.97C365.617 113.332 361.194 105.187 360.014 103.83C358.835 102.472 349.458 105.826 349.458 105.826L345.863 112.887L355.778 109.946C355.778 109.946 360.996 119.063 362.175 121.276C363.354 123.488 367.864 165.493 367.864 165.493L375.356 165.135Z" fill="#8B3130"/>
<path d="M423.008 271.265L403.496 253.601C403.496 253.601 391.242 270.529 391.773 271.265" stroke="white" stroke-miterlimit="10" stroke-linecap="round" stroke-linejoin="round"/>
<path d="M398.629 164.551C398.629 164.551 398.327 187.841 398.629 197.796C398.932 207.752 403.497 253.601 403.497 253.601" stroke="white" stroke-miterlimit="10" stroke-linecap="round" stroke-linejoin="round"/>
<path d="M378.638 199.401L375.099 210.95L380.867 243.529L408.414 238.702L402.518 207.029L395.148 196.169L378.638 199.401Z" fill="white"/>
<path d="M386.027 201.81L380.533 164.888" stroke="#332737" stroke-miterlimit="10" stroke-linecap="round" stroke-linejoin="round"/>
<path fill-rule="evenodd" clip-rule="evenodd" d="M386.432 224.471C385.875 224.593 385.352 224.577 384.861 224.422C384.372 224.266 384.052 224.053 383.904 223.781C383.819 223.649 383.752 223.522 383.705 223.405C383.657 223.286 383.614 223.138 383.577 222.959C383.518 222.68 383.499 222.418 383.523 222.172C383.545 221.928 383.588 221.71 383.651 221.521C383.714 221.332 383.772 221.187 383.825 221.088C383.879 220.989 383.919 220.923 383.948 220.894L382.633 220.429L386.434 219.504L388.89 222.541L387.654 222.13C387.628 222.171 387.587 222.235 387.532 222.325C387.477 222.413 387.413 222.52 387.343 222.647C387.273 222.773 387.206 222.9 387.14 223.023C387.076 223.15 387.033 223.249 387.015 223.324C386.967 223.476 386.955 223.606 386.978 223.717C387.015 223.896 387.108 224.019 387.254 224.086C387.398 224.153 387.513 224.196 387.596 224.211L386.432 224.471ZM397.569 222.656C397.939 222.563 398.262 222.406 398.543 222.186C398.821 221.966 399.049 221.735 399.228 221.491C399.405 221.247 399.534 221.044 399.614 220.879C399.695 220.716 399.75 220.595 399.778 220.519C399.751 220.771 399.705 221.015 399.641 221.251C399.577 221.488 399.489 221.776 399.377 222.116C399.31 222.342 399.264 222.499 399.237 222.587C399.189 222.798 399.137 223.014 399.082 223.237C398.951 223.806 398.841 224.259 398.75 224.594C398.66 224.931 398.553 225.259 398.426 225.581C398.3 225.901 398.155 226.168 397.994 226.378C397.833 226.59 397.648 226.718 397.441 226.764C397.298 226.796 396.65 226.938 395.491 227.193L395.781 228.568L393.083 225.684L394.429 221.979L394.688 223.29C396.575 222.874 397.536 222.662 397.569 222.656ZM387.812 212.787C388.182 212.699 388.892 212.54 389.941 212.309C391.001 212.075 391.785 211.935 392.294 211.886C392.804 211.839 393.15 211.917 393.33 212.122C393.362 212.162 393.442 212.258 393.572 212.412C393.701 212.565 393.85 212.732 394.02 212.919C394.19 213.103 394.327 213.254 394.433 213.37C394.538 213.487 394.614 213.576 394.661 213.635L395.681 212.691L394.824 216.687L390.799 217.187L391.759 216.292L389.871 214.164C389.583 213.829 389.278 213.573 388.954 213.393C388.631 213.213 388.324 213.098 388.033 213.051C387.742 213.005 387.505 212.987 387.319 212.999C387.133 213.012 386.996 213.027 386.909 213.045C387.14 212.961 387.441 212.874 387.812 212.787ZM384.872 224.792C384.416 224.687 384.085 224.504 383.882 224.245C383.942 224.313 384.037 224.423 384.167 224.576C384.296 224.728 384.471 224.933 384.69 225.187C384.909 225.442 385.14 225.712 385.383 225.997C385.626 226.281 385.802 226.493 385.911 226.633C385.972 226.712 386.013 226.769 386.031 226.801C386.224 227.061 386.401 227.295 386.563 227.499C386.727 227.702 386.908 227.911 387.107 228.124C387.307 228.338 387.502 228.506 387.693 228.628C387.884 228.748 388.051 228.794 388.193 228.763L392.469 227.821L391.585 223.623C389.063 224.179 387.327 224.56 386.376 224.771C385.829 224.888 385.328 224.896 384.872 224.792ZM397.012 222.087C396.755 221.815 396.205 221.244 395.365 220.371C394.524 219.499 394.029 218.985 393.883 218.829L396.827 216.04C396.872 216.089 396.979 216.217 397.149 216.426C397.319 216.635 397.526 216.887 397.772 217.184C398.28 217.808 398.657 218.271 398.905 218.575C399.151 218.877 399.326 219.087 399.432 219.203C399.508 219.293 399.562 219.415 399.595 219.571C399.639 219.783 399.641 220.034 399.599 220.324C399.581 220.399 399.529 220.521 399.444 220.692C399.361 220.861 399.233 221.068 399.061 221.311C398.89 221.553 398.662 221.788 398.379 222.014C398.094 222.239 397.773 222.398 397.416 222.49C397.404 222.491 397.27 222.357 397.012 222.087ZM388.215 219.174L384.502 217.986C384.523 217.924 384.623 217.637 384.802 217.129C384.837 217.027 384.927 216.766 385.074 216.347C385.221 215.927 385.35 215.557 385.465 215.232C385.58 214.909 385.672 214.639 385.741 214.424C385.811 214.209 385.86 214.062 385.888 213.986C385.936 213.835 386.027 213.71 386.161 213.609C386.294 213.509 386.496 213.4 386.769 213.281C386.878 213.257 387.028 213.239 387.221 213.227C387.412 213.214 387.653 213.231 387.944 213.278C388.233 213.326 388.537 213.436 388.853 213.606C389.169 213.779 389.464 214.026 389.738 214.354L389.805 214.427C389.878 214.505 389.945 214.578 390.005 214.646L388.215 219.174Z" fill="white"/>
<path d="M149.307 543.824C149.307 543.824 144.691 523.14 143.699 518.075C142.707 513.009 156.366 285.483 156.366 285.483L101.748 296.262C101.748 296.262 117.837 504.491 117.898 510.267C118.006 520.456 117.68 528.628 117.68 528.628C117.68 528.628 121.457 549.523 128.911 556.487C136.363 563.451 147.643 559.019 149.307 543.824Z" fill="#F17353"/>
<path d="M104.039 325.985L155.176 305.42L156.366 285.483L101.748 296.261L104.039 325.985Z" fill="#284811"/>
<path d="M149.306 543.823C149.306 543.823 149.861 553.799 144.355 555.697C138.849 557.597 125.013 550.788 123.154 546.039C121.296 541.29 117.68 528.628 117.68 528.628C117.68 528.628 112.731 533.377 112.052 536.226C111.372 539.075 111.372 539.074 111.372 539.074L109.934 550.155L118.763 553.638C118.763 553.638 119.223 564.402 122.174 567.884C125.125 571.367 129.204 578.868 146.946 578.858C153.141 578.854 156.778 569.627 155.559 562.346C154.732 557.416 149.306 543.823 149.306 543.823Z" fill="white"/>
<path d="M29.8845 543.824C29.8845 543.824 37.1848 523.14 38.8348 518.075C40.4848 513.011 56.3674 285.483 56.3674 285.483L109.585 296.262C109.585 296.262 66.4609 504.491 65.6486 510.267C64.2178 520.454 63.483 528.628 63.483 528.628C63.483 528.628 56.9934 549.523 48.6347 556.487C40.2791 563.451 29.5759 559.019 29.8845 543.824Z" fill="#F17353"/>
<path d="M104.962 320.109L54.1064 317.646L56.369 285.483L109.587 296.261L104.962 320.109Z" fill="#284811"/>
<path d="M51.9867 230.595L45.436 305.758L104.962 320.109L110.338 311.668L158.81 304.914L152.615 230.595H51.9867Z" fill="#284811"/>
<path d="M124.53 299.465L157.899 293.978" stroke="#0C3729" stroke-miterlimit="10" stroke-linecap="round" stroke-linejoin="round"/>
<path d="M46.5007 294.783L105.655 307.829" stroke="#0C3729" stroke-miterlimit="10" stroke-linecap="round" stroke-linejoin="round"/>
<path d="M50.5518 247.063L153.422 240.268" stroke="#0C3729" stroke-miterlimit="10" stroke-linecap="round" stroke-linejoin="round"/>
<path d="M29.8845 543.823C29.8845 543.823 28.0348 553.799 33.2947 555.697C38.5546 557.597 53.2747 550.788 55.7504 546.039C58.2261 541.29 63.486 528.628 63.486 528.628C63.486 528.628 67.8173 533.377 68.1274 536.226C68.4374 539.075 68.4374 539.074 68.4374 539.074V550.155L59.1546 553.637C59.1546 553.637 57.2975 564.4 53.8947 567.884C50.4919 571.365 45.4377 578.868 27.698 578.858C21.502 578.854 19.0636 569.627 21.2293 562.346C22.6944 557.416 29.8845 543.823 29.8845 543.823Z" fill="white"/>
<path d="M102.124 301.965C102.124 301.965 107.227 312.101 110.338 311.666C113.448 311.233 125.919 300.692 128.583 292.25" stroke="#0C3729" stroke-miterlimit="10" stroke-linecap="round" stroke-linejoin="round"/>
<path d="M25.4547 350.116C25.4547 350.116 19.2289 300.186 64.0731 298.464C103.35 296.956 110.36 333.414 105.72 351.666L101.009 350.976C101.009 350.976 106.975 302.425 64.0731 303.112C28.4476 303.684 29.3255 348.91 29.3255 348.91L25.4547 350.116Z" fill="#4D3C54"/>
<path d="M14.8528 349.944C14.8528 349.944 30.5029 345.811 34.5406 345.811C38.5798 345.811 90.5754 345.294 93.1003 345.811C95.6236 346.328 116.322 352.158 116.322 352.158C116.322 352.158 111.274 403.661 109.759 407.794C108.245 411.926 97.1395 417.092 94.1108 419.157C91.0821 421.223 38.5798 416.573 34.5421 417.09C30.5029 417.607 16.8724 357.175 14.8528 349.944Z" fill="#8B3130"/>
<path d="M31.0083 341.119C31.0083 341.119 36.5618 379.688 37.0656 382.636C37.5709 385.583 89.5664 385.584 92.5966 385.584C95.6253 385.584 97.1396 338.581 97.1396 338.581C97.1396 338.581 35.5513 336.986 31.0083 341.119Z" fill="#A43B3A"/>
<path d="M54.9023 382.635L55.9129 390.061H72.2352V381.968L54.9023 382.635Z" fill="#FEC779"/>
<path d="M171.6 319.053C171.6 319.053 201.02 325.068 202.953 303.858C202.953 303.858 188.128 295.627 171.6 319.053Z" fill="#0C3729"/>
<path d="M1.29395 304.913C1.29395 304.913 6.75956 326.23 32.6478 320.108C32.6478 320.108 24.4993 300.904 1.29395 304.913Z" fill="#0C3729"/>
<path d="M54.1884 131.007L51.1135 240.62L106.236 236.533C106.236 236.533 125.559 250.04 131.497 250.04C137.435 250.04 158.811 233.448 158.811 233.448L146.512 131.007H54.1884Z" fill="white"/>
<path d="M131.497 60.4445C131.497 60.4445 141.148 52.9186 138.259 45.321C133.507 32.8189 121.174 22.949 108.943 20.4175C96.7103 17.8844 88.52 20.0103 84.302 25.7093C84.302 25.7093 77.2684 22.5281 70.6014 25.7093C68.1556 26.8759 55.862 50.8095 56.1616 70.6057C56.4508 89.6455 60.8149 102.247 80.1689 118.767L97.0158 115.836L131.497 60.4445Z" fill="#332737"/>
<path d="M124.916 74.5538C115.684 73.6632 112.225 91.541 119.555 93.5921C130.692 96.7092 134.433 75.4719 124.916 74.5538ZM121.515 89.5722C116.716 88.1646 118.98 75.8989 125.025 76.5104C131.257 77.1403 128.808 91.7102 121.515 89.5722Z" fill="white"/>
<path d="M86.3873 58.398L88.7169 116.124L81.3181 128.263L106.977 185.063L126.76 134.173L115.596 115.191V58.398H86.3873Z" fill="#F17353"/>
<path d="M115.596 94.7437V80.8981H97.0173C97.0173 80.8981 97.4958 94.7437 115.596 94.7437Z" fill="#332737"/>
<path d="M131.497 60.4446C131.497 61.9589 131.412 63.4809 131.24 64.986C130.83 68.6354 129.923 72.1872 128.513 75.3195C125.571 81.8466 120.422 86.5543 113 86.5543C100.548 86.5543 86.3872 82.9049 86.3872 60.4446C86.3872 47.5902 96.4867 37.1698 108.947 37.1698C121.396 37.1698 131.497 44.4487 131.497 60.4446Z" fill="#F17353"/>
<path d="M84.3021 75.4751C88.3818 75.4751 91.689 72.0913 91.689 67.9172C91.689 63.743 88.3818 60.3592 84.3021 60.3592C80.2225 60.3592 76.9153 63.743 76.9153 67.9172C76.9153 72.0913 80.2225 75.4751 84.3021 75.4751Z" fill="#F17353"/>
<path d="M111.733 60.359C111.733 61.1474 111.109 61.7864 110.338 61.7864C109.568 61.7864 108.943 61.1474 108.943 60.359C108.943 59.5706 109.568 58.9316 110.338 58.9316C111.109 58.9316 111.733 59.5706 111.733 60.359Z" fill="#332737"/>
<path d="M125.365 61.7864C126.135 61.7864 126.76 61.1473 126.76 60.359C126.76 59.5706 126.135 58.9316 125.365 58.9316C124.594 58.9316 123.97 59.5706 123.97 60.359C123.97 61.1473 124.594 61.7864 125.365 61.7864Z" fill="#332737"/>
<path d="M118.766 65.2287C118.766 65.2287 122.098 67.8837 121.812 69.6421C121.558 71.1991 117.751 70.4015 117.751 70.4015" stroke="#332737" stroke-miterlimit="10" stroke-linecap="round" stroke-linejoin="round"/>
<path d="M111.733 70.6043C111.733 73.7107 109.272 76.2285 106.236 76.2285C103.2 76.2285 100.739 73.7107 100.739 70.6043C100.739 67.4978 103.2 64.98 106.236 64.98C109.272 64.98 111.733 67.4994 111.733 70.6043Z" fill="#E05E61"/>
<path d="M131.239 64.9859C130.829 68.6353 129.921 72.187 128.511 75.3194C126.997 74.322 125.997 72.5805 125.997 70.6041C125.997 67.5845 128.323 65.1171 131.239 64.9859Z" fill="#E05E61"/>
<path d="M110.338 77.9351C111.57 78.42 112.857 78.5435 114.116 78.2995" stroke="#332737" stroke-miterlimit="10" stroke-linecap="round" stroke-linejoin="round"/>
<path d="M84.9504 64.05C84.9504 64.05 79.847 64.3962 80.1853 68.5503C80.5236 72.7044 86.3842 71.55 86.3842 71.55" stroke="#332737" stroke-miterlimit="10" stroke-linecap="round" stroke-linejoin="round"/>
<path d="M83.2619 72.5882C74.0298 71.6961 70.5704 89.5753 77.9006 91.6265C89.0375 94.7436 92.7786 73.5078 83.2619 72.5882ZM79.8606 87.6065C75.0612 86.199 77.3253 73.9333 83.3707 74.5448C89.6009 75.1746 87.152 89.7446 79.8606 87.6065Z" fill="white"/>
<path d="M131.239 49.9632C131.239 49.9632 121.035 41.8379 102.47 42.3655C102.47 42.3655 104.643 58.578 86.3844 60.4431C86.3844 60.4431 78.9618 49.646 86.3844 35.7165C93.807 21.7886 128.441 18.9444 131.239 49.9632Z" fill="#332737"/>
<path d="M115.531 115.069C115.531 115.069 164.174 122.354 169.124 123.199C174.074 124.042 193.051 211.84 198.002 227.036C202.952 242.231 202.952 303.858 202.952 303.858C202.952 303.858 182.325 305.546 171.598 319.053L164.997 231.257L143.545 238.854C144.077 241.121 124.726 186.598 117.318 159.418C112.689 142.428 115.531 115.069 115.531 115.069Z" fill="#4D660C"/>
<path d="M97.478 230.595C97.478 230.595 99.6243 229.146 100.739 229.146C101.854 229.146 104.433 233.157 106.236 236.533" stroke="#0C3729" stroke-miterlimit="10" stroke-linecap="round" stroke-linejoin="round"/>
<path d="M80.1707 175.266L80.6253 277.681L63.6785 277.71L50.5518 184.325C50.5518 184.325 65.9142 171.405 80.1707 175.266Z" fill="#F17353"/>
<path d="M88.7165 116.125C88.7165 116.125 40.0731 123.41 35.1232 124.254C30.1733 125.099 11.195 212.896 6.24506 228.091C1.29516 243.286 1.29517 304.914 1.29517 304.914C1.29517 304.914 21.922 306.602 32.649 320.109L39.2489 232.311L60.7014 239.908C60.1693 242.174 79.5202 187.652 86.928 160.472C91.5574 143.483 88.7165 116.125 88.7165 116.125Z" fill="#4D660C"/>
<path d="M63.6783 277.71C63.6783 277.71 58.1128 292.607 57.0173 294.89C55.9233 297.173 58.5465 309.643 59.815 310.193C61.0848 310.744 63.1015 308.401 63.1015 308.401C63.1015 308.401 65.9811 310.022 67.2048 309.83C68.4285 309.638 69.1961 307.059 69.1961 307.059C69.1961 307.059 70.4362 309.626 71.4735 309.559C72.5124 309.492 73.7227 308.465 73.7227 308.465C73.7227 308.465 75.2236 310.265 76.8318 310.042C78.44 309.82 79.5728 300.029 79.5728 300.029L82.515 300.787C82.515 300.787 82.5553 284.55 82.0992 282.801C81.6431 281.053 80.6251 277.681 80.6251 277.681L63.6783 277.71Z" fill="#F17353"/>
<path d="M88.717 116.125C88.717 116.125 66.8888 133.223 62.5575 136.389C58.2262 139.555 68.4807 218.116 68.4807 218.116" stroke="#0C3729" stroke-miterlimit="10" stroke-linecap="round" stroke-linejoin="round"/>
<path d="M62.5574 136.389L80.1704 148.102" stroke="#0C3729" stroke-miterlimit="10" stroke-linecap="round" stroke-linejoin="round"/>
<path d="M115.531 115.069C115.531 115.069 142.385 141.138 145.169 144.304C147.953 147.47 136.517 219.235 136.517 219.235" stroke="#0C3729" stroke-miterlimit="10" stroke-linecap="round" stroke-linejoin="round"/>
<path d="M145.169 144.304L134.959 150.951" stroke="#0C3729" stroke-miterlimit="10" stroke-linecap="round" stroke-linejoin="round"/>
<path d="M161.362 142.246C161.362 142.246 159.56 150.425 158.81 155.067C158.062 159.711 164.998 231.257 164.998 231.257" stroke="#0C3729" stroke-miterlimit="10" stroke-linecap="round" stroke-linejoin="round"/>
<path d="M169.124 123.199C169.124 123.199 166.367 125.942 164.998 128.263" stroke="#0C3729" stroke-miterlimit="10" stroke-linecap="round" stroke-linejoin="round"/>
<path d="M35.1235 124.254C35.1235 124.254 38.4354 127.643 39.7709 130.322C39.8886 130.557 39.99 130.787 40.0734 131.008" stroke="#0C3729" stroke-miterlimit="10" stroke-linecap="round" stroke-linejoin="round"/>
<path d="M39.248 232.312C39.4537 231.467 46.8972 159.288 46.4843 155.067C46.0715 150.846 45.4365 145.992 44.1994 143.459" stroke="#0C3729" stroke-miterlimit="10" stroke-linecap="round" stroke-linejoin="round"/>
<path d="M1.39575 293.297C1.39575 293.297 23.671 295.58 33.8317 304.363" stroke="#0C3729" stroke-miterlimit="10" stroke-linecap="round" stroke-linejoin="round"/>
<path d="M170.315 301.965C170.315 301.965 188.15 289.078 202.809 289.503" stroke="#0C3729" stroke-miterlimit="10" stroke-linecap="round" stroke-linejoin="round"/>
<path d="M134.581 423.39C138.034 424.226 141.839 424.985 144.856 422.59" stroke="#332737" stroke-miterlimit="10" stroke-linecap="round" stroke-linejoin="round"/>
<path d="M61.8938 423.39C58.4404 424.226 54.6351 424.985 51.6184 422.59" stroke="#332737" stroke-miterlimit="10" stroke-linecap="round" stroke-linejoin="round"/>
<path d="M142.717 229.338L183.874 135.98L199.302 143.155L173.338 233.685C173.338 233.685 163.58 250.567 152.929 248.959C147.508 248.14 137.688 240.44 142.717 229.338Z" fill="#F17353"/>
<path d="M226.544 129.319C225.512 128.474 217.055 125.942 214.167 125.73C211.278 125.52 211.485 130.327 211.485 130.327C211.485 130.327 193.936 123.861 191.477 124.675C187.055 126.139 183.874 135.978 183.874 135.978L199.302 143.152C199.302 143.152 226.336 142.824 226.544 141.136C226.751 139.449 227.575 130.164 226.544 129.319Z" fill="#F17353"/>
<path d="M227.044 132.273C227.044 132.273 221.387 117.07 219.737 116.124C218.087 115.179 211.464 120.278 216.908 131.007L227.044 132.273Z" fill="#F17353"/>
<path d="M224.106 179.714H185.643C180.086 179.714 178.392 172.004 183.412 169.57L193.297 164.777L224.106 149.838L254.916 164.777L264.801 169.57C269.823 172.004 268.126 179.714 262.57 179.714H224.106Z" stroke="#332737" stroke-miterlimit="10" stroke-linecap="round" stroke-linejoin="round"/>
<path d="M215.569 130.925C215.569 125.486 220.426 121.209 225.944 122.385C229.171 123.072 231.781 125.743 232.453 129.044C233.414 133.764 230.65 138.011 226.612 139.279C225.096 139.754 224.106 141.251 224.106 142.873V149.836" stroke="#332737" stroke-miterlimit="10" stroke-linecap="round" stroke-linejoin="round"/>
<path d="M238.062 152.731C238.062 152.731 259.746 155.432 265.101 157.702C274.764 161.799 298.143 184.12 298.143 184.12L270.011 216.109L286.144 281.199L186.842 292.88L182.333 217.384L150.071 196.32C150.071 196.32 158.305 171.366 169.409 166C180.17 160.798 203.136 154.579 203.136 154.579C203.136 154.579 207.05 175.67 222.555 174.435C238.062 173.198 238.062 152.731 238.062 152.731Z" fill="#E9EFD3"/>
<path d="M270.009 216.109C270.009 216.109 261.627 185.989 262.436 171.53" stroke="#332737" stroke-miterlimit="10" stroke-linecap="round" stroke-linejoin="round"/>
<path d="M173.739 171.53C173.739 171.53 181.018 195.36 182.334 217.384" stroke="#332737" stroke-miterlimit="10" stroke-linecap="round" stroke-linejoin="round"/>
<path d="M236.307 203.88C242.886 206.307 248.005 211.618 250.038 218.111C250.731 220.298 251.193 223.564 251.126 225.596C251.061 227.727 250.133 232.043 249.371 233.775L248.795 235.127L248.514 233.721C247.548 228.871 244.476 225.555 238.917 223.369C237.264 222.702 235.304 222.314 226.842 220.949C222.784 220.287 222.329 220.187 220.984 219.555C216.427 217.39 214.601 214.373 214.612 209.009L214.629 208.364L216.58 208.14C220.366 207.673 221.558 207.727 225.812 208.502C229.095 209.085 230.036 209.331 231.633 209.988C235.178 211.423 238.58 213.443 240.929 215.511C242.057 216.478 242.364 216.63 241.694 215.863C240.098 213.987 236.675 211.316 234.12 209.958C229.163 207.27 222.672 206.117 216.766 206.876C215.881 206.974 215.141 207.04 215.11 206.995C215.078 206.95 215.772 206.483 216.658 205.933C221.569 202.914 227.029 201.898 232.711 202.947C233.914 203.161 235.532 203.585 236.307 203.88Z" fill="#8B3130"/>
<path d="M214.259 208.121C214.215 208.369 213.726 209.009 213.172 209.579C212.601 210.126 211.791 211.024 211.354 211.595L210.546 212.591L211.427 213.73C214.551 217.744 220.343 221.603 226.676 223.868C229.029 224.698 234.459 226.056 234.653 225.854C234.705 225.785 234.964 225.104 235.221 224.324C235.557 223.322 235.785 222.93 235.976 222.964C236.32 223.025 236.055 223.843 234.644 227.229C231.77 234.069 227.273 240.286 222.361 244.19C221.606 244.783 221.013 245.346 221.079 245.417C221.236 245.641 222.837 246.161 224.097 246.385L225.258 246.611L226.936 245.376C230.821 242.587 233.769 239.2 236.197 234.757C237.785 231.815 239.312 227.782 239.764 225.249C239.896 224.506 240.017 224.272 240.159 224.356C240.806 224.707 238.363 232.331 236.756 234.934C236.59 235.2 236.878 235.467 238.399 236.543C241.06 238.411 240.872 238.358 241.425 237.356C242.366 235.616 243.355 232.942 244.08 230.201C244.716 227.74 244.828 227.445 244.989 227.867C245.31 228.828 243.223 235.336 241.738 237.922L241.357 238.621L242.642 239.478C243.345 239.957 244.033 240.295 244.158 240.258C244.603 240.082 246.248 238.035 247.225 236.42C248.222 234.809 248.267 234.777 248.269 235.426C248.267 236.212 247.205 237.969 245.63 239.734L244.665 240.84L246.101 241.842C246.911 242.379 248.155 243.248 248.876 243.73C250.088 244.554 253.747 247.563 253.631 247.66C253.519 247.738 249.922 245.704 248.853 244.964C248.22 244.537 246.869 243.609 245.815 242.891L243.935 241.614L242.029 243.025C236.922 246.815 230.96 248.213 224.641 247.091C220.784 246.406 217.878 245.143 214.83 242.794C209.722 238.86 206.663 233.148 206.108 226.544C205.97 224.888 206.016 224.188 206.466 221.556C206.765 219.88 207.126 218.077 207.316 217.56L207.623 216.612L206.013 215.481C205.117 214.87 204.291 214.311 204.203 214.256C204.098 214.178 203.871 215.121 203.59 216.918C203.079 220.227 202.692 220.63 203.061 217.453C203.673 212.255 203.033 209.331 201.412 210.026C200.624 210.358 200.691 210.645 201.764 211.366C202.47 211.825 203.22 212.273 203.235 212.629C203.267 212.891 203.357 213.83 203.289 213.877C203.222 213.924 201.608 212.458 200.415 211.637L198.238 210.15L197.48 210.428C196.558 210.736 196.421 210.731 195.637 210.16C194.899 209.655 194.595 208.599 194.917 207.791C195.254 207.006 196.292 206.483 197.228 206.649C198.202 206.822 198.953 207.801 198.796 208.677C198.708 209.172 198.799 209.326 199.327 209.675C199.964 210.083 199.986 210.067 200.734 209.63C202.259 208.702 203.499 209.591 203.85 211.815L204.023 212.946L205.96 214.234C207.017 214.932 207.931 215.547 208.001 215.598C208.055 215.628 208.295 215.277 208.498 214.802C209.425 212.805 212.781 208.566 214.01 207.861C214.295 207.695 214.327 207.74 214.259 208.121ZM209.419 214.494C209.071 215.12 208.503 216.317 208.172 217.181L207.555 218.762L207.949 219.205C209.06 220.484 213.501 223.631 216.345 225.138C221.166 227.704 224.335 228.817 229.124 229.688L232.652 230.334L233.308 228.976C233.677 228.236 234.091 227.347 234.229 227.017L234.471 226.431L232.867 226.147C227.006 225.106 219.706 221.863 215.383 218.383C213.835 217.126 211.507 214.826 210.945 213.999C210.694 213.64 210.395 213.331 210.273 213.349C210.171 213.37 209.783 213.891 209.419 214.494ZM206.94 221.876C206.796 223.128 206.677 224.345 206.713 224.587C206.764 225.186 212.124 229.145 215.359 230.997C219.544 233.371 225.075 235.494 228.137 235.88L229.274 236.023L230.709 233.723C231.507 232.45 232.179 231.331 232.2 231.216C232.227 231.064 231.213 230.786 229.05 230.323C221.836 228.806 216.17 226.228 210.336 221.831C208.809 220.675 207.484 219.713 207.392 219.677C207.3 219.641 207.114 220.571 206.94 221.876ZM206.825 227.162C206.888 227.802 207.088 228.997 207.274 229.836C207.608 231.271 207.668 231.38 208.898 232.542C211.732 235.207 216.774 238.52 220.021 239.863C222.005 240.668 224.465 241.34 224.796 241.144C225.431 240.785 228.586 237.119 228.668 236.662C228.688 236.548 228.545 236.464 228.325 236.484C227.668 236.524 223.244 235.267 221.038 234.384C217.067 232.794 211.539 229.552 208.256 226.866C207.501 226.241 206.853 225.791 206.797 225.88C206.746 225.949 206.758 226.541 206.825 227.162ZM235.658 236.783C234.688 238.911 230.595 243.412 227.696 245.531C225.839 246.891 225.757 246.798 228.728 246.814C230.303 246.819 233.205 246.45 233.955 246.111C235.252 245.575 240.196 240.164 240.17 239.314C240.167 238.999 236.28 236.167 236.008 236.256C235.925 236.281 235.766 236.508 235.658 236.783ZM208.731 234.144C210.77 238.613 214.945 242.814 219.285 244.764L220.234 245.188L221.33 244.341C221.925 243.877 222.829 243.114 223.344 242.655L224.243 241.812L222.781 241.395C218.729 240.263 213.533 237.257 209.225 233.583C208.748 233.164 208.327 232.873 208.282 232.904C208.237 232.936 208.432 233.501 208.731 234.144ZM239.591 241.236C238.911 242.176 237.742 243.541 237.023 244.258C235.589 245.674 235.655 245.745 237.593 244.93C238.829 244.402 243.158 241.555 243.216 241.231C243.24 241.098 241.288 239.67 240.952 239.571C240.894 239.561 240.287 240.318 239.591 241.236Z" fill="#8B3130"/>
<path d="M391.341 215.025C393.412 215.789 395.024 217.462 395.664 219.506C395.883 220.195 396.028 221.223 396.007 221.863C395.987 222.534 395.694 223.893 395.455 224.439L395.273 224.865L395.185 224.422C394.88 222.895 393.913 221.85 392.162 221.162C391.642 220.952 391.025 220.83 388.36 220.4C387.082 220.192 386.939 220.16 386.515 219.961C385.08 219.279 384.505 218.329 384.509 216.64L384.514 216.437L385.128 216.366C386.321 216.219 386.696 216.236 388.035 216.48C389.07 216.664 389.366 216.741 389.869 216.948C390.985 217.4 392.056 218.036 392.796 218.687C393.151 218.992 393.248 219.04 393.037 218.798C392.534 218.208 391.456 217.366 390.652 216.939C389.091 216.092 387.047 215.729 385.187 215.968C384.908 215.999 384.675 216.02 384.665 216.006C384.655 215.991 384.874 215.845 385.153 215.671C386.699 214.721 388.419 214.401 390.208 214.731C390.587 214.798 391.097 214.932 391.341 215.025Z" fill="#4D660C"/>
<path d="M384.397 216.36C384.384 216.438 384.23 216.64 384.055 216.819C383.875 216.992 383.62 217.275 383.483 217.454L383.228 217.768L383.506 218.127C384.49 219.391 386.313 220.606 388.308 221.319C389.049 221.581 390.759 222.008 390.82 221.945C390.836 221.923 390.918 221.708 390.999 221.463C391.104 221.147 391.176 221.024 391.236 221.035C391.344 221.054 391.261 221.311 390.817 222.377C389.912 224.531 388.496 226.489 386.949 227.719C386.711 227.905 386.524 228.083 386.545 228.105C386.595 228.176 387.099 228.339 387.496 228.41L387.861 228.481L388.39 228.092C389.613 227.214 390.541 226.147 391.306 224.748C391.806 223.822 392.287 222.552 392.429 221.754C392.471 221.52 392.509 221.446 392.554 221.473C392.757 221.583 391.988 223.984 391.482 224.804C391.43 224.888 391.52 224.972 391.999 225.311C392.837 225.899 392.778 225.882 392.952 225.566C393.248 225.019 393.56 224.177 393.788 223.314C393.989 222.538 394.024 222.446 394.074 222.578C394.176 222.881 393.519 224.931 393.051 225.745L392.931 225.965L393.335 226.235C393.557 226.386 393.773 226.492 393.813 226.481C393.953 226.425 394.471 225.78 394.779 225.272C395.093 224.764 395.107 224.755 395.107 224.959C395.107 225.206 394.772 225.76 394.276 226.315L393.972 226.664L394.425 226.979C394.68 227.148 395.071 227.422 395.299 227.574C395.68 227.833 396.832 228.781 396.796 228.811C396.761 228.836 395.628 228.195 395.291 227.962C395.092 227.828 394.666 227.536 394.335 227.31L393.743 226.908L393.142 227.352C391.534 228.545 389.657 228.986 387.667 228.632C386.452 228.416 385.537 228.019 384.577 227.279C382.969 226.04 382.006 224.241 381.831 222.162C381.787 221.64 381.802 221.42 381.943 220.591C382.037 220.063 382.151 219.495 382.211 219.333L382.308 219.034L381.801 218.678C381.519 218.486 381.259 218.31 381.231 218.292C381.198 218.268 381.126 218.565 381.038 219.131C380.877 220.173 380.755 220.3 380.871 219.299C381.064 217.662 380.862 216.741 380.352 216.96C380.104 217.065 380.125 217.155 380.463 217.382C380.685 217.527 380.921 217.668 380.926 217.78C380.936 217.862 380.964 218.158 380.943 218.173C380.922 218.188 380.414 217.726 380.038 217.468L379.352 216.999L379.114 217.087C378.823 217.184 378.78 217.182 378.533 217.002C378.301 216.844 378.205 216.511 378.306 216.257C378.413 216.009 378.74 215.845 379.034 215.897C379.341 215.951 379.577 216.259 379.528 216.535C379.5 216.691 379.529 216.74 379.695 216.85C379.896 216.978 379.903 216.973 380.138 216.836C380.618 216.543 381.009 216.823 381.12 217.524L381.174 217.88L381.784 218.285C382.117 218.505 382.405 218.699 382.427 218.715C382.444 218.724 382.519 218.614 382.583 218.464C382.875 217.835 383.932 216.501 384.319 216.278C384.409 216.226 384.419 216.24 384.397 216.36ZM382.873 218.367C382.764 218.564 382.585 218.941 382.481 219.214L382.286 219.711L382.41 219.851C382.76 220.253 384.159 221.245 385.054 221.719C386.572 222.527 387.57 222.878 389.078 223.152L390.19 223.355L390.396 222.928C390.512 222.695 390.643 222.415 390.686 222.311L390.762 222.126L390.257 222.037C388.412 221.709 386.113 220.688 384.751 219.592C384.264 219.196 383.531 218.472 383.354 218.211C383.275 218.098 383.181 218.001 383.142 218.007C383.11 218.013 382.988 218.177 382.873 218.367ZM382.093 220.692C382.047 221.086 382.01 221.469 382.021 221.546C382.037 221.734 383.725 222.981 384.744 223.564C386.062 224.312 387.803 224.98 388.768 225.102L389.126 225.147L389.577 224.423C389.829 224.022 390.041 223.669 390.047 223.633C390.056 223.585 389.736 223.498 389.055 223.352C386.783 222.874 384.999 222.062 383.162 220.678C382.681 220.314 382.264 220.011 382.235 219.999C382.206 219.988 382.148 220.281 382.093 220.692ZM382.056 222.357C382.076 222.558 382.139 222.934 382.198 223.199C382.303 223.651 382.322 223.685 382.709 224.051C383.602 224.89 385.19 225.933 386.212 226.356C386.837 226.609 387.611 226.821 387.716 226.759C387.916 226.646 388.909 225.492 388.935 225.348C388.941 225.312 388.896 225.286 388.827 225.292C388.62 225.305 387.227 224.909 386.532 224.631C385.282 224.13 383.541 223.109 382.507 222.263C382.269 222.066 382.065 221.925 382.048 221.953C382.031 221.975 382.035 222.161 382.056 222.357ZM391.136 225.386C390.831 226.056 389.542 227.474 388.629 228.141C388.044 228.569 388.018 228.54 388.954 228.545C389.45 228.547 390.364 228.43 390.6 228.324C391.008 228.155 392.565 226.451 392.557 226.183C392.556 226.084 391.332 225.192 391.246 225.22C391.22 225.228 391.17 225.3 391.136 225.386ZM382.657 224.555C383.299 225.963 384.613 227.285 385.98 227.899L386.279 228.033L386.624 227.766C386.811 227.62 387.096 227.38 387.258 227.235L387.542 226.97L387.081 226.839C385.805 226.482 384.169 225.535 382.812 224.378C382.662 224.247 382.53 224.155 382.515 224.165C382.501 224.175 382.563 224.353 382.657 224.555ZM392.375 226.788C392.161 227.085 391.792 227.514 391.566 227.74C391.114 228.186 391.135 228.208 391.745 227.952C392.135 227.786 393.498 226.889 393.516 226.787C393.524 226.745 392.909 226.295 392.803 226.264C392.785 226.261 392.594 226.499 392.375 226.788Z" fill="#4D660C"/>
<path d="M211.485 130.328C211.485 130.328 210.701 126.217 214.167 125.732C217.634 125.247 225.749 128.895 225.749 128.895C225.749 128.895 225.15 133.857 222.984 134.649C220.82 135.44 211.485 130.328 211.485 130.328Z" fill="#F17353"/>
</svg>
