<svg width="580" height="601" viewBox="0 0 580 601" fill="none" xmlns="http://www.w3.org/2000/svg">
<ellipse cx="290" cy="562" rx="290" ry="39" fill="#BABABA"/>
<path d="M251.023 406.714C242.841 398.535 234.029 388.775 234.776 377.097C235.263 369.467 239.81 362.855 243.707 356.331C248.958 347.534 253.344 337.904 254.212 327.636C255.079 317.367 251.947 306.338 244.264 299.673C249.239 297.226 254.158 301.256 257.152 306.002C267.124 321.801 266.091 331.606 259.388 349.302C257.95 353.101 256.222 356.803 255.188 360.738C254.153 364.672 254.101 369.156 256.341 372.525C262.6 355.873 275.433 340.875 273.987 323.094C272.79 308.367 261.561 294.961 264.09 280.411C265.395 272.912 270.19 266.635 273.63 259.881C277.071 253.127 279.067 244.482 274.873 238.189C278.782 242.319 283.789 247.773 283.771 253.522C283.753 259.286 280.326 264.357 278.029 269.621C273.855 279.185 273.34 290.363 276.619 300.285C279.489 308.968 285.202 317.2 284.321 326.323C287.639 318.643 289.642 308.881 288.569 300.556C287.879 295.2 286.263 289.869 286.868 284.502C287.646 277.605 291.937 271.755 295.066 265.592C300.888 254.127 302.84 240.652 300.518 227.952C308.723 236.611 308.535 250.069 305.787 261.797C303.038 273.525 297.871 284.748 297.048 296.779C296.415 306.037 298.4 315.282 298.372 324.562C298.333 336.856 294.775 348.818 291.249 360.572C296.014 351.964 303.827 349.86 308.455 342.246C313.253 334.352 310.139 317.417 311.492 308.226C312.764 299.588 316.505 294.199 324.983 292.731C319.113 299.443 321.125 311.074 322.358 319.991C323.591 328.909 325.454 338.372 321.938 346.628C319.021 353.479 312.89 358.241 308.452 364.175C303.645 370.603 300.82 378.562 300.476 386.648C304.269 381.074 311.846 381.062 316.505 379.566C322.142 377.755 324.613 370.516 325.074 364.926C331.098 375.041 328.527 384.711 319.748 387.107C308.692 390.123 302.46 402.65 303.336 408.228C285.415 410.438 263.937 419.62 251.023 406.714Z" fill="#0C3729"/>
<path d="M322.136 403.521H274.476H226.816C226.816 403.521 225.996 467.9 242.213 489.418H274.476H306.741C322.955 467.9 322.136 403.521 322.136 403.521Z" fill="#CDBBA7"/>
<path d="M226.809 424.201V567.62" stroke="black" stroke-miterlimit="10"/>
<path d="M286.381 424.201V567.62" stroke="black" stroke-miterlimit="10"/>
<path d="M322.142 424.201V567.62" stroke="black" stroke-miterlimit="10"/>
<path d="M322.141 489.418H226.809" stroke="black" stroke-miterlimit="10"/>
<path d="M226.952 413.921H322.011" stroke="black" stroke-miterlimit="10"/>
<path d="M367.407 169.233C367.407 169.233 372.597 128.706 374.871 123.068C377.146 117.43 381.568 109.285 382.748 107.927C383.927 106.57 393.304 109.924 393.304 109.924L396.899 116.984L386.984 114.044C386.984 114.044 381.766 123.161 380.587 125.374C379.408 127.586 374.898 169.591 374.898 169.591L367.407 169.233Z" fill="#8B3130"/>
<path d="M341.797 169.233C341.797 169.233 346.987 128.706 349.261 123.068C351.536 117.43 355.958 109.285 357.137 107.927C358.316 106.57 367.693 109.924 367.693 109.924L371.288 116.984L361.373 114.044C361.373 114.044 356.155 123.161 354.976 125.374C353.797 127.586 349.287 169.591 349.287 169.591L341.797 169.233Z" fill="#8B3130"/>
<path d="M481.827 530.617C481.827 530.617 491.919 524.181 492.704 521.769C493.49 519.356 489.485 471.493 489.485 471.493H532.233L536.065 535.873C536.065 535.873 502.397 557.966 481.827 530.617Z" fill="#9F5B5D"/>
<path d="M448.021 567.619C448.021 567.619 445.026 549.842 448.021 545.9C453.524 538.661 481.827 530.617 481.827 530.617L499.516 537.453C499.516 537.453 509.356 528.637 511.702 525.79C513.911 523.109 530.57 526.996 535.681 529.41C538.577 530.778 541.946 567.619 541.946 567.619H448.021Z" fill="white"/>
<path d="M457.575 539.494L471.478 556.76" stroke="#332737" stroke-miterlimit="10" stroke-linecap="round" stroke-linejoin="round"/>
<path d="M446.689 556.76H540.825" stroke="#332737" stroke-miterlimit="10" stroke-linecap="round" stroke-linejoin="round"/>
<path d="M499.516 537.455C499.516 537.455 480.912 545.9 489.168 556.76" stroke="#332737" stroke-miterlimit="10" stroke-linecap="round" stroke-linejoin="round"/>
<path d="M478.209 530.216L485.444 537.455" stroke="#332737" stroke-miterlimit="10" stroke-linecap="round" stroke-linejoin="round"/>
<path d="M471.479 532.255L478.712 539.494" stroke="#332737" stroke-miterlimit="10" stroke-linecap="round" stroke-linejoin="round"/>
<path d="M376.533 530.617C376.533 530.617 386.625 524.181 387.411 521.769C388.196 519.356 400.776 471.493 400.776 471.493L438.513 478.733L428.686 546.251C428.686 546.251 397.103 557.966 376.533 530.617Z" fill="#9F5B5D"/>
<path d="M396.431 255.992L376.957 506.082L441.533 517.389L466.538 334.344L480.855 517.389L545.043 510.909L513.595 255.512L396.431 255.992Z" fill="#88A51D"/>
<path d="M371.337 49.2417C371.337 49.2417 397.239 52.8606 394.094 65.3001C394.094 65.3001 370.06 67.1774 371.337 49.2417Z" fill="#332737"/>
<path d="M382.152 41.4243C382.152 41.4243 388.178 24.8444 393.036 23.8882C396.088 23.2874 398.381 23.7235 398.079 25.0671C398.079 25.0671 402.224 25.0747 403.026 25.9409C403.828 26.8071 402.792 29.9593 402.792 29.9593C402.792 29.9593 406.095 29.7214 407.399 30.8667C408.85 32.1401 410.47 35.0772 408.832 35.7879C408.832 35.7879 412.861 37.7384 413.862 41.4228C414.864 45.1073 412.571 44.9242 411.941 44.7778C411.31 44.6299 409.479 44.2715 406.137 41.4228C406.137 41.4228 403.102 50.335 395.586 50.335L382.152 41.4243Z" fill="#9F5B5D"/>
<path d="M382.152 41.4246L363.973 68.1565L378.848 81.0612L395.586 50.3367L382.152 41.4246Z" fill="#9F5B5D"/>
<path d="M396.78 238.803C396.78 238.803 395.644 253.58 396.431 255.992C397.217 258.405 511.237 256.316 513.595 255.512C515.953 254.707 514.381 237.828 514.381 237.828L396.78 238.803Z" fill="white"/>
<path d="M484.276 45.034L481.948 102.76L451.934 101.827V45.034H484.276Z" fill="#9F5B5D"/>
<path d="M451.977 66.8786L451.934 84.0731C451.934 84.0731 472.321 84.6861 474.383 65.3002L451.977 66.8786Z" fill="#332737"/>
<path d="M434.202 44.3191C434.202 45.96 434.294 47.6116 434.48 49.2433C434.926 53.1992 435.908 57.0514 437.437 60.4476C440.627 67.5252 445.877 75.225 456.949 75.225C478.178 75.225 483.112 68.6735 483.112 44.3206C483.112 30.385 472.161 19.0862 458.652 19.0862C445.152 19.0831 434.202 26.9766 434.202 44.3191Z" fill="#9F5B5D"/>
<path d="M448.927 43.2362C448.793 44.0796 449.352 44.8756 450.176 45.0129C451 45.1501 451.778 44.5782 451.913 43.7349C452.047 42.8916 451.488 42.0955 450.663 41.9583C449.839 41.8195 449.061 42.3929 448.927 43.2362Z" fill="#332737"/>
<path d="M435.904 41.0083C435.77 41.8516 436.329 42.6477 437.153 42.785C437.977 42.9222 438.755 42.3503 438.889 41.507C439.023 40.6637 438.465 39.8676 437.64 39.7288C436.816 39.5916 436.038 40.1635 435.904 41.0083Z" fill="#332737"/>
<path d="M458.657 59.8436C461.949 59.8436 464.618 57.1132 464.618 53.745C464.618 50.3769 461.949 47.6465 458.657 47.6465C455.366 47.6465 452.697 50.3769 452.697 53.745C452.697 57.1132 455.366 59.8436 458.657 59.8436Z" fill="#944446"/>
<path d="M434.48 49.2417C434.926 53.1976 435.908 57.0498 437.437 60.446C439.078 59.3647 440.163 57.4768 440.163 55.3326C440.163 52.0599 437.641 49.3851 434.48 49.2417Z" fill="#944446"/>
<path d="M445.877 63.5446C444.541 64.0692 443.145 64.2034 441.779 63.9395" stroke="#332737" stroke-miterlimit="10" stroke-linecap="round" stroke-linejoin="round"/>
<path d="M442.905 54.8446C442.905 54.8446 437.948 54.2804 438.225 49.9493C438.373 47.6481 442.905 49.8365 442.905 49.8365L443.828 43.4863" stroke="#332737" stroke-miterlimit="10" stroke-linecap="round" stroke-linejoin="round"/>
<path d="M394.094 65.3L369.864 112.888C369.864 112.888 415.425 99.2391 425.585 97.3466C431.266 96.2882 507.528 93.7415 515.391 100.665C518.667 103.55 563.911 177.887 564.698 183.22C565.484 188.552 514.382 237.829 514.382 237.829L493.941 205.976L527.747 183.22L503.374 143.649L514.382 237.829L396.781 238.804L407.985 145.31C407.985 145.31 334.298 154.342 328.268 147.722C309.58 127.209 371.34 49.2431 371.34 49.2431C371.34 49.2431 373.948 61.3075 394.094 65.3Z" fill="#FFCC00"/>
<path d="M364.678 58.0394C364.678 58.0394 369.865 72.6673 389.043 75.2217" stroke="#332737" stroke-miterlimit="10" stroke-linecap="round" stroke-linejoin="round"/>
<path d="M444.912 96.6618C444.912 96.6618 447.157 90.2095 448.71 89.0383C451.455 86.9688 486.178 87.9936 487.652 88.2956C489.126 88.5975 489.445 96.0808 489.445 96.0808C489.445 96.0808 456.42 101.71 444.912 96.6618Z" fill="white"/>
<path d="M509.439 195.542L521.342 231.039L514.382 237.828L509.439 195.542Z" fill="#332737"/>
<path d="M407.983 145.308L419.186 144.476L406.314 159.233L407.983 145.308Z" fill="#332737"/>
<path d="M527.747 183.219L537.181 186.838" stroke="#332737" stroke-miterlimit="10" stroke-linecap="round" stroke-linejoin="round"/>
<path d="M503.375 143.648V122.985C503.375 122.985 514.129 138.755 509.44 153.495L503.375 143.648Z" fill="#332737"/>
<path d="M400.715 205.975L412.751 220.52" stroke="#332737" stroke-miterlimit="10" stroke-linecap="round" stroke-linejoin="round"/>
<path d="M369.864 112.888L361.467 119.165" stroke="#332737" stroke-miterlimit="10" stroke-linecap="round" stroke-linejoin="round"/>
<path d="M456.496 29.8084C456.496 29.8084 455.944 36.4864 457.402 38.8929C459.344 42.1 464.617 42.1 464.617 42.1C464.617 42.1 472.829 31.7192 477.54 39.7103C483.111 49.1623 470.561 52.0965 470.561 52.0965C464.617 60.449 471.773 66.4346 471.773 66.4346C483.539 71.5678 485.893 67.1605 489.586 59.8451C492.111 54.8445 500.395 19.0845 475.447 11.493C467.3 9.01332 443.743 4.45811 443.743 4.45811C443.743 4.45811 442.038 -0.774212 439.667 0.0980957C437.295 0.970403 434.893 6.20272 434.893 6.20272C434.893 6.20272 430.104 3.14965 429.174 5.33041C428.242 7.51118 430.186 13.3977 430.186 13.3977C430.186 13.3977 422.221 13.8583 422.647 16.2571C423.073 18.656 427.621 25.6909 427.621 25.6909C427.621 25.6909 424.106 32.2072 423.893 35.2588C423.68 38.3119 434.203 43.2849 434.203 43.2849C434.177 41.0554 435.095 36.3797 435.095 36.3797C435.095 36.3797 445.84 37.2215 456.496 29.8084Z" fill="#332737"/>
<path d="M468.095 41.4565C468.095 41.4565 472.95 38.716 475.018 42.71C477.086 46.704 471.077 49.1608 471.077 49.1608" stroke="#332737" stroke-miterlimit="10" stroke-linecap="round" stroke-linejoin="round"/>
<path d="M481.144 288.226C481.144 288.226 479.395 304.327 474.383 313.805C469.37 323.283 466.537 334.346 466.537 334.346" stroke="#332737" stroke-miterlimit="10" stroke-linecap="round" stroke-linejoin="round"/>
<path d="M396.185 267.779H514.894" stroke="#332737" stroke-miterlimit="10" stroke-linecap="round" stroke-linejoin="round"/>
<path d="M389.023 508.196L406.733 370.73" stroke="#332737" stroke-miterlimit="10" stroke-linecap="round" stroke-linejoin="round"/>
<path d="M487.115 371.398L499.576 515.499" stroke="#332737" stroke-miterlimit="10" stroke-linecap="round" stroke-linejoin="round"/>
<path d="M342.727 567.619C342.727 567.619 339.732 549.842 342.727 545.9C348.23 538.661 376.533 530.617 376.533 530.617L394.222 537.453C394.222 537.453 404.062 528.637 406.408 525.79C408.617 523.109 425.277 526.996 430.387 529.41C433.283 530.778 436.652 567.619 436.652 567.619H342.727Z" fill="white"/>
<path d="M352.283 539.494L366.184 556.76" stroke="#332737" stroke-miterlimit="10" stroke-linecap="round" stroke-linejoin="round"/>
<path d="M341.396 556.76H435.531" stroke="#332737" stroke-miterlimit="10" stroke-linecap="round" stroke-linejoin="round"/>
<path d="M394.224 537.455C394.224 537.455 375.619 545.9 383.874 556.76" stroke="#332737" stroke-miterlimit="10" stroke-linecap="round" stroke-linejoin="round"/>
<path d="M372.917 530.216L380.15 537.455" stroke="#332737" stroke-miterlimit="10" stroke-linecap="round" stroke-linejoin="round"/>
<path d="M366.185 532.255L373.42 539.494" stroke="#332737" stroke-miterlimit="10" stroke-linecap="round" stroke-linejoin="round"/>
<path d="M416.304 257.119V272.002" stroke="#332737" stroke-miterlimit="10" stroke-linecap="round" stroke-linejoin="round"/>
<path d="M505.634 257.119V272.002" stroke="#332737" stroke-miterlimit="10" stroke-linecap="round" stroke-linejoin="round"/>
<path d="M473.438 413.921C476.419 415.256 479.859 415.489 482.987 414.571" stroke="#332737" stroke-miterlimit="10" stroke-linecap="round" stroke-linejoin="round"/>
<path d="M384.944 403.521C387.232 405.695 389.053 407.199 392.116 407.813" stroke="#332737" stroke-miterlimit="10" stroke-linecap="round" stroke-linejoin="round"/>
<path d="M395.586 50.3367L391.891 51.9441" stroke="#332737" stroke-miterlimit="10" stroke-linecap="round" stroke-linejoin="round"/>
<path d="M327.588 123.493C327.588 123.493 350.452 131.653 344.561 150.146" stroke="#332737" stroke-miterlimit="10" stroke-linecap="round" stroke-linejoin="round"/>
<path d="M554.28 165.286C554.28 165.286 539.374 181.227 556.254 195.042" stroke="#332737" stroke-miterlimit="10" stroke-linecap="round" stroke-linejoin="round"/>
<path d="M411.573 164.551H432.072C432.072 164.551 434.43 237.816 436.395 243.446C438.361 249.077 447.009 271.265 447.009 271.265H409.272C409.272 271.265 395.006 212.752 411.573 164.551Z" fill="#8B3130"/>
<path d="M328.113 271.265C328.113 271.265 325.165 256.787 328.113 240.497C331.061 224.208 336.388 175.066 334.02 168.264L411.573 164.55C411.573 164.55 410.874 235.084 410.212 241.703C409.288 250.954 415.773 271.265 415.773 271.265H328.113Z" fill="#8B3130"/>
<path d="M427.497 165.135C427.497 165.135 419.603 117.236 417.329 111.598C415.054 105.96 410.632 97.8149 409.453 96.4576C408.274 95.1004 378.283 104.324 378.283 104.324L375.177 111.484L405.219 102.576C405.219 102.576 410.437 111.693 411.616 113.905C412.795 116.118 420.009 165.495 420.009 165.495L427.497 165.135Z" fill="#8B3130"/>
<path d="M399.356 165.135C399.356 165.135 394.166 124.608 391.891 118.97C389.617 113.332 385.194 105.187 384.014 103.83C382.835 102.472 373.458 105.826 373.458 105.826L369.863 112.887L379.778 109.946C379.778 109.946 384.996 119.063 386.175 121.276C387.354 123.488 391.864 165.493 391.864 165.493L399.356 165.135Z" fill="#8B3130"/>
<path d="M447.008 271.265L427.496 253.601C427.496 253.601 415.242 270.529 415.773 271.265" stroke="white" stroke-miterlimit="10" stroke-linecap="round" stroke-linejoin="round"/>
<path d="M422.629 164.551C422.629 164.551 422.327 187.841 422.629 197.796C422.932 207.752 427.497 253.601 427.497 253.601" stroke="white" stroke-miterlimit="10" stroke-linecap="round" stroke-linejoin="round"/>
<path d="M402.638 199.401L399.099 210.95L404.867 243.529L432.414 238.702L426.518 207.029L419.148 196.169L402.638 199.401Z" fill="white"/>
<path d="M410.027 201.81L404.533 164.888" stroke="#332737" stroke-miterlimit="10" stroke-linecap="round" stroke-linejoin="round"/>
<path fill-rule="evenodd" clip-rule="evenodd" d="M410.432 224.471C409.875 224.593 409.352 224.577 408.861 224.422C408.372 224.266 408.052 224.053 407.904 223.781C407.819 223.649 407.752 223.522 407.705 223.405C407.657 223.286 407.614 223.138 407.577 222.959C407.518 222.68 407.499 222.418 407.523 222.172C407.545 221.928 407.588 221.71 407.651 221.521C407.714 221.332 407.772 221.187 407.825 221.088C407.879 220.989 407.919 220.923 407.948 220.894L406.633 220.429L410.434 219.504L412.89 222.541L411.654 222.13C411.628 222.171 411.587 222.235 411.532 222.325C411.477 222.413 411.413 222.52 411.343 222.647C411.273 222.773 411.206 222.9 411.14 223.023C411.076 223.15 411.033 223.249 411.015 223.324C410.967 223.476 410.955 223.606 410.978 223.717C411.015 223.896 411.108 224.019 411.254 224.086C411.398 224.153 411.513 224.196 411.596 224.211L410.432 224.471ZM421.569 222.656C421.939 222.563 422.262 222.406 422.543 222.186C422.821 221.966 423.049 221.735 423.228 221.491C423.405 221.247 423.534 221.044 423.614 220.879C423.695 220.716 423.75 220.595 423.778 220.519C423.751 220.771 423.705 221.015 423.641 221.251C423.577 221.488 423.489 221.776 423.377 222.116C423.31 222.342 423.264 222.499 423.237 222.587C423.189 222.798 423.137 223.014 423.082 223.237C422.951 223.806 422.841 224.259 422.75 224.594C422.66 224.931 422.553 225.259 422.426 225.581C422.3 225.901 422.155 226.168 421.994 226.378C421.833 226.59 421.648 226.718 421.441 226.764C421.298 226.796 420.65 226.938 419.491 227.193L419.781 228.568L417.083 225.684L418.429 221.979L418.688 223.29C420.575 222.874 421.536 222.662 421.569 222.656ZM411.812 212.787C412.182 212.699 412.892 212.54 413.941 212.309C415.001 212.075 415.785 211.935 416.294 211.886C416.804 211.839 417.15 211.917 417.33 212.122C417.362 212.162 417.442 212.258 417.572 212.412C417.701 212.565 417.85 212.732 418.02 212.919C418.19 213.103 418.327 213.254 418.433 213.37C418.538 213.487 418.614 213.576 418.661 213.635L419.681 212.691L418.824 216.687L414.799 217.187L415.759 216.292L413.871 214.164C413.583 213.829 413.278 213.573 412.954 213.393C412.631 213.213 412.324 213.098 412.033 213.051C411.742 213.005 411.505 212.987 411.319 212.999C411.133 213.012 410.996 213.027 410.909 213.045C411.14 212.961 411.441 212.874 411.812 212.787ZM408.872 224.792C408.416 224.687 408.085 224.504 407.882 224.245C407.942 224.313 408.037 224.423 408.167 224.576C408.296 224.728 408.471 224.933 408.69 225.187C408.909 225.442 409.14 225.712 409.383 225.997C409.626 226.281 409.802 226.493 409.911 226.633C409.972 226.712 410.013 226.769 410.031 226.801C410.224 227.061 410.401 227.295 410.563 227.499C410.727 227.702 410.908 227.911 411.107 228.124C411.307 228.338 411.502 228.506 411.693 228.628C411.884 228.748 412.051 228.794 412.193 228.763L416.469 227.821L415.585 223.623C413.063 224.179 411.327 224.56 410.376 224.771C409.829 224.888 409.328 224.896 408.872 224.792ZM421.012 222.087C420.755 221.815 420.205 221.244 419.365 220.371C418.524 219.499 418.029 218.985 417.883 218.829L420.827 216.04C420.872 216.089 420.979 216.217 421.149 216.426C421.319 216.635 421.526 216.887 421.772 217.184C422.28 217.808 422.657 218.271 422.905 218.575C423.151 218.877 423.326 219.087 423.432 219.203C423.508 219.293 423.562 219.415 423.595 219.571C423.639 219.783 423.641 220.034 423.599 220.324C423.581 220.399 423.529 220.521 423.444 220.692C423.361 220.861 423.233 221.068 423.061 221.311C422.89 221.553 422.662 221.788 422.379 222.014C422.094 222.239 421.773 222.398 421.416 222.49C421.404 222.491 421.27 222.357 421.012 222.087ZM412.215 219.174L408.502 217.986C408.523 217.924 408.623 217.637 408.802 217.129C408.837 217.027 408.927 216.766 409.074 216.347C409.221 215.927 409.35 215.557 409.465 215.232C409.58 214.909 409.672 214.639 409.741 214.424C409.811 214.209 409.86 214.062 409.888 213.986C409.936 213.835 410.027 213.71 410.161 213.609C410.294 213.509 410.496 213.4 410.769 213.281C410.878 213.257 411.028 213.239 411.221 213.227C411.412 213.214 411.653 213.231 411.944 213.278C412.233 213.326 412.537 213.436 412.853 213.606C413.169 213.779 413.464 214.026 413.738 214.354L413.805 214.427C413.878 214.505 413.945 214.578 414.005 214.646L412.215 219.174Z" fill="white"/>
<path d="M173.307 543.824C173.307 543.824 168.691 523.14 167.699 518.075C166.707 513.009 180.366 285.483 180.366 285.483L125.748 296.262C125.748 296.262 141.837 504.491 141.898 510.267C142.006 520.456 141.68 528.628 141.68 528.628C141.68 528.628 145.457 549.523 152.911 556.487C160.363 563.451 171.643 559.019 173.307 543.824Z" fill="#F17353"/>
<path d="M128.039 325.985L179.176 305.42L180.366 285.483L125.748 296.261L128.039 325.985Z" fill="#284811"/>
<path d="M173.306 543.823C173.306 543.823 173.861 553.799 168.355 555.697C162.849 557.597 149.013 550.788 147.154 546.039C145.296 541.29 141.68 528.628 141.68 528.628C141.68 528.628 136.731 533.377 136.052 536.226C135.372 539.075 135.372 539.074 135.372 539.074L133.934 550.155L142.763 553.638C142.763 553.638 143.223 564.402 146.174 567.884C149.125 571.367 153.204 578.868 170.946 578.858C177.141 578.854 180.778 569.627 179.559 562.346C178.732 557.416 173.306 543.823 173.306 543.823Z" fill="white"/>
<path d="M53.8845 543.824C53.8845 543.824 61.1848 523.14 62.8348 518.075C64.4848 513.011 80.3674 285.483 80.3674 285.483L133.585 296.262C133.585 296.262 90.4609 504.491 89.6486 510.267C88.2178 520.454 87.483 528.628 87.483 528.628C87.483 528.628 80.9934 549.523 72.6347 556.487C64.2791 563.451 53.5759 559.019 53.8845 543.824Z" fill="#F17353"/>
<path d="M128.962 320.109L78.1064 317.646L80.369 285.483L133.587 296.261L128.962 320.109Z" fill="#284811"/>
<path d="M75.9867 230.595L69.436 305.758L128.962 320.109L134.338 311.668L182.81 304.914L176.615 230.595H75.9867Z" fill="#284811"/>
<path d="M148.53 299.465L181.899 293.978" stroke="#0C3729" stroke-miterlimit="10" stroke-linecap="round" stroke-linejoin="round"/>
<path d="M70.5007 294.783L129.655 307.829" stroke="#0C3729" stroke-miterlimit="10" stroke-linecap="round" stroke-linejoin="round"/>
<path d="M74.5518 247.063L177.422 240.268" stroke="#0C3729" stroke-miterlimit="10" stroke-linecap="round" stroke-linejoin="round"/>
<path d="M53.8845 543.823C53.8845 543.823 52.0348 553.799 57.2947 555.697C62.5546 557.597 77.2747 550.788 79.7504 546.039C82.2261 541.29 87.486 528.628 87.486 528.628C87.486 528.628 91.8173 533.377 92.1274 536.226C92.4374 539.075 92.4374 539.074 92.4374 539.074V550.155L83.1546 553.637C83.1546 553.637 81.2975 564.4 77.8947 567.884C74.4919 571.365 69.4377 578.868 51.698 578.858C45.502 578.854 43.0636 569.627 45.2293 562.346C46.6944 557.416 53.8845 543.823 53.8845 543.823Z" fill="white"/>
<path d="M126.124 301.965C126.124 301.965 131.227 312.101 134.338 311.666C137.448 311.233 149.919 300.692 152.583 292.25" stroke="#0C3729" stroke-miterlimit="10" stroke-linecap="round" stroke-linejoin="round"/>
<path d="M49.4547 350.116C49.4547 350.116 43.2289 300.186 88.0731 298.464C127.35 296.956 134.36 333.414 129.72 351.666L125.009 350.976C125.009 350.976 130.975 302.425 88.0731 303.112C52.4476 303.684 53.3255 348.91 53.3255 348.91L49.4547 350.116Z" fill="#4D3C54"/>
<path d="M38.8528 349.944C38.8528 349.944 54.5029 345.811 58.5406 345.811C62.5798 345.811 114.575 345.294 117.1 345.811C119.624 346.328 140.322 352.158 140.322 352.158C140.322 352.158 135.274 403.661 133.759 407.794C132.245 411.926 121.139 417.092 118.111 419.157C115.082 421.223 62.5798 416.573 58.5421 417.09C54.5029 417.607 40.8724 357.175 38.8528 349.944Z" fill="#8B3130"/>
<path d="M55.0083 341.119C55.0083 341.119 60.5618 379.688 61.0656 382.636C61.5709 385.583 113.566 385.584 116.597 385.584C119.625 385.584 121.14 338.581 121.14 338.581C121.14 338.581 59.5513 336.986 55.0083 341.119Z" fill="#A43B3A"/>
<path d="M78.9023 382.635L79.9129 390.061H96.2352V381.968L78.9023 382.635Z" fill="#FEC779"/>
<path d="M195.6 319.053C195.6 319.053 225.02 325.068 226.953 303.858C226.953 303.858 212.128 295.627 195.6 319.053Z" fill="#0C3729"/>
<path d="M25.2939 304.913C25.2939 304.913 30.7596 326.23 56.6478 320.108C56.6478 320.108 48.4993 300.904 25.2939 304.913Z" fill="#0C3729"/>
<path d="M78.1884 131.007L75.1135 240.62L130.236 236.533C130.236 236.533 149.559 250.04 155.497 250.04C161.435 250.04 182.811 233.448 182.811 233.448L170.512 131.007H78.1884Z" fill="white"/>
<path d="M155.497 60.4445C155.497 60.4445 165.148 52.9186 162.259 45.321C157.507 32.8189 145.174 22.949 132.943 20.4175C120.71 17.8844 112.52 20.0103 108.302 25.7093C108.302 25.7093 101.268 22.5281 94.6014 25.7093C92.1556 26.8759 79.862 50.8095 80.1616 70.6057C80.4508 89.6455 84.8149 102.247 104.169 118.767L121.016 115.836L155.497 60.4445Z" fill="#332737"/>
<path d="M148.916 74.5538C139.684 73.6632 136.225 91.541 143.555 93.5921C154.692 96.7092 158.433 75.4719 148.916 74.5538ZM145.515 89.5722C140.716 88.1646 142.98 75.8989 149.025 76.5104C155.257 77.1403 152.808 91.7102 145.515 89.5722Z" fill="white"/>
<path d="M110.387 58.398L112.717 116.124L105.318 128.263L130.977 185.063L150.76 134.173L139.596 115.191V58.398H110.387Z" fill="#F17353"/>
<path d="M139.596 94.7437V80.8981H121.017C121.017 80.8981 121.496 94.7437 139.596 94.7437Z" fill="#332737"/>
<path d="M155.497 60.4446C155.497 61.9589 155.412 63.4809 155.24 64.986C154.83 68.6354 153.923 72.1872 152.513 75.3195C149.571 81.8466 144.422 86.5543 137 86.5543C124.548 86.5543 110.387 82.9049 110.387 60.4446C110.387 47.5902 120.487 37.1698 132.947 37.1698C145.396 37.1698 155.497 44.4487 155.497 60.4446Z" fill="#F17353"/>
<path d="M108.302 75.4751C112.382 75.4751 115.689 72.0913 115.689 67.9172C115.689 63.743 112.382 60.3592 108.302 60.3592C104.222 60.3592 100.915 63.743 100.915 67.9172C100.915 72.0913 104.222 75.4751 108.302 75.4751Z" fill="#F17353"/>
<path d="M135.733 60.359C135.733 61.1474 135.109 61.7864 134.338 61.7864C133.568 61.7864 132.943 61.1474 132.943 60.359C132.943 59.5706 133.568 58.9316 134.338 58.9316C135.109 58.9316 135.733 59.5706 135.733 60.359Z" fill="#332737"/>
<path d="M149.365 61.7864C150.135 61.7864 150.76 61.1473 150.76 60.359C150.76 59.5706 150.135 58.9316 149.365 58.9316C148.594 58.9316 147.97 59.5706 147.97 60.359C147.97 61.1473 148.594 61.7864 149.365 61.7864Z" fill="#332737"/>
<path d="M142.766 65.2287C142.766 65.2287 146.098 67.8837 145.812 69.6421C145.558 71.1991 141.751 70.4015 141.751 70.4015" stroke="#332737" stroke-miterlimit="10" stroke-linecap="round" stroke-linejoin="round"/>
<path d="M135.733 70.6043C135.733 73.7107 133.272 76.2285 130.236 76.2285C127.2 76.2285 124.739 73.7107 124.739 70.6043C124.739 67.4978 127.2 64.98 130.236 64.98C133.272 64.98 135.733 67.4994 135.733 70.6043Z" fill="#E05E61"/>
<path d="M155.239 64.9859C154.829 68.6353 153.921 72.187 152.511 75.3194C150.997 74.322 149.997 72.5805 149.997 70.6041C149.997 67.5845 152.323 65.1171 155.239 64.9859Z" fill="#E05E61"/>
<path d="M134.338 77.9351C135.57 78.42 136.857 78.5435 138.116 78.2995" stroke="#332737" stroke-miterlimit="10" stroke-linecap="round" stroke-linejoin="round"/>
<path d="M108.95 64.05C108.95 64.05 103.847 64.3962 104.185 68.5503C104.524 72.7044 110.384 71.55 110.384 71.55" stroke="#332737" stroke-miterlimit="10" stroke-linecap="round" stroke-linejoin="round"/>
<path d="M107.262 72.5882C98.0298 71.6961 94.5704 89.5753 101.901 91.6265C113.038 94.7436 116.779 73.5078 107.262 72.5882ZM103.861 87.6065C99.0612 86.199 101.325 73.9333 107.371 74.5448C113.601 75.1746 111.152 89.7446 103.861 87.6065Z" fill="white"/>
<path d="M155.239 49.9632C155.239 49.9632 145.035 41.8379 126.47 42.3655C126.47 42.3655 128.643 58.578 110.384 60.4431C110.384 60.4431 102.962 49.646 110.384 35.7165C117.807 21.7886 152.441 18.9444 155.239 49.9632Z" fill="#332737"/>
<path d="M139.531 115.069C139.531 115.069 188.174 122.354 193.124 123.199C198.074 124.042 217.051 211.84 222.002 227.036C226.952 242.231 226.952 303.858 226.952 303.858C226.952 303.858 206.325 305.546 195.598 319.053L188.997 231.257L167.545 238.854C168.077 241.121 148.726 186.598 141.318 159.418C136.689 142.428 139.531 115.069 139.531 115.069Z" fill="#4D660C"/>
<path d="M121.478 230.595C121.478 230.595 123.624 229.146 124.739 229.146C125.854 229.146 128.433 233.157 130.236 236.533" stroke="#0C3729" stroke-miterlimit="10" stroke-linecap="round" stroke-linejoin="round"/>
<path d="M104.171 175.266L104.625 277.681L87.6785 277.71L74.5518 184.325C74.5518 184.325 89.9142 171.405 104.171 175.266Z" fill="#F17353"/>
<path d="M112.717 116.125C112.717 116.125 64.0731 123.41 59.1232 124.254C54.1733 125.099 35.195 212.896 30.2451 228.091C25.2952 243.286 25.2952 304.914 25.2952 304.914C25.2952 304.914 45.922 306.602 56.649 320.109L63.2489 232.311L84.7014 239.908C84.1693 242.174 103.52 187.652 110.928 160.472C115.557 143.483 112.717 116.125 112.717 116.125Z" fill="#4D660C"/>
<path d="M87.6783 277.71C87.6783 277.71 82.1128 292.607 81.0173 294.89C79.9233 297.173 82.5465 309.643 83.815 310.193C85.0848 310.744 87.1015 308.401 87.1015 308.401C87.1015 308.401 89.9811 310.022 91.2048 309.83C92.4285 309.638 93.1961 307.059 93.1961 307.059C93.1961 307.059 94.4362 309.626 95.4735 309.559C96.5124 309.492 97.7227 308.465 97.7227 308.465C97.7227 308.465 99.2236 310.265 100.832 310.042C102.44 309.82 103.573 300.029 103.573 300.029L106.515 300.787C106.515 300.787 106.555 284.55 106.099 282.801C105.643 281.053 104.625 277.681 104.625 277.681L87.6783 277.71Z" fill="#F17353"/>
<path d="M112.717 116.125C112.717 116.125 90.8888 133.223 86.5575 136.389C82.2262 139.555 92.4807 218.116 92.4807 218.116" stroke="#0C3729" stroke-miterlimit="10" stroke-linecap="round" stroke-linejoin="round"/>
<path d="M86.5574 136.389L104.17 148.102" stroke="#0C3729" stroke-miterlimit="10" stroke-linecap="round" stroke-linejoin="round"/>
<path d="M139.531 115.069C139.531 115.069 166.385 141.138 169.169 144.304C171.953 147.47 160.517 219.235 160.517 219.235" stroke="#0C3729" stroke-miterlimit="10" stroke-linecap="round" stroke-linejoin="round"/>
<path d="M169.169 144.304L158.959 150.951" stroke="#0C3729" stroke-miterlimit="10" stroke-linecap="round" stroke-linejoin="round"/>
<path d="M185.362 142.246C185.362 142.246 183.56 150.425 182.81 155.067C182.062 159.711 188.998 231.257 188.998 231.257" stroke="#0C3729" stroke-miterlimit="10" stroke-linecap="round" stroke-linejoin="round"/>
<path d="M193.124 123.199C193.124 123.199 190.367 125.942 188.998 128.263" stroke="#0C3729" stroke-miterlimit="10" stroke-linecap="round" stroke-linejoin="round"/>
<path d="M59.1235 124.254C59.1235 124.254 62.4354 127.643 63.7709 130.322C63.8886 130.557 63.99 130.787 64.0734 131.008" stroke="#0C3729" stroke-miterlimit="10" stroke-linecap="round" stroke-linejoin="round"/>
<path d="M63.248 232.312C63.4537 231.467 70.8972 159.288 70.4843 155.067C70.0715 150.846 69.4365 145.992 68.1994 143.459" stroke="#0C3729" stroke-miterlimit="10" stroke-linecap="round" stroke-linejoin="round"/>
<path d="M25.3958 293.297C25.3958 293.297 47.671 295.58 57.8317 304.363" stroke="#0C3729" stroke-miterlimit="10" stroke-linecap="round" stroke-linejoin="round"/>
<path d="M194.315 301.965C194.315 301.965 212.15 289.078 226.809 289.503" stroke="#0C3729" stroke-miterlimit="10" stroke-linecap="round" stroke-linejoin="round"/>
<path d="M158.581 423.39C162.034 424.226 165.839 424.985 168.856 422.59" stroke="#332737" stroke-miterlimit="10" stroke-linecap="round" stroke-linejoin="round"/>
<path d="M85.8938 423.39C82.4404 424.226 78.6351 424.985 75.6184 422.59" stroke="#332737" stroke-miterlimit="10" stroke-linecap="round" stroke-linejoin="round"/>
<path d="M166.717 229.338L207.874 135.98L223.302 143.155L197.338 233.685C197.338 233.685 187.58 250.567 176.929 248.959C171.508 248.14 161.688 240.44 166.717 229.338Z" fill="#F17353"/>
<path d="M250.544 129.319C249.512 128.474 241.055 125.942 238.167 125.73C235.278 125.52 235.485 130.327 235.485 130.327C235.485 130.327 217.936 123.861 215.477 124.675C211.055 126.139 207.874 135.978 207.874 135.978L223.302 143.152C223.302 143.152 250.336 142.824 250.544 141.136C250.751 139.449 251.575 130.164 250.544 129.319Z" fill="#F17353"/>
<path d="M251.044 132.273C251.044 132.273 245.387 117.07 243.737 116.124C242.087 115.179 235.464 120.278 240.908 131.007L251.044 132.273Z" fill="#F17353"/>
<path d="M248.106 179.714H209.643C204.086 179.714 202.392 172.004 207.412 169.57L217.297 164.777L248.106 149.838L278.916 164.777L288.801 169.57C293.823 172.004 292.126 179.714 286.57 179.714H248.106Z" stroke="#332737" stroke-miterlimit="10" stroke-linecap="round" stroke-linejoin="round"/>
<path d="M239.569 130.925C239.569 125.486 244.426 121.209 249.944 122.385C253.171 123.072 255.781 125.743 256.453 129.044C257.414 133.764 254.65 138.011 250.612 139.279C249.096 139.754 248.106 141.251 248.106 142.873V149.836" stroke="#332737" stroke-miterlimit="10" stroke-linecap="round" stroke-linejoin="round"/>
<path d="M262.062 152.731C262.062 152.731 283.746 155.432 289.101 157.702C298.764 161.799 322.143 184.12 322.143 184.12L294.011 216.109L310.144 281.199L210.842 292.88L206.333 217.384L174.071 196.32C174.071 196.32 182.305 171.366 193.409 166C204.17 160.798 227.136 154.579 227.136 154.579C227.136 154.579 231.05 175.67 246.555 174.435C262.062 173.198 262.062 152.731 262.062 152.731Z" fill="#E9EFD3"/>
<path d="M294.009 216.109C294.009 216.109 285.627 185.989 286.436 171.53" stroke="#332737" stroke-miterlimit="10" stroke-linecap="round" stroke-linejoin="round"/>
<path d="M197.739 171.53C197.739 171.53 205.018 195.36 206.334 217.384" stroke="#332737" stroke-miterlimit="10" stroke-linecap="round" stroke-linejoin="round"/>
<path d="M260.307 203.88C266.886 206.307 272.005 211.618 274.038 218.111C274.731 220.298 275.193 223.564 275.126 225.596C275.061 227.727 274.133 232.043 273.371 233.775L272.795 235.127L272.514 233.721C271.548 228.871 268.476 225.555 262.917 223.369C261.264 222.702 259.304 222.314 250.842 220.949C246.784 220.287 246.329 220.187 244.984 219.555C240.427 217.39 238.601 214.373 238.612 209.009L238.629 208.364L240.58 208.14C244.366 207.673 245.558 207.727 249.812 208.502C253.095 209.085 254.036 209.331 255.633 209.988C259.178 211.423 262.58 213.443 264.929 215.511C266.057 216.478 266.364 216.63 265.694 215.863C264.098 213.987 260.675 211.316 258.12 209.958C253.163 207.27 246.672 206.117 240.766 206.876C239.881 206.974 239.141 207.04 239.11 206.995C239.078 206.95 239.772 206.483 240.658 205.933C245.569 202.914 251.029 201.898 256.711 202.947C257.914 203.161 259.532 203.585 260.307 203.88Z" fill="#8B3130"/>
<path d="M238.259 208.121C238.215 208.369 237.726 209.009 237.172 209.579C236.601 210.126 235.791 211.024 235.354 211.595L234.546 212.591L235.427 213.73C238.551 217.744 244.343 221.603 250.676 223.868C253.029 224.698 258.459 226.056 258.653 225.854C258.705 225.785 258.964 225.104 259.221 224.324C259.557 223.322 259.785 222.93 259.976 222.964C260.32 223.025 260.055 223.843 258.644 227.229C255.77 234.069 251.273 240.286 246.361 244.19C245.606 244.783 245.013 245.346 245.079 245.417C245.236 245.641 246.837 246.161 248.097 246.385L249.258 246.611L250.936 245.376C254.821 242.587 257.769 239.2 260.197 234.757C261.785 231.815 263.312 227.782 263.764 225.249C263.896 224.506 264.017 224.272 264.159 224.356C264.806 224.707 262.363 232.331 260.756 234.934C260.59 235.2 260.878 235.467 262.399 236.543C265.06 238.411 264.872 238.358 265.425 237.356C266.366 235.616 267.355 232.942 268.08 230.201C268.716 227.74 268.828 227.445 268.989 227.867C269.31 228.828 267.223 235.336 265.738 237.922L265.357 238.621L266.642 239.478C267.345 239.957 268.033 240.295 268.158 240.258C268.603 240.082 270.248 238.035 271.225 236.42C272.222 234.809 272.267 234.777 272.269 235.426C272.267 236.212 271.205 237.969 269.63 239.734L268.665 240.84L270.101 241.842C270.911 242.379 272.155 243.248 272.876 243.73C274.088 244.554 277.747 247.563 277.631 247.66C277.519 247.738 273.922 245.704 272.853 244.964C272.22 244.537 270.869 243.609 269.815 242.891L267.935 241.614L266.029 243.025C260.922 246.815 254.96 248.213 248.641 247.091C244.784 246.406 241.878 245.143 238.83 242.794C233.722 238.86 230.663 233.148 230.108 226.544C229.97 224.888 230.016 224.188 230.466 221.556C230.765 219.88 231.126 218.077 231.316 217.56L231.623 216.612L230.013 215.481C229.117 214.87 228.291 214.311 228.203 214.256C228.098 214.178 227.871 215.121 227.59 216.918C227.079 220.227 226.692 220.63 227.061 217.453C227.673 212.255 227.033 209.331 225.412 210.026C224.624 210.358 224.691 210.645 225.764 211.366C226.47 211.825 227.22 212.273 227.235 212.629C227.267 212.891 227.357 213.83 227.289 213.877C227.222 213.924 225.608 212.458 224.415 211.637L222.238 210.15L221.48 210.428C220.558 210.736 220.421 210.731 219.637 210.16C218.899 209.655 218.595 208.599 218.917 207.791C219.254 207.006 220.292 206.483 221.228 206.649C222.202 206.822 222.953 207.801 222.796 208.677C222.708 209.172 222.799 209.326 223.327 209.675C223.964 210.083 223.986 210.067 224.734 209.63C226.259 208.702 227.499 209.591 227.85 211.815L228.023 212.946L229.96 214.234C231.017 214.932 231.931 215.547 232.001 215.598C232.055 215.628 232.295 215.277 232.498 214.802C233.425 212.805 236.781 208.566 238.01 207.861C238.295 207.695 238.327 207.74 238.259 208.121ZM233.419 214.494C233.071 215.12 232.503 216.317 232.172 217.181L231.555 218.762L231.949 219.205C233.06 220.484 237.501 223.631 240.345 225.138C245.166 227.704 248.335 228.817 253.124 229.688L256.652 230.334L257.308 228.976C257.677 228.236 258.091 227.347 258.229 227.017L258.471 226.431L256.867 226.147C251.006 225.106 243.706 221.863 239.383 218.383C237.835 217.126 235.507 214.826 234.945 213.999C234.694 213.64 234.395 213.331 234.273 213.349C234.171 213.37 233.783 213.891 233.419 214.494ZM230.94 221.876C230.796 223.128 230.677 224.345 230.713 224.587C230.764 225.186 236.124 229.145 239.359 230.997C243.544 233.371 249.075 235.494 252.137 235.88L253.274 236.023L254.709 233.723C255.507 232.45 256.179 231.331 256.2 231.216C256.227 231.064 255.213 230.786 253.05 230.323C245.836 228.806 240.17 226.228 234.336 221.831C232.809 220.675 231.484 219.713 231.392 219.677C231.3 219.641 231.114 220.571 230.94 221.876ZM230.825 227.162C230.888 227.802 231.088 228.997 231.274 229.836C231.608 231.271 231.668 231.38 232.898 232.542C235.732 235.207 240.774 238.52 244.021 239.863C246.005 240.668 248.465 241.34 248.796 241.144C249.431 240.785 252.586 237.119 252.668 236.662C252.688 236.548 252.545 236.464 252.325 236.484C251.668 236.524 247.244 235.267 245.038 234.384C241.067 232.794 235.539 229.552 232.256 226.866C231.501 226.241 230.853 225.791 230.797 225.88C230.746 225.949 230.758 226.541 230.825 227.162ZM259.658 236.783C258.688 238.911 254.595 243.412 251.696 245.531C249.839 246.891 249.757 246.798 252.728 246.814C254.303 246.819 257.205 246.45 257.955 246.111C259.252 245.575 264.196 240.164 264.17 239.314C264.167 238.999 260.28 236.167 260.008 236.256C259.925 236.281 259.766 236.508 259.658 236.783ZM232.731 234.144C234.77 238.613 238.945 242.814 243.285 244.764L244.234 245.188L245.33 244.341C245.925 243.877 246.829 243.114 247.344 242.655L248.243 241.812L246.781 241.395C242.729 240.263 237.533 237.257 233.225 233.583C232.748 233.164 232.327 232.873 232.282 232.904C232.237 232.936 232.432 233.501 232.731 234.144ZM263.591 241.236C262.911 242.176 261.742 243.541 261.023 244.258C259.589 245.674 259.655 245.745 261.593 244.93C262.829 244.402 267.158 241.555 267.216 241.231C267.24 241.098 265.288 239.67 264.952 239.571C264.894 239.561 264.287 240.318 263.591 241.236Z" fill="#8B3130"/>
<path d="M415.341 215.025C417.412 215.789 419.024 217.462 419.664 219.506C419.883 220.195 420.028 221.223 420.007 221.863C419.987 222.534 419.694 223.893 419.455 224.439L419.273 224.865L419.185 224.422C418.88 222.895 417.913 221.85 416.162 221.162C415.642 220.952 415.025 220.83 412.36 220.4C411.082 220.192 410.939 220.16 410.515 219.961C409.08 219.279 408.505 218.329 408.509 216.64L408.514 216.437L409.128 216.366C410.321 216.219 410.696 216.236 412.035 216.48C413.07 216.664 413.366 216.741 413.869 216.948C414.985 217.4 416.056 218.036 416.796 218.687C417.151 218.992 417.248 219.04 417.037 218.798C416.534 218.208 415.456 217.366 414.652 216.939C413.091 216.092 411.047 215.729 409.187 215.968C408.908 215.999 408.675 216.02 408.665 216.006C408.655 215.991 408.874 215.845 409.153 215.671C410.699 214.721 412.419 214.401 414.208 214.731C414.587 214.798 415.097 214.932 415.341 215.025Z" fill="#4D660C"/>
<path d="M408.397 216.36C408.384 216.438 408.23 216.64 408.055 216.819C407.875 216.992 407.62 217.275 407.483 217.454L407.228 217.768L407.506 218.127C408.49 219.391 410.313 220.606 412.308 221.319C413.049 221.581 414.759 222.008 414.82 221.945C414.836 221.923 414.918 221.708 414.999 221.463C415.104 221.147 415.176 221.024 415.236 221.035C415.344 221.054 415.261 221.311 414.817 222.377C413.912 224.531 412.496 226.489 410.949 227.719C410.711 227.905 410.524 228.083 410.545 228.105C410.595 228.176 411.099 228.339 411.496 228.41L411.861 228.481L412.39 228.092C413.613 227.214 414.541 226.147 415.306 224.748C415.806 223.822 416.287 222.552 416.429 221.754C416.471 221.52 416.509 221.446 416.554 221.473C416.757 221.583 415.988 223.984 415.482 224.804C415.43 224.888 415.52 224.972 415.999 225.311C416.837 225.899 416.778 225.882 416.952 225.566C417.248 225.019 417.56 224.177 417.788 223.314C417.989 222.538 418.024 222.446 418.074 222.578C418.176 222.881 417.519 224.931 417.051 225.745L416.931 225.965L417.335 226.235C417.557 226.386 417.773 226.492 417.813 226.481C417.953 226.425 418.471 225.78 418.779 225.272C419.093 224.764 419.107 224.755 419.107 224.959C419.107 225.206 418.772 225.76 418.276 226.315L417.972 226.664L418.425 226.979C418.68 227.148 419.071 227.422 419.299 227.574C419.68 227.833 420.832 228.781 420.796 228.811C420.761 228.836 419.628 228.195 419.291 227.962C419.092 227.828 418.666 227.536 418.335 227.31L417.743 226.908L417.142 227.352C415.534 228.545 413.657 228.986 411.667 228.632C410.452 228.416 409.537 228.019 408.577 227.279C406.969 226.04 406.006 224.241 405.831 222.162C405.787 221.64 405.802 221.42 405.943 220.591C406.037 220.063 406.151 219.495 406.211 219.333L406.308 219.034L405.801 218.678C405.519 218.486 405.259 218.31 405.231 218.292C405.198 218.268 405.126 218.565 405.038 219.131C404.877 220.173 404.755 220.3 404.871 219.299C405.064 217.662 404.862 216.741 404.352 216.96C404.104 217.065 404.125 217.155 404.463 217.382C404.685 217.527 404.921 217.668 404.926 217.78C404.936 217.862 404.964 218.158 404.943 218.173C404.922 218.188 404.414 217.726 404.038 217.468L403.352 216.999L403.114 217.087C402.823 217.184 402.78 217.182 402.533 217.002C402.301 216.844 402.205 216.511 402.306 216.257C402.413 216.009 402.74 215.845 403.034 215.897C403.341 215.951 403.577 216.259 403.528 216.535C403.5 216.691 403.529 216.74 403.695 216.85C403.896 216.978 403.903 216.973 404.138 216.836C404.618 216.543 405.009 216.823 405.12 217.524L405.174 217.88L405.784 218.285C406.117 218.505 406.405 218.699 406.427 218.715C406.444 218.724 406.519 218.614 406.583 218.464C406.875 217.835 407.932 216.501 408.319 216.278C408.409 216.226 408.419 216.24 408.397 216.36ZM406.873 218.367C406.764 218.564 406.585 218.941 406.481 219.214L406.286 219.711L406.41 219.851C406.76 220.253 408.159 221.245 409.054 221.719C410.572 222.527 411.57 222.878 413.078 223.152L414.19 223.355L414.396 222.928C414.512 222.695 414.643 222.415 414.686 222.311L414.762 222.126L414.257 222.037C412.412 221.709 410.113 220.688 408.751 219.592C408.264 219.196 407.531 218.472 407.354 218.211C407.275 218.098 407.181 218.001 407.142 218.007C407.11 218.013 406.988 218.177 406.873 218.367ZM406.093 220.692C406.047 221.086 406.01 221.469 406.021 221.546C406.037 221.734 407.725 222.981 408.744 223.564C410.062 224.312 411.803 224.98 412.768 225.102L413.126 225.147L413.577 224.423C413.829 224.022 414.041 223.669 414.047 223.633C414.056 223.585 413.736 223.498 413.055 223.352C410.783 222.874 408.999 222.062 407.162 220.678C406.681 220.314 406.264 220.011 406.235 219.999C406.206 219.988 406.148 220.281 406.093 220.692ZM406.056 222.357C406.076 222.558 406.139 222.934 406.198 223.199C406.303 223.651 406.322 223.685 406.709 224.051C407.602 224.89 409.19 225.933 410.212 226.356C410.837 226.609 411.611 226.821 411.716 226.759C411.916 226.646 412.909 225.492 412.935 225.348C412.941 225.312 412.896 225.286 412.827 225.292C412.62 225.305 411.227 224.909 410.532 224.631C409.282 224.13 407.541 223.109 406.507 222.263C406.269 222.066 406.065 221.925 406.048 221.953C406.031 221.975 406.035 222.161 406.056 222.357ZM415.136 225.386C414.831 226.056 413.542 227.474 412.629 228.141C412.044 228.569 412.018 228.54 412.954 228.545C413.45 228.547 414.364 228.43 414.6 228.324C415.008 228.155 416.565 226.451 416.557 226.183C416.556 226.084 415.332 225.192 415.246 225.22C415.22 225.228 415.17 225.3 415.136 225.386ZM406.657 224.555C407.299 225.963 408.613 227.285 409.98 227.899L410.279 228.033L410.624 227.766C410.811 227.62 411.096 227.38 411.258 227.235L411.542 226.97L411.081 226.839C409.805 226.482 408.169 225.535 406.812 224.378C406.662 224.247 406.53 224.155 406.515 224.165C406.501 224.175 406.563 224.353 406.657 224.555ZM416.375 226.788C416.161 227.085 415.792 227.514 415.566 227.74C415.114 228.186 415.135 228.208 415.745 227.952C416.135 227.786 417.498 226.889 417.516 226.787C417.524 226.745 416.909 226.295 416.803 226.264C416.785 226.261 416.594 226.499 416.375 226.788Z" fill="#4D660C"/>
<path d="M235.485 130.328C235.485 130.328 234.701 126.217 238.167 125.732C241.634 125.247 249.749 128.895 249.749 128.895C249.749 128.895 249.15 133.857 246.984 134.649C244.82 135.44 235.485 130.328 235.485 130.328Z" fill="#F17353"/>
</svg>
