<svg width="18" height="18" viewBox="0 0 18 18" fill="none" xmlns="http://www.w3.org/2000/svg">
<path d="M16.3954 12.4508L14.6571 10.704C14.4536 10.5006 14.1776 10.3863 13.8899 10.3863C13.6022 10.3863 13.3263 10.5006 13.1228 10.704L11.3056 12.5125L5.48736 6.69425L7.29764 4.88568C7.50052 4.68226 7.61445 4.40669 7.61445 4.11939C7.61445 3.83209 7.50052 3.55652 7.29764 3.3531L5.54907 1.60282C5.34558 1.39942 5.06965 1.28516 4.78193 1.28516C4.49422 1.28516 4.21828 1.39942 4.01479 1.60282L1.60279 4.01482C1.50219 4.11546 1.42241 4.23493 1.36799 4.36642C1.31358 4.4979 1.2856 4.63881 1.28564 4.7811V5.0811C1.31479 5.96396 1.7125 7.09196 2.44279 8.35196C3.32367 9.82622 4.38945 11.1818 5.61422 12.3857C6.81359 13.6055 8.16329 14.6677 9.63079 15.5468C10.8856 16.2771 12.0136 16.6765 12.8982 16.7142H13.2188C13.5045 16.7145 13.7788 16.6018 13.9816 16.4005L16.3971 13.9851C16.5994 13.7818 16.713 13.5066 16.713 13.2197C16.713 12.9328 16.5994 12.6576 16.3971 12.4542L16.3954 12.4508ZM16.0525 13.6508L13.6422 16.0577C13.5799 16.1193 13.5051 16.1666 13.4228 16.1965C13.3568 16.2205 13.2872 16.2327 13.2171 16.2325H12.9154C12.1114 16.2 11.0571 15.8177 9.87422 15.1302C8.44296 14.2719 7.12668 13.235 5.95707 12.0445C4.76535 10.8703 3.72839 9.54879 2.87136 8.11196C2.18564 6.92225 1.80507 5.86968 1.77936 5.06568V4.7811C1.77449 4.71243 1.78145 4.64343 1.79993 4.5771C1.83027 4.49411 1.87823 4.41866 1.9405 4.35596L4.35422 1.94396C4.41032 1.88736 4.47707 1.84243 4.55063 1.81177C4.62419 1.78112 4.70309 1.76533 4.78279 1.76533C4.86248 1.76533 4.94138 1.78112 5.01494 1.81177C5.0885 1.84243 5.15526 1.88736 5.21136 1.94396L6.95479 3.68568C7.01139 3.74178 7.05631 3.80853 7.08697 3.88209C7.11763 3.95565 7.13342 4.03455 7.13342 4.11425C7.13342 4.19394 7.11763 4.27284 7.08697 4.3464C7.05631 4.41996 7.01139 4.48672 6.95479 4.54282L5.14622 6.3531L4.80336 6.69596L5.14622 7.03882L10.9645 12.8537L11.3074 13.1965L11.6502 12.8537L13.4571 11.0451C13.5131 10.9883 13.5798 10.9432 13.6534 10.9124C13.7269 10.8816 13.8059 10.8657 13.8856 10.8657C13.9654 10.8657 14.0444 10.8816 14.1179 10.9124C14.1915 10.9432 14.2582 10.9883 14.3142 11.0451L16.0559 12.792C16.1125 12.8481 16.1575 12.9148 16.1881 12.9884C16.2188 13.0619 16.2346 13.1408 16.2346 13.2205C16.2346 13.3002 16.2188 13.3791 16.1881 13.4527C16.1575 13.5262 16.1125 13.593 16.0559 13.6491L16.0525 13.6508Z" fill="white"/>
</svg>
