<svg width="22" height="22" viewBox="0 0 22 22" fill="none" xmlns="http://www.w3.org/2000/svg">
<g clip-path="url(#clip0_431_2627)">
<path d="M10.9997 14.1808C12.7564 14.1808 14.1805 12.7567 14.1805 11C14.1805 9.24331 12.7564 7.81921 10.9997 7.81921C9.24294 7.81921 7.81885 9.24331 7.81885 11C7.81885 12.7567 9.24294 14.1808 10.9997 14.1808Z" stroke="white" stroke-linecap="round" stroke-linejoin="round"/>
<path d="M14.4988 3.68408H7.50105C5.393 3.68408 3.68408 5.393 3.68408 7.50105V14.4988C3.68408 16.6069 5.393 18.3158 7.50105 18.3158H14.4988C16.6069 18.3158 18.3158 16.6069 18.3158 14.4988V7.50105C18.3158 5.393 16.6069 3.68408 14.4988 3.68408Z" stroke="white" stroke-linecap="round" stroke-linejoin="round"/>
<path d="M15.135 7.6601C15.5742 7.6601 15.9302 7.30408 15.9302 6.8649C15.9302 6.42573 15.5742 6.0697 15.135 6.0697C14.6959 6.0697 14.3398 6.42573 14.3398 6.8649C14.3398 7.30408 14.6959 7.6601 15.135 7.6601Z" fill="white"/>
</g>
<defs>
<clipPath id="clip0_431_2627">
<rect width="20.3571" height="20.3571" fill="white" transform="translate(0.821289 0.821411)"/>
</clipPath>
</defs>
</svg>
