<svg width="18" height="13" viewBox="0 0 18 13" fill="none" xmlns="http://www.w3.org/2000/svg">
<path d="M16.5001 0.107178H1.50014C1.21598 0.107178 0.943457 0.22006 0.742525 0.420992C0.541593 0.621924 0.428711 0.894446 0.428711 1.17861L0.428711 11.1786C0.428711 11.4628 0.541593 11.7353 0.742525 11.9362C0.943457 12.1372 1.21598 12.25 1.50014 12.25H16.5001C16.7843 12.25 17.0568 12.1372 17.2578 11.9362C17.4587 11.7353 17.5716 11.4628 17.5716 11.1786V1.17861C17.5716 0.894446 17.4587 0.621924 17.2578 0.420992C17.0568 0.22006 16.7843 0.107178 16.5001 0.107178ZM16.2716 0.821464L9.00014 6.44289L1.72871 0.821464H16.2716ZM1.143 11.0322V1.27146L6.64657 5.52504L1.143 11.0322ZM1.64657 11.5358L7.21442 5.96789L8.77871 7.17861C8.84116 7.22668 8.91776 7.25275 8.99657 7.25275C9.07538 7.25275 9.15198 7.22668 9.21443 7.17861L10.7859 5.96789L16.3537 11.5358H1.64657ZM16.8573 11.0322L11.3537 5.52504L16.8573 1.27146V11.0322Z" fill="white"/>
</svg>
