<svg width="592" height="561" viewBox="0 0 592 561" fill="none" xmlns="http://www.w3.org/2000/svg">
<path d="M506.998 262.149L475.398 269.823L449.838 262.149L447.692 269.823C447.692 269.823 471.233 280.502 481.405 282.441C491.577 284.381 508.858 275.463 508.858 275.463L506.998 262.149Z" fill="#FF9D7F"/>
<path d="M552.722 409.038L575.794 432.682L583.23 451.368C583.23 451.368 589.142 447.173 589.142 443.169C589.142 439.164 585.709 427.914 585.709 427.914L581.133 425.627C581.133 425.627 576.747 413.805 570.932 407.893C565.116 401.983 552.722 409.038 552.722 409.038Z" fill="#FF9D7F"/>
<path d="M583.929 427.025C583.929 427.025 588.887 428.296 589.904 428.805C590.92 429.314 591.366 434.907 591.175 438.53C590.985 442.152 592.723 444.822 591.218 450.352C589.712 455.882 586.726 458.233 585.263 458.361C583.802 458.488 581.153 448.869 580.38 444.208C580.38 444.208 580.56 446.157 583.102 445.522C585.644 444.886 587.169 440.564 586.47 435.48C585.773 430.393 583.866 430.013 583.929 427.025Z" fill="#3B2D24"/>
<path d="M529.774 347.273C529.774 347.273 529.356 375.801 539.396 393.961C549.437 412.122 570.356 427.013 570.356 427.013L581.235 417.202L559.897 385.379C559.897 385.379 561.445 350.71 552.722 327.027L529.774 347.273Z" fill="#3B2D24"/>
<path d="M497.418 220.208C497.418 220.208 491.874 220.635 489.948 226.468C488.022 232.3 491.194 235.404 491.194 235.404L496.992 225.688L497.418 220.208Z" fill="#3B2D24"/>
<path d="M495.423 224.578C495.423 224.578 492.238 227.725 491.67 233.328C491.31 236.89 489.307 238.073 487.895 238.462C487.203 238.652 486.851 239.414 487.167 240.058L488.938 243.653C488.938 243.653 489.926 250.819 492.063 253.815C492.063 253.815 495.804 254.281 500.582 252.577L506.407 258.953L517.861 253.99L512.234 241.861C512.234 241.861 512.8 228.994 509.003 225.044C505.208 221.092 498.878 221.346 495.423 224.578Z" fill="#FF9D7F"/>
<path d="M495.088 225.732C495.088 225.732 496.506 230.914 499.92 234.282C503.333 237.651 507.405 237.233 507.405 237.233C507.405 237.233 507.638 235.362 509.61 235.168C511.582 234.974 512.469 240.752 509.977 243.892C509.977 243.892 513.542 252.025 518.815 250.394C527.734 247.634 524.389 233.253 523.682 228.241C522.977 223.229 517.92 217.851 509.754 215.224C503.502 213.211 494.443 218.688 495.088 225.732Z" fill="#3B2D24"/>
<path d="M495.245 223.568C495.245 223.568 493.741 226.586 495.292 231.467C496.841 236.35 502.561 236.178 502.561 236.178C502.561 236.178 497.715 235.202 496.36 231.148C495.004 227.095 495.719 224.977 495.719 224.977L495.245 223.568Z" fill="#3B2D24"/>
<path d="M518.124 252.375C518.124 252.375 504.055 255.568 499.164 262.504C494.273 269.44 501.353 281.313 489.506 282.116C477.659 282.918 472.322 274.544 462.503 282.495L463.688 285.536C463.688 285.536 465.139 281.255 473.473 282.271C481.806 283.286 489.268 286.848 495.642 282.73C502.016 278.613 493.83 269.709 503.026 261.932C512.222 254.155 518.341 255.51 518.341 255.51L518.124 252.375Z" fill="#FFCC00"/>
<path d="M518.879 221.491C518.879 221.491 519.35 216.437 523.327 214.963C527.304 213.489 529.842 217.272 531.287 219.631C531.287 219.631 541.775 223.041 538.842 229.985C535.91 236.928 528.218 237.616 523.03 231.194C517.841 224.773 518.879 221.491 518.879 221.491Z" fill="#3B2D24"/>
<path d="M537.443 234.196C537.443 234.196 534.344 238.026 530.32 237.17C526.297 236.314 524.065 232.349 524.065 232.349L523.459 233.599C523.459 233.599 525.881 237.787 530.6 238.213C535.319 238.639 537.443 234.196 537.443 234.196Z" fill="#3B2D24"/>
<path d="M518.263 254.386C518.263 254.386 526.148 257.568 530.814 265.689C535.48 273.81 533.971 285.462 540.161 291.028C546.351 296.594 552.722 306.226 552.722 306.226L522.644 318.324L507.48 287.08C507.48 287.08 502.759 286.162 501.135 281.889C499.512 277.616 502.78 263.16 504.885 260.451C506.989 257.741 515.425 253.838 518.263 254.386Z" fill="#4D660C"/>
<path d="M519.86 381.415C525.769 379.543 535.223 387.056 544.257 393.071L551.191 394.962C551.191 394.962 551.482 411.783 549.446 414.454C547.41 417.123 542.847 417.202 542.847 417.202L540.107 401.699L517.171 391.912C517.171 391.912 516.804 382.382 519.86 381.415Z" fill="#FF9D7F"/>
<path d="M547.524 393.961C547.524 393.961 553.323 395.038 553.977 395.579C554.632 396.119 555.277 400.418 554.272 404.98C553.266 409.541 553.502 411.296 551.969 416.119C550.436 420.942 547.104 424.011 544.465 424.44C541.826 424.87 541.771 411.119 541.29 408.4C541.29 408.4 542.19 411.331 544.55 409.618C546.908 407.905 548.073 403.405 548.019 400.246C547.963 397.085 547.822 394.872 547.524 393.961Z" fill="#3B2D24"/>
<path d="M526.71 315.139C526.71 315.139 489.609 328.863 481.243 358.012C472.875 387.159 523.459 397.268 523.459 397.268L530.451 380.145L504.238 362.717C504.238 362.717 543.874 355.364 552.724 340.302C561.573 325.24 552.724 306.227 552.724 306.227L526.71 315.139Z" fill="#3B2D24"/>
<path d="M516.322 314.226C516.322 314.226 494.648 298.262 492.978 298.124C492.978 298.124 492.893 298.927 493.438 299.439C493.438 299.439 509.182 313.347 510.627 314.019C512.072 314.692 513.68 313.857 516.241 316.022L516.322 314.226Z" fill="#B2CC57"/>
<path d="M518.208 318.132C521.054 320.63 524.405 323.6 527.744 320.392C531.084 317.184 529.396 314.245 525.521 313.714C520.446 313.02 518.869 316.202 514.343 312.529L512.801 314.471C512.801 314.471 515.361 315.634 518.208 318.132ZM519.414 315.765C519.414 315.765 522.629 315.507 524.754 315.373C526.879 315.24 527.927 317.26 526.297 318.914C524.666 320.569 521.656 318.376 520.088 317.211C518.52 316.044 519.111 315.789 519.414 315.765Z" fill="#708943"/>
<path d="M512.63 317.632C512.63 317.632 498.419 295.428 498.359 293.753C498.359 293.753 499.166 293.706 499.651 294.273C499.651 294.273 512.084 310.458 512.689 311.933C513.294 313.408 512.384 314.977 514.429 317.635L512.63 317.632Z" fill="#B2CC57"/>
<path d="M513.04 314.125L511.027 315.575C514.485 320.267 511.233 321.694 511.69 326.796C512.039 330.691 514.896 332.514 518.257 329.328C521.617 326.142 518.806 322.655 516.444 319.697C514.082 316.738 513.04 314.125 513.04 314.125ZM515.435 321.533C516.527 323.154 518.575 326.263 516.847 327.815C515.118 329.367 513.149 328.226 513.382 326.108C513.615 323.992 514.023 320.794 514.023 320.794C514.061 320.49 514.344 319.912 515.435 321.533Z" fill="#4D660C"/>
<path d="M511.643 311.101C512.019 311.622 511.9 312.348 511.38 312.723C510.859 313.098 510.133 312.98 509.758 312.46C509.382 311.939 509.501 311.213 510.021 310.837C510.541 310.462 511.268 310.579 511.643 311.101Z" fill="#B2CC57"/>
<path d="M513.033 264.207C514.742 261.096 518.611 259.902 521.77 261.521C527.809 264.618 537.406 269.944 544.422 275.775C555.431 284.922 552.559 289.419 551.343 292.519C550.127 295.621 528.917 317.155 528.917 317.155L522.736 311.195L541.321 288.643L515.392 272.983C512.379 271.164 511.339 267.292 513.033 264.207Z" fill="#FF9D7F"/>
<path d="M523.356 310.855L515.526 315.119L522.968 320.661C522.968 320.661 528.159 318.764 528.916 317.155C529.674 315.545 523.356 310.855 523.356 310.855Z" fill="#FF9D7F"/>
<path d="M515.526 315.119C515.526 315.119 513.181 319.595 513.238 320.662C513.295 321.728 514.479 321.63 515.06 321.165C515.641 320.701 515.099 320.08 515.099 320.08L517.775 316.794C517.775 316.794 517.037 315.119 515.526 315.119Z" fill="#FF9D7F"/>
<path d="M517.777 316.127C517.777 316.127 516.533 320.398 516.572 321.499C516.611 322.6 517.851 322.445 518.239 322.212L519.325 317.155L517.777 316.127Z" fill="#FF9D7F"/>
<path d="M519.366 316.979C519.366 316.979 518.123 321.251 518.162 322.352C518.201 323.453 519.441 323.298 519.829 323.065L520.915 318.007L519.366 316.979Z" fill="#FF9D7F"/>
<path d="M520.955 317.535C520.955 317.535 519.711 321.807 519.751 322.908C519.79 324.008 521.03 323.854 521.417 323.62L522.503 318.563L520.955 317.535Z" fill="#FF9D7F"/>
<path d="M521.418 323.622C521.418 323.622 522.853 323.259 523.589 322.561C524.326 321.863 524.015 319.926 524.015 319.926L522.076 319.655C522.076 319.655 521.185 323.324 521.418 323.622Z" fill="#FF9D7F"/>
<path d="M446.83 257.656C444.971 256.328 443.708 255.73 443.708 255.73C443.708 255.73 441.119 252.608 439.923 252.874C439.266 253.02 440.016 254.413 440.985 255.891C440.049 255.898 438.845 256.032 438.927 256.677C438.981 257.105 439.793 257.423 440.732 257.651C440.359 258.122 440.011 258.721 440.388 258.985C440.834 259.297 442.175 259.04 443.011 258.837C443.06 258.91 443.11 258.986 443.15 259.05C444.12 260.577 443.775 266.554 443.775 266.554C443.775 266.554 442.048 266.355 441.252 265.691C440.455 265.027 437.733 263.832 438.197 265.094C438.662 266.356 441.319 268.481 442.115 268.747C442.912 269.013 448.158 269.825 448.158 269.825C448.808 269.927 450.947 264.231 450.947 264.231C450.947 264.231 448.689 258.983 446.83 257.656Z" fill="#FF9D7F"/>
<path d="M106.433 374.443C99.7817 373.831 91.5561 383.909 83.4262 392.315L76.5623 395.897C76.5623 395.897 80.1184 413.673 82.8745 416.016C85.6306 418.359 90.4526 417.394 90.4526 417.394L89.7775 400.445L111.673 384.874C111.675 384.873 109.873 374.759 106.433 374.443Z" fill="#FF9D7F"/>
<path d="M139.204 391.28L114.346 416.755L106.333 436.888C106.333 436.888 99.9644 432.369 99.9644 428.054C99.9644 423.74 103.663 411.618 103.663 411.618L108.593 409.153C108.593 409.153 113.318 396.415 119.585 390.046C125.85 383.679 139.204 391.28 139.204 391.28Z" fill="#FF9D7F"/>
<path d="M80.1926 394.003C80.1926 394.003 74.3352 396.468 73.7696 397.188C73.204 397.907 73.5126 402.58 75.6188 407.151C77.725 411.723 77.8786 413.622 80.6008 418.347C83.3229 423.072 87.534 425.538 90.411 425.384C93.2881 425.23 90.1893 410.743 90.0697 407.769C90.0697 407.769 89.7938 411.061 86.918 409.799C84.0422 408.537 81.7823 404.069 81.1147 400.731C80.4471 397.392 80.0881 395.03 80.1926 394.003Z" fill="#3B2D24"/>
<path d="M105.58 410.66C105.58 410.66 100.239 412.029 99.1431 412.577C98.0472 413.125 97.5685 419.151 97.7738 423.055C97.9791 426.958 96.106 429.834 97.7272 435.793C99.3484 441.751 102.567 444.284 104.143 444.421C105.717 444.559 108.572 434.195 109.404 429.173C109.404 429.173 109.21 431.273 106.471 430.589C103.732 429.904 102.088 425.247 102.841 419.768C103.595 414.29 105.648 413.879 105.58 410.66Z" fill="#3B2D24"/>
<path d="M77.9857 296.712C77.9857 296.712 71.8133 317.958 83.1138 337.081C94.413 356.204 118.45 363.158 118.45 363.158L153.087 334.426L118.75 297.823L88.3275 286.813C88.3275 286.813 78.385 295.071 77.9857 296.712Z" fill="#4D660C"/>
<path d="M141.349 288.985C141.349 288.985 145.985 294.779 153.807 296.083C153.807 296.083 154.495 289.142 158.153 283.112C161.811 277.082 164.817 279.544 164.817 279.544C164.817 279.544 165.035 277.975 161.702 276.237C158.37 274.499 152.502 276.743 150.547 278.845C148.592 280.946 141.349 288.985 141.349 288.985Z" fill="#FFDE59"/>
<path d="M140.208 253.203C140.208 253.203 143.089 264.503 148.739 267.69C154.388 270.877 159.748 272.181 161.197 273.629C162.645 275.078 162.356 277.83 162.356 277.83C162.356 277.83 161.052 274.788 156.126 276.527C151.201 278.265 147.29 288.262 142.075 290.145C136.86 292.028 128.022 281.598 128.022 281.598C128.022 281.598 136.023 256.969 140.208 253.203Z" fill="#FFCC00"/>
<path d="M137.728 265.034C137.728 265.034 130.63 284.494 118.75 297.821L88.3275 286.812C88.3275 286.812 95.5706 262.908 91.9491 249.726C91.9491 249.726 131.016 244.92 136.569 245.744C142.12 246.568 137.728 265.034 137.728 265.034Z" fill="#3B2D24"/>
<path d="M124.146 200.391C124.146 200.391 130.067 199.474 133.523 205.118C136.98 210.761 134.417 214.797 134.417 214.797L125.942 206.035L124.146 200.391Z" fill="#3B2D24"/>
<path d="M98.3343 271.736C98.3343 271.736 98.8445 280.697 92.07 287.377C85.2955 294.056 80.66 294.491 80.66 294.491C80.66 294.491 83.1226 289.131 72.1131 285.22C61.1037 281.308 57.6257 283.114 57.6257 283.114C57.6257 283.114 58.6398 274.354 65.1585 272.76C71.6773 271.167 77.4642 275.513 86.5224 274.933C95.5819 274.354 98.3343 271.736 98.3343 271.736Z" fill="#FFCC00"/>
<path d="M87.9056 318.335C87.9056 318.335 90.3871 294.18 84.6746 290.67" stroke="#3B2D24" stroke-miterlimit="10" stroke-linecap="round"/>
<path d="M86.8789 245.742C86.8789 245.742 79.7807 260.011 66.3073 266.095C52.8352 272.18 58.5377 279.544 58.5377 279.544C58.5377 279.544 60.2723 273.774 65.8727 273.195C73.1007 272.447 82.9677 278.845 92.9631 275.658C102.959 272.471 108.138 258.747 105.279 253.129C100.932 244.583 86.8789 245.742 86.8789 245.742Z" fill="#FFDE59"/>
<path d="M127.315 204.483C127.315 204.483 131.431 206.998 133.406 212.736C134.662 216.384 137.054 217.131 138.63 217.191C139.402 217.222 139.96 217.933 139.786 218.687L138.814 222.894C138.814 222.894 139.543 230.654 138.038 234.322C138.038 234.322 134.228 235.732 128.797 235.122L127.198 243.775L111.02 240.859L113.937 226.751C113.937 226.751 110.174 213.395 113.184 208.316C116.193 203.236 122.894 201.943 127.315 204.483Z" fill="#FF9D7F"/>
<path d="M127.95 205.611C127.95 205.611 127.739 211.396 124.988 215.769C122.236 220.143 117.863 220.707 117.863 220.707C117.863 220.707 117.158 218.803 115.041 219.085C112.925 219.367 113.419 225.645 116.805 228.326C116.805 228.326 116.452 238.437 111.02 240.858C105.589 243.28 99.7338 240.106 96.7006 241.587C93.6673 243.069 93.244 245.538 87.8829 245.679C82.5218 245.82 75.6793 237.99 86.2604 230.653C96.8416 223.317 100.087 224.587 99.5927 219.155C99.099 213.724 101.215 205.752 108.693 200.321C114.937 195.783 126.892 198.063 127.95 205.611Z" fill="#3B2D24"/>
<path d="M127.253 203.38C127.253 203.38 129.573 206.176 129.15 211.678C128.726 217.18 122.684 218.41 122.684 218.41C122.684 218.41 127.527 216.193 127.95 211.607C128.374 207.022 127.104 204.977 127.104 204.977L127.253 203.38Z" fill="#3B2D24"/>
<path d="M81.8516 289.501C81.8491 289.5 81.8478 289.497 81.8453 289.496C75.8443 284.791 61.4803 282.321 61.4803 282.321C61.4803 282.321 57.4242 287.536 59.645 291.979C61.8658 296.422 64.6232 297.3 64.6232 297.3C64.6232 297.3 64.6295 297.299 64.6383 297.297C64.9154 297.509 65.2102 297.695 65.5352 297.821L99.7238 311.101L103.766 304.461C103.766 304.461 92.0133 294.88 81.8516 289.501Z" fill="#FF9D7F"/>
<path d="M86.879 245.742C86.879 245.742 100.593 246.78 108.705 255.761C116.817 264.742 128.311 260.494 129.759 252.767C129.759 252.767 135.168 261.748 140.769 260.01C146.37 258.272 141.831 248.806 136.326 244.653C130.821 240.5 127.873 240.394 127.873 240.394L127.247 243.784C127.247 243.784 112.829 237.796 103.765 237.796C94.7027 237.798 86.879 243.062 86.879 245.742Z" fill="#FFDE59"/>
<path d="M102.996 304.27C102.996 304.27 108.067 304.994 111.182 305.5C114.297 306.008 118.1 310.257 118.389 311.102C118.679 311.947 117.882 311.839 116.941 311.44C116 311.042 113.356 309.014 113.356 309.014L111.762 308.615L111.726 309.195C111.726 309.195 112.668 309.774 114.225 310.825C115.782 311.876 117.014 313.251 116.796 313.94C116.578 314.628 115.42 314.048 114.442 313.542C113.464 313.034 110.723 311.551 110.723 311.551L110.494 311.949C110.494 311.949 113.826 313.723 114.297 314.629C114.768 315.535 113.79 315.607 112.63 315.353C111.471 315.1 109.19 313.723 109.19 313.723L108.792 314.085C108.792 314.085 111.038 315.751 111.218 316.621C111.4 317.49 109.951 317.345 108.719 316.223C107.487 315.1 106.763 314.557 106.763 314.557C106.763 314.557 101.131 312.815 99.5638 311.043C97.9968 309.271 101.548 304.704 102.996 304.27Z" fill="#FF9D7F"/>
<path d="M154.374 292.846C154.374 292.846 160.375 294.871 165.977 292.846C171.579 290.82 188.384 258.852 188.384 258.852L183.169 255.858C183.169 255.858 165.592 274.884 161.728 278.361C157.865 281.839 153.975 290.525 154.374 292.846Z" fill="#FF9D7F"/>
<path d="M182.396 257.307C182.396 257.307 182.443 255.471 182.685 252.864C182.927 250.256 182.637 246.731 183.168 246.538C183.699 246.345 184.085 248.083 184.23 249.387C184.374 250.691 184.471 251.657 184.471 251.657L187.851 250.064L192.197 255.183L187.296 260.06L182.396 257.307Z" fill="#FF9D7F"/>
<path d="M187.297 250.326L190.194 248.857C190.194 248.857 190.99 246.944 191.715 246.524C192.439 246.105 191.715 249.244 191.183 249.75C190.651 250.256 188.528 251.488 188.528 251.488L187.297 250.326Z" fill="#FF9D7F"/>
<path d="M188.795 251.851C188.795 251.851 191.523 250.186 191.62 250.113C191.717 250.041 192.223 248.206 192.948 247.964C193.672 247.722 192.876 250.306 192.441 251.03C192.007 251.754 189.931 253.179 189.931 253.179L188.795 251.851Z" fill="#FF9D7F"/>
<path d="M189.659 253.324C189.659 253.324 192.387 251.657 192.484 251.585C192.581 251.514 193.088 249.678 193.812 249.436C194.536 249.194 193.739 251.778 193.304 252.502C192.87 253.227 190.794 254.651 190.794 254.651L189.659 253.324Z" fill="#FF9D7F"/>
<path d="M190.238 254.724C190.238 254.724 192.669 253.241 192.755 253.175C192.841 253.111 193.293 251.476 193.938 251.26C194.583 251.045 193.874 253.346 193.486 253.993C193.099 254.638 191.248 255.907 191.248 255.907L190.238 254.724Z" fill="#FF9D7F"/>
<path d="M111.595 354.335C111.595 354.335 103.767 355.65 98.26 363.158C98.26 363.158 88.3061 362.035 83.7978 364.853C79.2895 367.671 84.5486 374.244 91.8735 376.122C91.8735 376.122 94.1472 385.325 99.3962 387.579C104.645 389.832 109.349 386.639 113.852 389.832C118.355 393.025 119.671 394.341 126.62 392.273C133.57 390.208 136.951 394.827 141.27 393.269C145.589 391.71 158.677 373.826 160.052 361.848C162.378 341.563 153.086 334.426 153.086 334.426L111.595 354.335Z" fill="#4D660C"/>
<path d="M84.2123 290.539C84.2123 290.539 80.0453 290.755 76.289 295.676C72.5327 300.599 69.9415 311.738 69.9415 311.738" stroke="#3B2D24" stroke-miterlimit="10" stroke-linecap="round"/>
<path d="M61.0911 306.815C61.0911 306.815 70.1582 308.629 78.016 313.723C85.8737 318.819 97.8771 321.182 99.172 320.907C99.172 320.907 93.0412 353.187 79.224 355.261C65.408 357.333 52.6274 349.199 52.7131 338.155C52.8013 327.109 61.0911 306.815 61.0911 306.815Z" fill="#A66438"/>
<path d="M277.524 264.548C277.524 264.548 288.147 269.551 311.903 270.029C335.659 270.508 358.867 265.827 358.867 265.827C358.867 265.827 343.507 278.421 317.66 280.204C291.814 281.987 277.524 264.548 277.524 264.548Z" fill="#8B3130"/>
<path d="M388.368 404.49C377.833 409.902 369.451 406.387 355.121 403.418C340.791 400.437 341.069 403.418 328.905 407.469C316.74 411.52 306.193 408.004 293.715 405.85C281.236 403.685 286.192 408.283 270.523 408.819C254.843 409.354 249.162 405.85 249.162 405.85L250.266 399.645L253.123 383.685C284.663 372.056 382.207 383.685 382.207 383.685L386.626 398.596L388.368 404.49Z" fill="#88A51D"/>
<path d="M268.137 271.229L318.195 251.694L367.19 272.007" stroke="#5E4F45" stroke-miterlimit="10"/>
<path d="M318.146 251.694V248.226C318.146 248.226 328.013 247.551 328.282 237.684C328.553 227.817 313.956 227.276 313.28 236.197" stroke="#5E4F45" stroke-miterlimit="10" stroke-linecap="round" stroke-linejoin="round"/>
<path d="M453.915 324.947C453.915 324.947 453.915 324.947 453.915 326.375C453.915 333.685 446.181 334.211 443.2 345.56C440.231 356.911 432.665 360.437 432.665 360.437C430.812 359.142 426.638 355.794 421.27 351.386C421.125 351.274 420.98 351.152 420.824 351.028C419.429 349.878 417.967 348.674 416.438 347.402C416.293 347.29 416.148 347.167 416.002 347.044C414.44 345.749 412.81 344.399 411.158 343.014C411.013 342.892 410.869 342.769 410.724 342.647C393.023 327.892 371.572 309.611 371.572 309.611L382.209 383.684C382.209 383.684 369.407 389.622 362.376 386.92C355.356 384.219 351.026 380.982 338.861 386.116C331.852 389.074 323.493 388.617 317.656 387.701C311.841 388.617 303.482 389.074 296.473 386.116C284.297 380.982 279.978 384.219 272.947 386.92C265.915 389.621 253.126 383.684 253.126 383.684L263.762 309.611C263.762 309.611 251.888 319.733 238.517 330.983C235.459 333.562 232.334 336.196 229.243 338.784C229.098 338.908 228.941 339.03 228.797 339.152C227.223 340.48 225.66 341.775 224.132 343.058C223.987 343.171 223.842 343.293 223.696 343.415C222.212 344.654 220.761 345.859 219.354 347.031C219.198 347.144 219.053 347.266 218.908 347.388C214.265 351.25 210.136 354.62 207.077 357.053C205.114 358.615 203.596 359.788 202.669 360.434C202.669 360.434 195.102 356.907 192.121 345.558C189.152 334.207 181.172 333.247 180.805 325.948C180.805 325.948 182.669 324.732 185.871 322.633C187.121 321.818 188.56 320.881 190.179 319.82C190.335 319.719 190.503 319.609 190.67 319.496C191.943 318.67 193.316 317.767 194.788 316.818C195 316.685 195.213 316.54 195.436 316.394C195.637 316.26 195.837 316.126 196.049 315.992C196.205 315.891 196.373 315.79 196.529 315.68C196.864 315.468 197.211 315.244 197.556 315.021L197.567 315.009C198.013 314.72 198.483 314.417 198.951 314.105L198.963 314.094C199.688 313.636 200.425 313.145 201.183 312.654C201.351 312.553 201.519 312.442 201.686 312.33C204.867 310.266 208.282 308.045 211.843 305.735C236.552 289.742 268.45 269.306 277.523 264.541C277.523 264.541 289.019 276.728 317.657 280.2C346.307 276.728 358.55 265.825 358.55 265.825C369.354 271.506 411.864 298.257 436.318 313.76C436.485 313.861 436.641 313.961 436.797 314.072C437.868 314.742 438.896 315.39 439.877 316.015L439.889 316.026C440.291 316.272 440.67 316.517 441.06 316.763H441.072C441.194 316.852 441.306 316.93 441.429 316.997C441.597 317.109 441.753 317.209 441.909 317.298C441.976 317.342 442.031 317.388 442.088 317.42C442.334 317.565 442.568 317.722 442.791 317.866C444.41 318.893 445.871 319.82 447.177 320.657C447.345 320.757 447.512 320.858 447.668 320.969C451.595 323.463 453.915 324.947 453.915 324.947Z" fill="#993F3C"/>
<path d="M447.175 320.662C446.583 321.644 445.712 322.738 444.429 323.787L442.788 317.871C442.565 317.727 442.331 317.57 442.086 317.426L443.95 324.145C443.236 324.68 442.421 325.194 441.461 325.662C440.802 325.986 440.166 326.265 439.564 326.499L438.101 321.208L441.907 317.302C441.75 317.213 441.594 317.112 441.427 317.001L437.677 320.84L432.666 320.505C433.201 319.01 434.016 317.437 435.188 315.908L441.058 316.767C440.667 316.521 440.288 316.275 439.886 316.03L439.875 316.018L435.578 315.394C435.946 314.948 436.348 314.501 436.795 314.076C436.639 313.964 436.483 313.864 436.315 313.764C430.188 319.824 431.058 327.703 431.07 327.804L431.092 327.971L431.249 328.027C431.315 328.05 432.119 328.339 433.604 328.339C435.368 328.339 438.102 327.926 441.706 326.163C444.864 324.622 446.651 322.647 447.666 320.973C447.51 320.863 447.342 320.762 447.175 320.662ZM432.487 321.052L437.174 321.364L431.582 327.124C431.55 326.063 431.605 323.741 432.487 321.052ZM431.885 327.615L437.655 321.677L439.04 326.699C435.288 328.05 432.822 327.804 431.885 327.615Z" fill="#B2CC57"/>
<path d="M445.153 329.999L444.883 329.997C444.822 329.994 438.325 329.965 433.226 332.636C427.496 335.638 427.675 344.213 427.685 344.576L427.691 344.795L427.905 344.841C428.04 344.87 429.481 345.168 431.467 345.168C434.108 345.168 437.713 344.638 440.471 342.234C445.294 338.03 445.167 330.584 445.159 330.269L445.153 329.999ZM436.96 336.604L436.532 331.881C439.647 330.885 442.703 330.637 444.093 330.576L436.96 336.604ZM444.59 330.887C444.531 332.288 444.192 335.878 442.382 339L437.274 337.069L444.59 330.887ZM433.487 333.131C434.296 332.708 435.14 332.355 435.988 332.059L436.441 337.042L432.21 340.617L430.92 335.343C431.594 334.462 432.429 333.685 433.487 333.131ZM431.734 341.02L428.252 343.961C428.302 342.532 428.623 338.818 430.49 335.942L431.734 341.02ZM428.605 344.394L432.098 341.442L437.345 343.504C433.885 344.959 430.037 344.604 428.605 344.394ZM440.104 341.815C439.463 342.374 438.764 342.815 438.043 343.178L432.583 341.033L436.786 337.48L442.092 339.485C441.553 340.326 440.9 341.121 440.104 341.815Z" fill="#B2CC57"/>
<path d="M424.518 331.944L424.429 331.699L424.183 331.766C424.071 331.788 414.417 334.243 410.724 342.648C410.869 342.771 411.013 342.893 411.158 343.016C411.627 341.955 412.174 340.995 412.798 340.113L416.169 346.72L416.002 347.044C416.147 347.167 416.291 347.29 416.438 347.402L416.649 347L423.458 347.023C422.565 348.809 421.504 350.226 420.824 351.03C420.98 351.153 421.125 351.275 421.27 351.387C422.486 349.936 424.919 346.622 425.477 342.548C426.215 337.191 424.53 332.001 424.518 331.944ZM423.692 332.492L419.407 340.594L416.616 336.197C419.485 333.988 422.442 332.883 423.692 332.492ZM416.494 346.119L413.18 339.625C414.096 338.43 415.111 337.404 416.182 336.545L419.106 341.165L416.494 346.119ZM424.92 342.48C424.73 343.909 424.273 345.259 423.726 346.465L416.952 346.442L419.597 341.42L425.054 341.197C425.021 341.621 424.987 342.046 424.92 342.48ZM425.088 340.639L419.909 340.85L424.173 332.769C424.518 334.077 425.233 337.191 425.088 340.639Z" fill="#B2CC57"/>
<path d="M428.378 315.22L428.312 315.011L428.094 315.025C427.819 315.042 421.299 315.502 418.272 320.127C415.251 324.745 417.095 330.898 417.174 331.157L417.254 331.415L417.515 331.345C417.735 331.284 422.955 329.843 426.564 326.435C430.625 322.598 428.472 315.52 428.378 315.22ZM428.02 322.932L425.867 319.12L427.999 315.969C428.292 317.204 428.834 320.211 428.02 322.932ZM425.401 318.812L420.698 318.341C423.15 316.428 426.267 315.821 427.543 315.647L425.401 318.812ZM418.739 320.432C419.134 319.829 419.602 319.307 420.107 318.843L425.045 319.338L422.442 323.183L417.653 322.766C417.904 321.965 418.254 321.174 418.739 320.432ZM422.514 324.077L423.931 327.788C421.67 329.278 419.294 330.18 418.119 330.573L422.514 324.077ZM417.504 323.314L422.086 323.714L417.559 330.406C417.276 329.184 416.765 326.233 417.504 323.314ZM426.181 326.029C425.624 326.554 425.023 327.033 424.406 327.466L422.896 323.512L425.517 319.636L427.774 323.631C427.423 324.506 426.918 325.332 426.181 326.029Z" fill="#B2CC57"/>
<path d="M202.666 360.438C202.666 360.438 195.099 356.911 192.119 345.561C189.15 334.211 181.17 333.251 180.802 325.952C180.802 325.952 203.917 344.813 202.666 360.438Z" fill="#8B3130"/>
<path d="M432.666 360.438C432.666 360.438 431.659 356.803 435.815 351.183C439.971 345.563 444.509 341.966 447.561 335.513C450.613 329.061 450.64 326.214 453.915 324.947C453.915 324.947 457.549 347.835 432.666 360.438Z" fill="#8B3130"/>
<path d="M263.76 309.613C263.76 309.613 267.738 306.669 270.449 297.118C273.159 287.568 273.159 287.409 274.753 292.829C276.348 298.25 270.926 301.598 270.449 307.338C269.97 313.078 271.566 315.151 268.137 320.333C264.708 325.515 261.413 325.953 261.413 325.953L263.76 309.613Z" fill="#8B3130"/>
<path d="M371.66 309.613C371.66 309.613 367.682 306.669 364.971 297.118C362.261 287.568 362.261 287.409 360.667 292.829C359.072 298.25 364.494 301.598 364.971 307.338C365.449 313.078 363.854 315.151 367.283 320.333C370.712 325.515 374.006 325.953 374.006 325.953L371.66 309.613Z" fill="#8B3130"/>
<path d="M388.376 404.49C377.84 409.903 369.458 406.387 355.128 403.418C340.798 400.437 341.077 403.418 328.912 407.469C316.748 411.52 306.2 408.004 293.722 405.85C281.244 403.685 286.2 408.283 270.531 408.819C254.85 409.355 249.169 405.85 249.169 405.85L250.274 399.645C255.319 400.761 263.164 401.732 272.528 400.293C289.113 397.737 298.99 402.201 307.919 404.757C316.847 407.301 328.6 397.312 344.404 397.849C360.219 398.373 364.649 403.039 375.844 401.498C380.676 400.828 384.203 399.679 386.636 398.596L388.376 404.49Z" fill="#B2CC57"/>
<path d="M205.468 329.967C200.143 327.767 193.685 328.386 193.62 328.393L193.352 328.421L193.37 328.691C193.39 329.004 193.939 336.433 199.121 340.184C201.487 341.897 204.282 342.371 206.653 342.371C209.481 342.371 211.704 341.697 211.869 341.644L212.078 341.58L212.065 341.36C212.043 340.995 211.445 332.438 205.468 329.967ZM211.445 340.796L207.714 338.182L208.491 333.014C210.611 335.707 211.266 339.376 211.445 340.796ZM208.011 332.456L207.202 337.824L202.665 334.646V329.643C203.537 329.861 204.41 330.135 205.252 330.484C206.358 330.94 207.259 331.638 208.011 332.456ZM202.108 329.514V334.256L194.459 328.898C195.849 328.833 198.916 328.804 202.108 329.514ZM201.837 334.748L196.925 337.133C194.841 334.188 194.179 330.646 193.993 329.254L201.837 334.748ZM197.258 337.59L202.36 335.115L206.868 338.273L201.623 340.903C200.872 340.606 200.137 340.23 199.448 339.732C198.594 339.112 197.872 338.379 197.258 337.59ZM202.347 341.164L207.387 338.636L211.134 341.26C209.728 341.6 205.927 342.301 202.347 341.164Z" fill="#B2CC57"/>
<path d="M214.396 328.284L214.139 328.24L214.084 328.497C214.072 328.552 212.867 333.865 214.084 339.143C214.977 342.983 217.499 345.973 218.904 347.392C219.049 347.27 219.194 347.146 219.35 347.035C218.602 346.276 217.486 345.015 216.493 343.407L223.268 342.771L223.692 343.419C223.837 343.297 223.982 343.173 224.128 343.062L223.726 342.449L226.483 335.562C227.364 336.6 228.157 337.794 228.793 339.156C228.938 339.034 229.094 338.91 229.239 338.788C225.055 329.981 214.508 328.295 214.396 328.284ZM222.332 332.012L219.955 336.644L214.955 328.954C216.226 329.244 219.274 330.07 222.332 332.012ZM214.497 329.289L219.475 336.945L214.297 337.202C213.849 333.776 214.263 330.617 214.497 329.289ZM216.182 342.882C215.524 341.732 214.954 340.427 214.63 339.02C214.53 338.595 214.452 338.172 214.385 337.759L219.832 337.491L222.923 342.245L216.182 342.882ZM223.347 341.878L220.3 337.18L222.801 332.314C223.939 333.073 225.055 333.999 226.071 335.115L223.347 341.878Z" fill="#B2CC57"/>
<path d="M211.542 323.188C215.443 326.257 220.772 327.221 220.997 327.26L221.262 327.306L221.318 327.043C221.375 326.777 222.654 320.483 219.228 316.157C215.797 311.825 209.258 311.953 208.985 311.964L208.765 311.97L208.72 312.184C208.655 312.49 207.15 319.736 211.542 323.188ZM210.083 320.505L211.969 316.324L214.93 319.947L213.783 324.021C213.129 323.644 212.486 323.224 211.884 322.75C211.089 322.123 210.513 321.346 210.083 320.505ZM209.592 312.533C210.877 312.59 214.037 312.911 216.653 314.597L212.012 315.493L209.592 312.533ZM220.325 326.544C219.12 326.259 216.674 325.575 214.286 324.297L215.362 320.474L220.325 326.544ZM220.869 326.329L215.755 320.073L220.281 319.262C221.28 322.101 221.04 325.087 220.869 326.329ZM218.792 316.503C219.343 317.199 219.762 317.954 220.082 318.73L215.351 319.579L212.412 315.984L217.286 315.045C217.831 315.46 218.344 315.938 218.792 316.503ZM209.167 312.896L211.576 315.842L209.776 319.831C208.719 317.195 208.986 314.153 209.167 312.896Z" fill="#B2CC57"/>
<path d="M201.685 312.335C201.517 312.447 201.35 312.558 201.182 312.659C201.439 312.893 201.685 313.15 201.919 313.396L198.961 314.099L198.95 314.11C198.481 314.422 198.013 314.724 197.566 315.015L202.342 313.864C203.47 315.171 204.318 316.532 204.921 317.837L199.965 318.63L196.528 315.683C196.372 315.795 196.204 315.895 196.048 315.996L199.575 319.032L198.604 324.433C197.979 324.254 197.331 324.031 196.64 323.763C195.758 323.428 194.988 323.049 194.296 322.647L195.434 316.396C195.211 316.541 194.999 316.686 194.787 316.821L193.783 322.334C192.377 321.43 191.372 320.426 190.669 319.5C190.502 319.612 190.334 319.723 190.178 319.824C190.959 320.839 192.075 321.944 193.671 322.926L193.659 323.016L193.871 323.05C194.619 323.496 195.467 323.92 196.438 324.289C199.463 325.45 201.84 325.773 203.569 325.773C205.779 325.773 206.94 325.238 207.018 325.193L207.174 325.126V324.958C207.176 324.858 207.321 317.749 201.685 312.335ZM199.152 324.579L200.067 319.445L206.351 324.846C205.435 325.126 203.001 325.594 199.152 324.579ZM200.513 319.1L205.156 318.363C206.273 320.963 206.541 323.273 206.608 324.322L200.513 319.1Z" fill="#B2CC57"/>
<path d="M218.62 509.403C218.62 509.403 224.601 509.031 228.545 513.761C232.489 518.491 231.884 522.081 231.884 522.081C231.884 522.081 226.239 520.497 222.629 517.096C219.02 513.695 218.62 509.403 218.62 509.403Z" fill="#FFDE59"/>
<path d="M275.244 127.656C275.244 127.656 272.848 132.89 266.756 133.798C260.665 134.706 257.518 132.392 257.518 132.392C257.518 132.392 260.54 127.929 265.323 126.615C270.106 125.3 275.244 127.656 275.244 127.656Z" fill="#FFDE59"/>
<path d="M246.04 121.152C246.04 121.152 244.288 125.237 239.602 126.052C234.916 126.867 232.443 125.139 232.443 125.139C232.443 125.139 234.693 121.637 238.361 120.533C242.029 119.43 246.04 121.152 246.04 121.152Z" fill="#FFCC00"/>
<path d="M181.389 143.641C181.389 143.641 181.773 148.07 178.027 151C174.281 153.931 171.285 153.576 171.285 153.576C171.285 153.576 171.615 149.427 174.327 146.722C177.041 144.016 181.389 143.641 181.389 143.641Z" fill="#FFCC00"/>
<path d="M155.548 151.688C155.548 151.688 155.932 156.116 152.186 159.048C148.44 161.979 145.445 161.624 145.445 161.624C145.445 161.624 145.775 157.474 148.487 154.77C151.2 152.064 155.548 151.688 155.548 151.688Z" fill="#FFCC00"/>
<path d="M290.596 114.242C290.596 114.242 288.095 117.917 283.34 117.821C278.585 117.726 276.487 115.558 276.487 115.558C276.487 115.558 279.366 112.551 283.176 112.168C286.987 111.785 290.596 114.242 290.596 114.242Z" fill="#FFCC00"/>
<path d="M265.709 107.233C265.709 107.233 263.772 111.045 259.224 111.533C254.676 112.023 252.41 110.211 252.41 110.211C252.41 110.211 254.789 106.991 258.377 106.16C261.966 105.331 265.709 107.233 265.709 107.233Z" fill="#FFDE59"/>
<path d="M142.777 183.76C142.777 183.76 143.924 188.054 140.743 191.591C137.564 195.128 134.551 195.298 134.551 195.298C134.551 195.298 134.155 191.155 136.357 188.02C138.559 184.885 142.777 183.76 142.777 183.76Z" fill="#FFCC00"/>
<path d="M163.991 164.67C163.991 164.67 164.431 168.464 161.286 171.075C158.142 173.686 155.56 173.455 155.56 173.455C155.56 173.455 155.74 169.882 158.002 167.491C160.264 165.102 163.991 164.67 163.991 164.67Z" fill="#FFDE59"/>
<path d="M158.551 198.823C158.551 198.823 158.992 202.617 155.847 205.228C152.703 207.84 150.12 207.609 150.12 207.609C150.12 207.609 150.3 204.037 152.563 201.646C154.825 199.255 158.551 198.823 158.551 198.823Z" fill="#FFDE59"/>
<path d="M377.296 117.525C377.296 117.525 379.368 122.677 385.481 123.431C391.594 124.184 394.363 122.334 394.363 122.334C394.363 122.334 390.75 117.921 385.936 116.729C381.119 115.538 377.296 117.525 377.296 117.525Z" fill="#FFDE59"/>
<path d="M467.974 229.239C467.974 229.239 467.097 234.144 470.982 237.796C474.867 241.448 478.248 241.353 478.248 241.353C478.248 241.353 478.3 236.687 475.545 233.393C472.791 230.098 467.974 229.239 467.974 229.239Z" fill="#FFDE59"/>
<path d="M469.017 170.73C469.017 170.73 468.104 175.08 471.47 178.44C474.835 181.801 477.852 181.807 477.852 181.807C477.852 181.807 478.024 177.649 475.657 174.637C473.29 171.626 469.017 170.73 469.017 170.73Z" fill="#FFCC00"/>
<path d="M390.879 134.292C390.879 134.292 392.078 137.763 395.891 138.717C399.704 139.669 401.847 138.393 401.847 138.393C401.847 138.393 400.202 135.372 397.245 134.242C394.287 133.113 390.879 134.292 390.879 134.292Z" fill="#FFCC00"/>
<path d="M486.193 200.993C486.193 200.993 485.184 205.323 488.476 208.755C491.769 212.188 494.785 212.261 494.785 212.261C494.785 212.261 495.047 208.107 492.745 205.044C490.445 201.982 486.193 200.993 486.193 200.993Z" fill="#FFCC00"/>
<path d="M449.169 149.016C449.169 149.016 448.706 153.266 452.246 156.163C455.786 159.06 458.674 158.782 458.674 158.782C458.674 158.782 458.443 154.785 455.894 152.127C453.342 149.468 449.169 149.016 449.169 149.016Z" fill="#FFDE59"/>
<path d="M421.484 134.055C421.484 134.055 422.015 139.549 427.252 142.283C432.488 145.015 436.066 143.904 436.066 143.904C436.066 143.904 434.725 138.912 430.801 136.221C426.879 133.531 421.484 134.055 421.484 134.055Z" fill="#FFDE59"/>
<path d="M206.998 124.562C206.998 124.562 196.935 130.035 185.392 151.689C173.85 173.343 153.33 184.477 153.33 184.477L208.594 225.877C208.594 225.877 224.827 203.956 222.313 182.054C219.799 160.153 237.171 150.326 237.171 150.326L233.367 144.981C233.367 144.981 227.76 152.296 215.914 148.751C204.068 145.207 212.232 126.614 212.232 126.614L206.998 124.562Z" fill="#993F3C"/>
<path d="M208.594 225.875C208.594 225.875 208.755 217.358 199.367 207.806C189.979 198.254 178.409 200.751 171.133 193.104C163.857 185.455 153.33 184.475 153.33 184.475L208.594 225.875Z" fill="#8B3130"/>
<path d="M517.017 438.684C512.621 469.14 473.898 494.256 447.946 503.17C424.829 511.101 418.641 519.71 417.564 521.498C417.428 521.713 417.375 521.831 417.375 521.831C417.375 521.831 405.754 523.935 392.024 507.441C378.304 490.955 371.29 490.317 371.29 490.317C371.29 490.317 371.383 490.017 371.609 489.451C372.982 486.108 379.155 473.591 399.079 461.094C422.345 446.504 434.741 442.829 437.192 438.087C439.634 433.355 440.379 412.026 440.379 412.026L469.97 411.414C469.97 411.414 467.755 415.882 467.833 423.978C467.911 432.084 469.666 445.883 453.612 458.687C437.566 471.497 423.242 476.579 423.242 476.579L426.225 479.343C426.225 479.343 443.077 470.595 458.059 464.199C473.051 457.802 471.232 457.17 479.508 448.978C487.784 440.787 495.212 427.841 495.212 427.841L517.017 438.684Z" fill="#708943"/>
<path d="M417.564 521.497C417.428 521.712 417.375 521.83 417.375 521.83C417.375 521.83 405.754 523.934 392.024 507.44C378.304 490.954 371.29 490.316 371.29 490.316C371.29 490.316 371.383 490.016 371.609 489.45C374.837 488.863 379.906 488.703 385.061 491.612C393.643 496.438 392.039 505.807 400.924 509.663C409.113 513.205 415.276 517.062 417.564 521.497Z" fill="#284811"/>
<path d="M385.009 477.651C385.009 477.651 386.898 477.515 391.321 479.572C395.742 481.628 397.864 483.375 397.864 483.375C397.864 483.375 405.738 479.294 407.451 476.701C409.164 474.109 406.921 469.331 406.921 469.331C406.921 469.331 399.96 467.635 395.334 469.351C390.709 471.067 385.009 477.651 385.009 477.651Z" fill="#B2CC57"/>
<path d="M413.521 496.4C413.521 496.4 419.302 501.493 423.036 505.879C423.036 505.879 429.607 502.177 433.001 499.179C436.394 496.181 434.4 489.58 434.4 489.58C434.4 489.58 429.445 488.037 425.314 488.713C421.185 489.39 414.195 495.212 413.521 496.4Z" fill="#B2CC57"/>
<path d="M440.379 412.026C440.379 412.026 442.064 416.084 449.849 416.918C457.634 417.75 457.606 415.6 462.393 415.255C467.181 414.911 469.97 411.413 469.97 411.413L440.379 412.026Z" fill="#284811"/>
<path d="M495.209 427.841C495.209 427.841 495.149 432.274 501.64 436.239C508.131 440.205 509.675 438.633 512.859 439.042C516.042 439.452 517.015 438.683 517.015 438.683L495.209 427.841Z" fill="#284811"/>
<path d="M164.641 238.812C169.493 238.812 173.427 234.879 173.427 230.026C173.427 225.174 169.493 221.24 164.641 221.24C159.788 221.24 155.854 225.174 155.854 230.026C155.854 234.879 159.788 238.812 164.641 238.812Z" fill="#B2CC57"/>
<path d="M210.94 488.611C210.94 488.611 200.12 492.623 182.669 494.926C165.217 497.229 162.334 482.665 162.139 481.792C161.944 480.919 179.139 481.795 181.119 476.366C183.1 470.936 165.861 479.952 158.064 475.364C150.267 470.775 149.984 461.822 149.984 461.822C149.984 461.822 163.362 466.125 169.214 461.083C175.067 456.04 160.28 459.79 151.349 455.124C142.418 450.46 148.941 438.586 148.941 438.586C148.941 438.586 159.582 445.991 164.075 442.567C168.567 439.143 154.843 440.73 151.835 433.26C148.827 425.792 153.746 418.176 153.746 418.176C153.746 418.176 166.594 417.38 171.666 423.453C176.737 429.526 172.752 436.794 177.611 436.153C182.471 435.512 176.746 417.675 176.746 417.675C179.24 414.048 186.807 418.983 190.548 428.602C194.289 438.222 188.682 446.827 191.287 447.832C193.892 448.838 193.371 431.264 193.982 425.671C194.706 419.035 208.722 435.194 211.476 445.842C214.23 456.491 207.507 463.446 209.861 464.258C212.216 465.071 217.384 444.474 218.266 444.497C224.691 444.659 232.948 469.263 210.94 488.611Z" fill="#284811"/>
<path d="M298.54 134.633C298.54 104.855 319.012 101.901 319.772 102.092C320.532 102.285 311.466 114.837 314.925 118.531C318.384 122.223 319.738 105.726 326.404 101.45C333.07 97.1731 340.174 100.49 340.174 100.49C340.174 100.49 331.527 109.238 333.152 115.801C334.778 122.364 337.693 109.333 344.866 104.201C352.038 99.0689 358.733 108.855 358.733 108.855C358.733 108.855 348.747 114.24 349.645 119.101C350.543 123.962 354.728 112.617 361.75 113.219C368.773 113.821 372.777 120.672 372.777 120.672C372.777 120.672 368.322 131.023 361.575 132.584C354.829 134.144 350.726 128.16 349.307 132.209C347.888 136.258 364.082 138.835 364.082 138.835C365.929 142.216 359.085 146.177 350.093 145.297C341.102 144.418 336.596 136.638 334.782 138.276C332.968 139.914 346.899 146.451 351.026 149.137C355.922 152.325 337.763 156.887 328.358 154.829C318.953 152.771 316.177 144.772 314.612 146.29C313.047 147.808 327.092 159.984 326.727 160.663C324.056 165.622 298.54 160.285 298.54 134.633Z" fill="#284811"/>
<path d="M311.922 513.271C311.922 513.271 307.034 513.393 302.823 516.374C298.612 519.356 297.819 526.226 297.819 526.226C297.819 526.226 305.107 527.643 309.898 523.999C314.689 520.355 313.745 514.485 313.745 514.485L311.922 513.271Z" fill="#0C3729"/>
<path d="M331.357 504.376C331.357 504.376 335.068 497.682 340.535 497.142C346.001 496.601 349.307 498.491 349.307 498.491C349.307 498.491 347.148 504.227 341.142 506.521C335.136 508.816 332.64 508.141 332.64 508.141L331.357 504.376Z" fill="#0C3729"/>
<path d="M338.835 505.264C338.835 504.021 337.947 502.998 336.78 502.764C337.701 502.189 338.197 501.073 337.909 499.961C337.545 498.56 336.092 497.741 334.705 498.155L334.6 498.186C335.232 497.444 335.42 496.375 334.97 495.432C334.819 495.114 334.608 494.844 334.36 494.624C334.358 494.621 334.356 494.619 334.354 494.616L334.351 494.614C334.338 494.601 334.322 494.592 334.309 494.581C333.637 493.962 332.728 493.773 331.906 493.998C332.554 492.719 332.026 491.155 330.729 490.536C329.786 490.088 328.717 490.274 327.975 490.906L328.007 490.799C328.42 489.413 327.601 487.96 326.2 487.596C324.798 487.232 323.375 488.105 323.062 489.518L323.07 489.316C323.12 487.869 321.963 486.669 320.515 486.669C319.272 486.669 318.249 487.557 318.015 488.723C317.44 487.803 316.324 487.306 315.212 487.595C313.811 487.959 312.993 489.411 313.406 490.798L313.437 490.904C312.695 490.272 311.626 490.085 310.684 490.534C309.439 491.127 308.913 492.587 309.442 493.834C308.765 493.713 308.08 493.872 307.528 494.261C307.458 494.303 307.393 494.355 307.327 494.405C307.323 494.408 307.318 494.411 307.314 494.415C307.228 494.479 307.139 494.537 307.06 494.614C306.136 495.503 306.034 496.913 306.745 497.922C305.423 497.644 304.096 498.437 303.749 499.767C303.461 500.879 303.957 501.997 304.878 502.57C303.713 502.803 302.823 503.826 302.823 505.07C302.823 506.517 304.024 507.675 305.47 507.625L305.673 507.617C304.259 507.93 303.385 509.353 303.75 510.755C304.058 511.939 305.146 512.699 306.313 512.657C306.352 512.928 306.436 513.191 306.562 513.442C306.382 514.03 306.403 514.681 306.689 515.283C307.183 516.32 308.283 516.857 309.357 516.703C309.507 517.16 309.791 517.572 310.177 517.886C310.291 518.256 310.481 518.609 310.769 518.908C311.487 519.652 312.542 519.856 313.454 519.536C313.728 520.303 314.361 520.931 315.212 521.152C316.614 521.516 318.038 520.643 318.35 519.23L318.342 519.433C318.291 520.879 319.45 522.079 320.897 522.079C322.14 522.079 323.164 521.191 323.397 520.025C323.972 520.946 325.088 521.442 326.2 521.154C327.024 520.939 327.637 520.344 327.927 519.61C328.895 520.085 330.098 519.922 330.89 519.099C331.313 518.659 331.536 518.109 331.584 517.547C331.762 517.335 331.898 517.095 331.997 516.842C333.162 517.157 334.428 516.61 334.969 515.475C335.319 514.741 335.276 513.932 334.946 513.257C335.003 513.116 335.047 512.971 335.078 512.823C336.343 513.003 337.577 512.221 337.909 510.946C338.273 509.544 337.4 508.121 335.986 507.809L336.189 507.816C337.634 507.869 338.835 506.71 338.835 505.264Z" fill="#FFDE59"/>
<path d="M320.829 511.719C324.481 511.719 327.442 508.758 327.442 505.105C327.442 501.453 324.481 498.492 320.829 498.492C317.176 498.492 314.216 501.453 314.216 505.105C314.216 508.758 317.176 511.719 320.829 511.719Z" fill="#3B2D24"/>
<path d="M250.354 498.008C250.354 498.008 243.696 482.614 248.105 481.085C252.514 479.556 252.424 497.011 252.424 497.011C252.424 497.011 258.992 482.614 263.851 484.504C268.709 486.393 255.223 498.54 255.223 498.54C255.223 498.54 267.63 494.581 269.969 499.439C272.308 504.298 254.853 501.329 254.853 501.329C254.853 501.329 261.781 515.276 257.552 517.435C253.323 519.594 251.794 502.949 251.794 502.949C251.794 502.949 249.725 514.016 244.326 513.476C238.927 512.935 249.454 500.79 249.454 500.79C249.454 500.79 236.588 500.699 234.788 496.741C232.989 492.782 250.354 498.008 250.354 498.008Z" fill="#FFCC00"/>
<path d="M255.767 499.101C255.767 500.821 254.373 502.216 252.652 502.216C250.931 502.216 249.537 500.821 249.537 499.101C249.537 497.38 250.931 495.985 252.652 495.985C254.373 495.985 255.767 497.38 255.767 499.101Z" fill="#A66438"/>
<path d="M126.513 456.849C126.513 456.849 121.652 445.609 124.87 444.492C128.09 443.374 128.023 456.12 128.023 456.12C128.023 456.12 132.819 445.608 136.367 446.988C139.915 448.368 130.068 457.237 130.068 457.237C130.068 457.237 139.126 454.346 140.834 457.893C142.542 461.44 129.797 459.273 129.797 459.273C129.797 459.273 134.856 469.456 131.768 471.033C128.681 472.61 127.564 460.455 127.564 460.455C127.564 460.455 126.052 468.536 122.11 468.142C118.169 467.748 125.855 458.878 125.855 458.878C125.855 458.878 116.461 458.813 115.147 455.922C113.833 453.032 126.513 456.849 126.513 456.849Z" fill="#FFCC00"/>
<path d="M130.465 457.646C130.465 458.902 129.447 459.92 128.191 459.92C126.935 459.92 125.917 458.902 125.917 457.646C125.917 456.391 126.935 455.371 128.191 455.371C129.447 455.371 130.465 456.391 130.465 457.646Z" fill="#A66438"/>
<path d="M173.427 389.127C173.427 393.109 170.199 396.336 166.218 396.336C162.236 396.336 159.009 393.109 159.009 389.127C159.009 385.145 162.236 381.918 166.218 381.918C170.199 381.918 173.427 385.145 173.427 389.127Z" fill="#B2CC57"/>
<path d="M402.798 156.78C448.483 177.235 481.204 231.351 481.204 231.351" stroke="#E5DC3C" stroke-miterlimit="10"/>
<path d="M404.953 157.775C405.714 159.062 380.309 156.92 379.327 148.62C378.345 140.322 398.155 146.285 404.953 157.775Z" fill="#E5DC3C"/>
<path d="M418.859 165.577C420.249 166.123 398.893 180.048 393.017 174.105C387.143 168.161 406.435 160.69 418.859 165.577Z" fill="#E5DC3C"/>
<path d="M418.301 164.321C417.798 165.728 403.212 144.817 408.969 138.758C414.724 132.699 422.795 151.749 418.301 164.321Z" fill="#E5DC3C"/>
<path d="M433.782 176.1C435.172 176.647 413.816 190.571 407.94 184.628C402.063 178.685 421.356 171.214 433.782 176.1Z" fill="#E5DC3C"/>
<path d="M432.669 176.218C431.911 177.506 421.509 154.231 428.3 149.36C435.091 144.487 439.444 164.713 432.669 176.218Z" fill="#E5DC3C"/>
<path d="M447.22 187.75C448.611 188.297 427.254 202.221 421.379 196.278C415.504 190.335 434.796 182.864 447.22 187.75Z" fill="#E5DC3C"/>
<path d="M446.559 187.919C445.61 189.074 438.94 164.467 446.404 160.708C453.867 156.948 455.034 177.603 446.559 187.919Z" fill="#E5DC3C"/>
<path d="M459.601 200.785C460.992 201.332 439.636 215.257 433.76 209.313C427.884 203.37 447.177 195.899 459.601 200.785Z" fill="#E5DC3C"/>
<path d="M458.94 200.954C457.991 202.109 451.321 177.502 458.785 173.743C466.248 169.983 467.415 190.638 458.94 200.954Z" fill="#E5DC3C"/>
<path d="M472.601 216.254C473.991 216.801 452.635 230.725 446.759 224.782C440.884 218.839 460.175 211.368 472.601 216.254Z" fill="#E5DC3C"/>
<path d="M471.938 216.423C470.99 217.578 464.32 192.971 471.783 189.212C479.247 185.452 480.413 206.106 471.938 216.423Z" fill="#E5DC3C"/>
<path d="M380.003 513.271C380.003 516.373 377.489 518.887 374.386 518.887C371.284 518.887 368.769 516.373 368.769 513.271C368.769 510.168 371.285 507.652 374.386 507.652C377.487 507.652 380.003 510.168 380.003 513.271Z" fill="#B2CC57"/>
<path d="M286.149 157.53C286.281 153.668 281.574 153.412 281.574 153.412C281.574 153.412 282.986 146.486 278.203 147.343C276.141 147.712 271.878 151.921 268.769 155.26C268.957 149.654 268.699 142.297 266.108 141.741C262.329 140.931 261.249 145.52 261.249 145.52C261.249 145.52 254.68 142.911 254.681 147.77C254.681 149.704 257.576 154.065 260.176 157.594C254.534 157.274 246.84 157.335 246.221 159.974C245.338 163.736 249.906 164.904 249.906 164.904C249.906 164.904 247.171 171.421 252.029 171.515C254.113 171.555 259.075 168.29 262.77 165.628C262.913 171.178 263.605 178.183 266.162 178.585C269.98 179.186 270.805 174.544 270.805 174.544C270.805 174.544 277.508 176.788 277.239 171.937C277.136 170.07 274.21 166.093 271.495 162.776C277.134 162.066 286.048 160.48 286.149 157.53Z" fill="#FFCC00"/>
<path d="M269.526 160.666C269.526 162.878 267.734 164.671 265.522 164.671C263.311 164.671 261.519 162.878 261.519 160.666C261.519 158.454 263.311 156.662 265.522 156.662C267.734 156.662 269.526 158.454 269.526 160.666Z" fill="#A66438"/>
<path d="M480.247 399.111C480.247 401.949 477.946 404.25 475.108 404.25C472.27 404.25 469.968 401.949 469.968 399.111C469.968 396.273 472.27 393.972 475.108 393.972C477.947 393.972 480.247 396.273 480.247 399.111Z" fill="#B2CC57"/>
<path d="M276.628 552.082C276.628 552.082 272.319 555.898 266.381 554.264C260.443 552.629 258.502 549.239 258.502 549.239C258.502 549.239 263.072 546.382 267.977 547.115C272.882 547.848 276.628 552.082 276.628 552.082Z" fill="#FFDE59"/>
<path d="M243.761 539.361C243.761 539.361 239.87 541.51 235.67 539.278C231.471 537.044 230.579 534.163 230.579 534.163C230.579 534.163 234.505 532.78 238.078 534.16C241.651 535.539 243.761 539.361 243.761 539.361Z" fill="#FFCC00"/>
<path d="M209.687 511.237C209.687 511.237 204.791 512.759 200.569 509.259C196.345 505.758 196.01 502.295 196.01 502.295C196.01 502.295 200.766 501.648 204.481 504.039C208.195 506.429 209.687 511.237 209.687 511.237Z" fill="#FFCC00"/>
<path d="M302.161 543.961C302.161 543.961 299.241 547.313 294.531 546.654C289.821 545.995 287.996 543.592 287.996 543.592C287.996 543.592 291.21 540.948 295.04 541.02C298.87 541.093 302.161 543.961 302.161 543.961Z" fill="#FFCC00"/>
<path d="M274.248 530.857C274.248 530.857 270.935 533.559 266.578 532.166C262.22 530.774 260.883 528.199 260.883 528.199C260.883 528.199 264.361 526.216 267.978 526.909C271.596 527.602 274.248 530.857 274.248 530.857Z" fill="#FFDE59"/>
<path d="M155.172 493.946C155.172 493.946 149.419 493.742 146.242 488.466C143.065 483.19 143.993 479.396 143.993 479.396C143.993 479.396 149.274 480.474 152.323 484.385C155.374 488.298 155.172 493.946 155.172 493.946Z" fill="#FFDE59"/>
<path d="M137.233 435.023C137.233 435.023 131.492 434.601 128.517 429.208C125.542 423.815 126.614 420.059 126.614 420.059C126.614 420.059 131.85 421.336 134.749 425.361C137.648 429.386 137.233 435.023 137.233 435.023Z" fill="#FFDE59"/>
<path d="M187.849 514.195C187.849 514.195 183.44 514.765 180.355 511.144C177.27 507.524 177.499 504.516 177.499 504.516C177.499 504.516 181.659 504.672 184.475 507.268C187.291 509.866 187.849 514.195 187.849 514.195Z" fill="#FFCC00"/>
<path d="M212.19 530.535C212.19 530.535 208.039 531.556 204.699 528.431C201.36 525.305 201.254 522.406 201.254 522.406C201.254 522.406 205.246 522.106 208.217 524.283C211.189 526.458 212.19 530.535 212.19 530.535Z" fill="#FFDE59"/>
<path d="M363.201 546.141C363.201 546.141 360.687 551.32 354.577 552.09C348.466 552.859 345.372 550.475 345.372 550.475C345.372 550.475 348.495 546.082 353.307 544.877C358.117 543.67 363.201 546.141 363.201 546.141Z" fill="#FFDE59"/>
<path d="M334.426 540.674C334.426 540.674 331.658 544.152 326.923 543.703C322.188 543.253 320.258 540.934 320.258 540.934C320.258 540.934 323.352 538.15 327.181 538.053C331.011 537.956 334.426 540.674 334.426 540.674Z" fill="#FFCC00"/>
<path d="M378.357 531.047C378.357 531.047 376.948 535.263 372.345 536.462C367.743 537.662 365.135 536.144 365.135 536.144C365.135 536.144 367.089 532.468 370.652 531.065C374.216 529.663 378.357 531.047 378.357 531.047Z" fill="#FFCC00"/>
<path d="M518.206 398.326C518.206 398.326 519.518 402.574 516.477 406.231C513.437 409.887 510.434 410.175 510.434 410.175C510.434 410.175 509.878 406.049 511.957 402.832C514.035 399.614 518.206 398.326 518.206 398.326Z" fill="#FFCC00"/>
<path d="M354.131 525.508C354.131 525.508 352.108 529.275 347.55 529.661C342.993 530.048 340.768 528.185 340.768 528.185C340.768 528.185 343.218 525.019 346.825 524.27C350.432 523.52 354.131 525.508 354.131 525.508Z" fill="#FFDE59"/>
<path d="M498.502 404.25C498.502 404.25 499.987 408.258 497.261 411.932C494.535 415.605 491.666 416.038 491.666 416.038C491.666 416.038 490.914 412.107 492.74 408.907C494.567 405.708 498.502 404.25 498.502 404.25Z" fill="#FFDE59"/>
<path d="M522.341 417.202C522.341 417.202 523.826 421.21 521.1 424.884C518.375 428.557 515.505 428.99 515.505 428.99C515.505 428.99 514.753 425.059 516.578 421.859C518.405 418.66 522.341 417.202 522.341 417.202Z" fill="#FFDE59"/>
<path d="M404.731 535.523C404.731 535.523 403.62 540.429 398.574 542.3C393.527 544.17 390.419 542.756 390.419 542.756C390.419 542.756 392.203 538.396 396.059 536.413C399.913 534.43 404.731 535.523 404.731 535.523Z" fill="#FFDE59"/>
<path d="M327.343 556.617C327.343 556.617 323.751 561.265 317.486 560.761C311.22 560.256 308.626 557.229 308.626 557.229C308.626 557.229 312.662 553.492 317.72 553.29C322.779 553.089 327.343 556.617 327.343 556.617Z" fill="#FFDE59"/>
<path d="M324.133 316.454C330.708 317.635 336.396 321.772 339.388 327.534C340.404 329.474 341.383 332.465 341.66 334.386C341.955 336.399 341.808 340.61 341.383 342.364L341.069 343.731L340.57 342.457C338.853 338.061 335.417 335.457 329.84 334.331C328.178 333.98 326.276 333.943 318.113 334.072C314.197 334.128 313.754 334.109 312.388 333.74C307.752 332.465 305.536 329.935 304.649 324.893L304.557 324.284L306.348 323.748C309.82 322.677 310.947 322.53 315.065 322.548C318.242 322.548 319.165 322.622 320.772 322.973C324.337 323.73 327.864 325.06 330.413 326.611C331.631 327.331 331.945 327.424 331.188 326.814C329.378 325.318 325.722 323.379 323.099 322.53C318.002 320.83 311.723 320.83 306.311 322.53C305.499 322.77 304.816 322.954 304.779 322.917C304.742 322.88 305.314 322.326 306.053 321.662C310.153 318.005 315.102 316.14 320.606 316.177C321.769 316.177 323.358 316.306 324.133 316.454Z" fill="#B2CC57"/>
<path d="M304.169 324.118C304.169 324.358 303.818 325.041 303.394 325.669C302.95 326.279 302.341 327.258 302.027 327.867L301.436 328.938L302.452 329.862C306.053 333.112 312.129 335.771 318.445 336.843C320.791 337.23 326.11 337.6 326.257 337.378C326.294 337.304 326.424 336.621 326.534 335.845C326.682 334.848 326.83 334.442 327.014 334.442C327.347 334.442 327.236 335.254 326.479 338.671C324.928 345.578 321.751 352.171 317.799 356.659C317.189 357.342 316.728 357.97 316.802 358.026C316.986 358.21 318.574 358.432 319.793 358.432L320.92 358.45L322.287 357.01C325.463 353.741 327.661 350.066 329.194 345.486C330.191 342.457 330.948 338.412 330.948 335.956C330.948 335.236 331.022 334.996 331.17 335.051C331.835 335.273 330.819 342.845 329.748 345.56C329.637 345.837 329.951 346.04 331.558 346.797C334.365 348.108 334.18 348.09 334.531 347.055C335.122 345.264 335.602 342.586 335.824 339.89C336.009 337.47 336.064 337.175 336.286 337.544C336.747 338.394 335.879 344.858 334.919 347.536L334.679 348.256L336.027 348.847C336.766 349.179 337.468 349.382 337.578 349.327C337.966 349.087 339.167 346.889 339.813 345.209C340.478 343.528 340.515 343.491 340.626 344.101C340.755 344.839 340.053 346.668 338.871 348.588L338.151 349.789L339.665 350.491C340.515 350.86 341.826 351.469 342.583 351.802C343.858 352.374 347.791 354.59 347.699 354.701C347.607 354.794 343.894 353.482 342.768 352.965C342.103 352.67 340.681 352.023 339.573 351.525L337.597 350.638L336.045 352.282C331.89 356.696 326.534 359.004 320.421 359.004C316.691 359.004 313.754 358.303 310.504 356.604C305.056 353.759 301.233 348.902 299.608 342.789C299.201 341.256 299.127 340.592 299.109 338.043C299.109 336.418 299.146 334.663 299.238 334.146L299.367 333.204L297.668 332.41C296.727 331.985 295.858 331.598 295.766 331.561C295.655 331.505 295.6 332.429 295.637 334.165C295.711 337.36 295.415 337.803 295.231 334.756C294.935 329.769 293.845 327.128 292.442 328.052C291.759 328.495 291.869 328.753 292.996 329.252C293.735 329.566 294.513 329.862 294.587 330.194C294.661 330.434 294.902 331.302 294.846 331.357C294.791 331.413 293.033 330.305 291.777 329.732L289.487 328.698L288.822 329.086C288.009 329.529 287.88 329.548 287.049 329.141C286.273 328.79 285.812 327.849 285.978 327.036C286.163 326.242 287.049 325.577 287.954 325.577C288.896 325.577 289.764 326.371 289.764 327.221C289.764 327.701 289.875 327.83 290.429 328.07C291.094 328.347 291.112 328.329 291.74 327.793C293.014 326.667 294.326 327.294 295.027 329.326L295.378 330.36L297.41 331.247C298.518 331.727 299.478 332.152 299.552 332.189C299.608 332.207 299.774 331.838 299.885 331.357C300.42 329.326 302.858 324.783 303.892 323.915C304.132 323.712 304.169 323.749 304.169 324.118ZM300.697 330.914C300.476 331.561 300.143 332.78 299.977 333.648L299.663 335.236L300.106 335.587C301.362 336.602 306.053 338.819 308.971 339.761C313.92 341.367 317.079 341.884 321.714 341.903L325.131 341.921L325.519 340.536C325.74 339.779 325.98 338.874 326.054 338.542L326.183 337.951H324.632C318.962 337.951 311.575 336.122 306.939 333.574C305.277 332.65 302.71 330.877 302.045 330.194C301.75 329.898 301.417 329.658 301.307 329.695C301.214 329.732 300.937 330.286 300.697 330.914ZM299.608 338.265C299.681 339.465 299.774 340.629 299.848 340.85C299.995 341.404 305.684 344.23 309.026 345.43C313.348 346.963 318.888 348.034 321.825 347.887L322.915 347.831L323.875 345.43C324.41 344.101 324.854 342.937 324.854 342.826C324.854 342.678 323.856 342.586 321.751 342.512C314.733 342.291 308.989 340.813 302.784 337.655C301.159 336.824 299.755 336.141 299.663 336.122C299.571 336.104 299.552 337.009 299.608 338.265ZM300.383 343.251C300.549 343.842 300.937 344.932 301.251 345.689C301.805 346.982 301.879 347.074 303.227 347.96C306.33 349.992 311.612 352.263 314.881 352.984C316.875 353.409 319.295 353.63 319.572 353.39C320.107 352.947 322.453 348.976 322.453 348.533C322.453 348.422 322.305 348.367 322.102 348.422C321.492 348.57 317.134 348.127 314.918 347.665C310.929 346.834 305.203 344.71 301.676 342.734C300.863 342.272 300.18 341.958 300.143 342.051C300.106 342.124 300.217 342.678 300.383 343.251ZM329.028 347.48C328.473 349.641 325.389 354.554 323.025 357.028C321.511 358.617 321.419 358.543 324.207 358.063C325.685 357.804 328.344 356.973 328.991 356.53C330.117 355.809 333.848 349.9 333.682 349.105C333.626 348.81 329.508 346.797 329.268 346.926C329.194 346.963 329.083 347.203 329.028 347.48ZM303.338 349.493C305.998 353.353 310.615 356.604 315.01 357.712L315.97 357.952L316.857 356.973C317.337 356.437 318.057 355.569 318.464 355.052L319.165 354.11L317.725 353.963C313.736 353.575 308.362 351.617 303.708 348.884C303.19 348.57 302.747 348.367 302.71 348.404C302.673 348.441 302.95 348.939 303.338 349.493ZM333.46 351.008C332.98 352.005 332.112 353.482 331.558 354.277C330.45 355.846 330.523 355.902 332.204 354.812C333.275 354.11 336.858 350.712 336.858 350.398C336.858 350.269 334.79 349.253 334.457 349.216C334.402 349.216 333.959 350.029 333.46 351.008Z" fill="#B2CC57"/>
<path d="M76.2756 325.652C78.8397 327.105 80.6029 329.658 81.0062 332.494C81.1456 333.45 81.1158 334.838 80.9505 335.678C80.7793 336.559 80.1024 338.29 79.6691 338.959L79.3387 339.482L79.3174 338.878C79.2448 336.798 78.1954 335.212 76.0384 333.928C75.3978 333.539 74.6113 333.245 71.1944 332.106C69.5565 331.557 69.3747 331.484 68.8598 331.131C67.1164 329.923 66.5636 328.546 66.9315 326.317L66.9821 326.05L67.8061 326.089C69.408 326.151 69.8985 326.254 71.6102 326.863C72.9325 327.328 73.3061 327.493 73.9236 327.874C75.2967 328.71 76.5707 329.779 77.4049 330.798C77.807 331.276 77.9242 331.36 77.6981 330.996C77.1633 330.108 75.9246 328.767 74.9571 328.03C73.0835 326.578 70.4697 325.66 67.9689 325.576C67.5955 325.558 67.2841 325.535 67.2741 325.514C67.2641 325.493 67.5834 325.346 67.9881 325.177C70.2292 324.254 72.5621 324.201 74.8477 325.021C75.332 325.191 75.9743 325.477 76.2756 325.652Z" fill="#FFCC00"/>
<path d="M66.8449 325.924C66.8098 326.024 66.5638 326.258 66.2952 326.457C66.0217 326.646 65.6249 326.964 65.4052 327.172L65.0026 327.531L65.2905 328.064C66.3145 329.944 68.4552 331.939 70.9278 333.308C71.8475 333.812 74.0076 334.743 74.1015 334.672C74.1277 334.647 74.2813 334.381 74.4408 334.075C74.6481 333.681 74.769 333.534 74.8458 333.561C74.9842 333.609 74.8193 333.931 74.0048 335.243C72.3496 337.891 70.0637 340.172 67.7626 341.462C67.4091 341.658 67.1251 341.851 67.1477 341.885C67.1976 341.989 67.8264 342.314 68.3338 342.492L68.8 342.664L69.5795 342.264C71.3795 341.368 72.8315 340.159 74.1389 338.476C74.9967 337.361 75.903 335.788 76.262 334.766C76.3673 334.466 76.4331 334.377 76.4865 334.422C76.7309 334.611 75.2014 337.615 74.3588 338.588C74.2722 338.687 74.3732 338.818 74.9313 339.368C75.9082 340.324 75.8341 340.289 76.1313 339.91C76.6391 339.251 77.2303 338.206 77.7167 337.116C78.1471 336.136 78.2134 336.021 78.2516 336.207C78.3197 336.628 77.0137 339.192 76.2225 340.166L76.0173 340.431L76.4922 340.874C76.7511 341.121 77.0135 341.308 77.0678 341.301C77.2643 341.258 78.0852 340.518 78.5999 339.913C79.1223 339.311 79.143 339.301 79.1001 339.571C79.0459 339.897 78.4866 340.556 77.7139 341.182L77.2386 341.577L77.7664 342.09C78.0661 342.368 78.5229 342.813 78.7895 343.062C79.2363 343.487 80.5499 344.984 80.4952 345.017C80.4433 345.042 79.0897 343.954 78.6963 343.574C78.4627 343.354 77.9652 342.877 77.5769 342.507L76.8838 341.849L75.9978 342.307C73.623 343.537 71.0562 343.715 68.5115 342.822C66.9586 342.277 65.8388 341.555 64.734 340.373C62.8818 338.393 62.0003 335.812 62.2172 333.03C62.2721 332.333 62.3385 332.045 62.7033 330.981C62.9408 330.305 63.2126 329.58 63.3266 329.378L63.5181 329.005L62.9269 328.426C62.5969 328.112 62.2922 327.823 62.2592 327.794C62.2212 327.755 62.0631 328.132 61.8248 328.86C61.3886 330.2 61.2008 330.342 61.5693 329.046C62.175 326.927 62.1074 325.669 61.3882 325.848C61.039 325.933 61.0473 326.056 61.4434 326.429C61.705 326.667 61.9859 326.904 61.968 327.053C61.9637 327.164 61.9372 327.561 61.906 327.576C61.8748 327.59 61.3049 326.872 60.8658 326.45L60.0637 325.685L59.7303 325.749C59.3272 325.815 59.2707 325.804 58.9841 325.513C58.7125 325.254 58.658 324.794 58.8459 324.48C59.0389 324.177 59.5051 324.03 59.8818 324.162C60.2738 324.3 60.5191 324.757 60.3949 325.111C60.3248 325.311 60.352 325.381 60.5475 325.561C60.7838 325.774 60.7942 325.769 61.1339 325.638C61.829 325.355 62.283 325.808 62.2783 326.756L62.2732 327.238L62.9893 327.904C63.3804 328.266 63.7181 328.583 63.7434 328.609C63.7638 328.625 63.8869 328.496 64.0032 328.312C64.5231 327.544 66.2019 326.01 66.7592 325.799C66.8889 325.75 66.8988 325.771 66.8449 325.924ZM64.4063 328.246C64.2196 328.483 63.903 328.942 63.707 329.279L63.3442 329.894L63.4774 330.105C63.8517 330.711 65.4805 332.319 66.5575 333.138C68.383 334.53 69.6221 335.207 71.549 335.892L72.9685 336.399L73.3324 335.879C73.5353 335.596 73.7675 335.255 73.8469 335.127L73.9871 334.9L73.3413 334.673C70.9811 333.845 68.1732 332.004 66.6161 330.265C66.0591 329.638 65.2497 328.525 65.0728 328.143C64.9929 327.977 64.8896 327.829 64.8381 327.828C64.7943 327.83 64.598 328.02 64.4063 328.246ZM62.8785 331.147C62.7338 331.657 62.6022 332.155 62.6005 332.258C62.5811 332.51 64.5359 334.518 65.752 335.506C67.3269 336.776 69.4767 338.031 70.7206 338.399L71.1823 338.535L71.933 337.676C72.3502 337.201 72.7048 336.781 72.721 336.735C72.7426 336.674 72.3409 336.489 71.4753 336.151C68.5864 335.033 66.4114 333.579 64.2898 331.357C63.7348 330.774 63.2504 330.284 63.2146 330.263C63.1789 330.242 63.0389 330.616 62.8785 331.147ZM62.4726 333.336C62.4554 333.606 62.4576 334.116 62.4776 334.477C62.5193 335.096 62.5366 335.146 62.9682 335.712C63.9629 337.011 65.8296 338.728 67.0851 339.506C67.8533 339.974 68.828 340.42 68.9784 340.361C69.2661 340.254 70.8228 338.944 70.8875 338.76C70.9037 338.714 70.8503 338.669 70.7577 338.662C70.4824 338.635 68.7328 337.813 67.8778 337.297C66.3387 336.368 64.2659 334.647 63.0863 333.309C62.8155 332.998 62.577 332.768 62.5481 332.801C62.5219 332.826 62.4871 333.073 62.4726 333.336ZM73.7782 339.282C73.2318 340.101 71.23 341.695 69.8843 342.38C69.0218 342.82 68.9941 342.775 70.2251 342.983C70.878 343.091 72.1065 343.134 72.4403 343.044C73.0145 342.909 75.4312 340.994 75.478 340.639C75.4982 340.508 74.078 339.068 73.9592 339.087C73.923 339.091 73.8418 339.175 73.7782 339.282ZM62.7903 336.366C63.3333 338.361 64.7802 340.389 66.4479 341.493L66.8126 341.733L67.3247 341.455C67.6028 341.302 68.0295 341.046 68.2742 340.89L68.704 340.601L68.1259 340.329C66.5221 339.585 64.571 337.984 63.0332 336.166C62.8638 335.96 62.709 335.811 62.6882 335.821C62.6674 335.831 62.7099 336.079 62.7903 336.366ZM75.1078 341.399C74.7621 341.744 74.1849 342.232 73.8382 342.481C73.1475 342.973 73.1702 343.007 74.029 342.799C74.5775 342.663 76.5655 341.772 76.6114 341.642C76.6303 341.588 75.9177 340.863 75.7847 340.799C75.7617 340.791 75.4584 341.064 75.1078 341.399Z" fill="#FFCC00"/>
</svg>
