<svg width="155" height="120" viewBox="0 0 155 120" fill="none" xmlns="http://www.w3.org/2000/svg">
<path d="M102.355 16.2252C116.484 21.4469 127.477 32.8783 131.843 46.8523C133.331 51.5586 134.322 58.5873 134.178 62.9607C134.039 67.5464 132.047 76.8359 130.411 80.5631L129.174 83.473L128.571 80.447C126.494 70.0105 119.897 62.8723 107.961 58.1676C104.409 56.7319 100.201 55.8983 82.0279 52.96C73.3141 51.536 72.3374 51.3199 69.4494 49.9599C59.662 45.2994 55.7417 38.8068 55.7658 27.2636L55.8016 25.8742L59.9902 25.393C68.1214 24.3869 70.6807 24.504 79.8163 26.1722C86.8683 27.4273 88.8891 27.9562 92.3174 29.37C99.9311 32.4593 107.237 36.805 112.282 41.256C114.703 43.3365 115.364 43.6656 113.923 42.0134C110.497 37.9774 103.145 32.2276 97.6585 29.3054C87.0139 23.5195 73.074 21.0385 60.3898 22.6724C58.491 22.8844 56.901 23.0244 56.8336 22.9278C56.7662 22.8312 58.2561 21.8274 60.1588 20.6433C70.7055 14.1453 82.4304 11.9599 94.6337 14.2165C97.2167 14.6762 100.692 15.5907 102.355 16.2252Z" fill="white"/>
<path d="M55.0063 25.352C54.9114 25.885 53.8624 27.2634 52.6713 28.4895C51.4465 29.6674 49.7068 31.5995 48.769 32.8285L47.0338 34.973L48.9239 37.4243C55.6346 46.0631 68.0727 54.3678 81.6713 59.2413C86.725 61.0291 98.387 63.9506 98.8026 63.517C98.9137 63.3676 99.4707 61.9017 100.023 60.2235C100.745 58.0679 101.234 57.2242 101.644 57.2972C102.382 57.4286 101.815 59.1888 98.7838 66.4745C92.6107 81.1954 82.9537 94.5772 72.4066 102.979C70.7837 104.255 69.5106 105.466 69.6527 105.618C69.9897 106.101 73.4281 107.221 76.1341 107.703L78.6278 108.189L82.2309 105.531C90.5744 99.5289 96.9055 92.2383 102.118 82.676C105.529 76.3461 108.808 67.6664 109.778 62.2135C110.063 60.6145 110.322 60.1107 110.628 60.292C112.016 61.0467 106.77 77.4552 103.319 83.0589C102.963 83.6302 103.58 84.2052 106.848 86.521C112.562 90.5411 112.159 90.4272 113.347 88.2698C115.367 84.5264 117.491 78.7712 119.048 72.8728C120.414 67.5748 120.654 66.9407 121 67.8483C121.689 69.9167 117.208 83.9236 114.018 89.4891L113.2 90.9932L115.96 92.8379C117.469 93.8677 118.946 94.596 119.214 94.5168C120.17 94.137 123.703 89.7324 125.802 86.2568C127.942 82.7886 128.039 82.7211 128.044 84.1179C128.039 85.809 125.759 89.5907 122.376 93.3876L120.303 95.768L123.387 97.9243C125.127 99.08 127.798 100.951 129.347 101.988C131.95 103.763 139.807 110.237 139.559 110.446C139.317 110.615 131.594 106.237 129.298 104.644C127.938 103.726 125.037 101.729 122.774 100.184L118.737 97.4351L114.644 100.471C103.675 108.628 90.8727 111.637 77.3019 109.222C69.0199 107.748 62.7783 105.029 56.2337 99.9732C45.2625 91.5067 38.6947 79.2133 37.5021 65.0003C37.2057 61.4368 37.3044 59.9316 38.2704 54.2663C38.9125 50.6584 39.6878 46.778 40.0971 45.6665L40.7562 43.6266L37.298 41.1923C35.3749 39.8772 33.6011 38.6732 33.4107 38.5547C33.1866 38.3879 32.6988 40.416 32.0948 44.2846C30.9965 51.4067 30.1653 52.2739 30.9593 45.436C32.2735 34.2494 30.898 27.9559 27.4172 29.4513C25.7251 30.1653 25.8689 30.7831 28.1729 32.3352C29.6888 33.3241 31.3001 34.2876 31.3327 35.0548C31.4019 35.617 31.594 37.6392 31.4491 37.7403C31.3043 37.8414 27.839 34.6868 25.2772 32.9196L20.6019 29.7188L18.9727 30.3171C16.9935 30.98 16.6993 30.9699 15.0148 29.7396C13.4315 28.6541 12.7786 26.3807 13.4687 24.6424C14.1925 22.9524 16.4231 21.8266 18.4321 22.1842C20.5231 22.5564 22.1363 24.6623 21.8006 26.5483C21.6109 27.6143 21.8058 27.945 22.941 28.6969C24.3075 29.5746 24.3558 29.5409 25.9614 28.6C29.2355 26.6026 31.8984 28.5146 32.6537 33.3019L33.024 35.7365L37.1837 38.5072C39.454 40.011 41.4181 41.3334 41.5675 41.4446C41.6832 41.5075 42.1982 40.7532 42.6339 39.731C44.6256 35.4326 51.8326 26.3099 54.4715 24.7916C55.0848 24.4354 55.1522 24.532 55.0063 25.352ZM44.613 39.068C43.8656 40.4155 42.646 42.9901 41.9341 44.8514L40.6095 48.2533L41.4549 49.2074C43.8415 51.9586 53.3798 58.732 59.4856 61.9759C69.8386 67.4985 76.6453 69.8943 86.9289 71.7668L94.5065 73.1578L95.9148 70.236C96.706 68.6426 97.5965 66.7285 97.8919 66.0197L98.4124 64.7588L94.9684 64.1458C82.3815 61.9056 66.704 54.9279 57.4201 47.4384C54.095 44.7317 49.0966 39.7814 47.8906 38.0017C47.3513 37.229 46.7082 36.5646 46.4476 36.6029C46.228 36.6484 45.3941 37.7689 44.613 39.068ZM39.2898 54.9554C38.9795 57.6495 38.7248 60.269 38.8012 60.7902C38.9103 62.0785 50.4218 70.599 57.3684 74.5847C66.3567 79.6952 78.2333 84.2622 84.8106 85.0945L87.2515 85.402L90.3321 80.4515C92.0465 77.7111 93.4902 75.3033 93.534 75.0573C93.5923 74.7293 91.4148 74.1303 86.7701 73.1344C71.2778 69.8695 59.1107 64.3202 46.5826 54.8575C43.303 52.3703 40.457 50.2988 40.2593 50.2213C40.0616 50.1438 39.663 52.1455 39.2898 54.9554ZM39.0416 66.3317C39.1771 67.7094 39.6076 70.2816 40.0054 72.0866C40.7246 75.1755 40.8521 75.4097 43.4948 77.9104C49.5801 83.6462 60.4085 90.7761 67.3808 93.6667C71.6409 95.3978 76.9243 96.8457 77.6342 96.4221C78.9983 95.6497 85.7741 87.7616 85.9492 86.7776C85.993 86.5316 85.6869 86.3502 85.214 86.3929C83.8027 86.4801 74.3019 83.774 69.5643 81.8734C61.0368 78.4523 49.1661 71.4752 42.1159 65.6945C40.4943 64.3485 39.1014 63.3815 38.9829 63.5719C38.8717 63.7213 38.8988 64.9951 39.0416 66.3317ZM100.961 87.0383C98.8773 91.6164 90.0894 101.304 83.8636 105.864C79.8741 108.791 79.6983 108.591 86.0789 108.627C89.4611 108.636 95.6934 107.842 97.3035 107.114C100.089 105.96 110.706 94.3138 110.651 92.4851C110.645 91.8073 102.297 85.7111 101.713 85.9032C101.534 85.956 101.193 86.4452 100.961 87.0383ZM43.1352 81.3571C47.514 90.9768 56.4797 100.017 65.7998 104.214L67.8369 105.126L70.1916 103.303C71.4692 102.304 73.4112 100.662 74.5175 99.6743L76.4476 97.8606L73.308 96.9634C64.6053 94.5263 53.4479 88.0569 44.196 80.1501C43.172 79.2488 42.2683 78.6226 42.1717 78.69C42.0751 78.7575 42.4931 79.9739 43.1352 81.3571ZM109.407 96.6205C107.947 98.6448 105.436 101.582 103.893 103.126C100.812 106.173 100.955 106.325 105.116 104.57C107.771 103.435 117.068 97.3072 117.192 96.6102C117.243 96.3232 113.052 93.251 112.329 93.0376C112.206 93.0157 110.901 94.6446 109.407 96.6205Z" fill="white"/>
</svg>
