<svg width="171" height="45" viewBox="0 0 171 45" fill="none" xmlns="http://www.w3.org/2000/svg">
<path d="M79.9325 12.29V29.79C79.8625 32.695 79.7925 34.165 78.9525 35.46C78.6725 35.88 78.3925 36.125 78.2525 36.23C77.7275 36.65 77.0975 36.825 75.6275 37H71.7075C70.1675 36.79 69.2925 36.615 68.4175 35.285C67.5425 33.92 67.4375 32.345 67.4025 31.855C67.2275 33.22 67.0525 34.585 66.1425 35.67C65.2675 36.72 64.2525 36.86 62.9575 37H59.1425C57.6025 36.755 56.6575 36.545 55.8525 35.18C54.9425 33.605 54.9425 31.505 54.9075 29.825V12.29H61.4175V29.86C61.4175 30.175 61.3825 31.61 62.8175 31.61C64.2525 31.61 64.1475 30.105 64.1475 29.825V12.29H70.7275V29.895C70.7275 30.035 70.6925 30.98 71.2875 31.47C71.4975 31.645 71.8475 31.75 72.1275 31.75C73.5275 31.715 73.4575 30.21 73.4575 29.965V12.29H79.9325ZM96.7323 37H85.9173C85.4623 37 83.8173 37.21 83.0123 35.705C82.6273 35.04 82.6273 34.445 82.6273 33.71V21.355C82.6273 20.83 82.6623 20.165 82.8373 19.675C83.4673 17.715 85.3573 17.925 85.9173 17.925H93.2323C93.8973 17.925 94.2823 17.925 94.5623 17.995C96.9773 18.38 96.7323 20.795 96.7323 21.32V29.685H88.4723V31.26C88.6473 32.03 88.8573 32.275 89.6623 32.31H96.7323V37ZM88.4373 26.255H91.0623V23.805C91.0623 23.665 91.0623 23.455 90.9573 23.175C90.8873 22.93 90.5723 22.335 89.7323 22.335C88.4373 22.335 88.4373 23.525 88.4373 23.875V26.255ZM115.65 37H109.175V19.78C109.14 19.57 109.105 19.185 109.07 19.01C108.86 18.415 108.335 18.065 107.74 18.065C107.39 18.065 106.655 18.17 106.375 19.045C106.34 19.185 106.27 19.43 106.27 19.815V37H99.5853V18.94C99.5853 18.905 99.6553 15.58 99.2703 13.76C99.2003 13.48 99.0603 12.955 98.7803 12.29H105.535C105.92 13.515 106.095 15.44 106.095 15.615C106.2 15.44 106.27 15.23 106.375 15.055C106.795 14.11 107.46 13.025 108.475 12.57C109.035 12.325 109.525 12.325 110.155 12.29H112.605C113.445 12.36 114.145 12.43 114.74 13.025C115.44 13.725 115.58 14.53 115.65 16.315V37ZM129.755 37H121.67C121.46 37 121.215 36.965 121.005 36.965C119.675 36.825 119.08 36.195 118.765 35.705C118.345 35.04 118.345 34.41 118.345 33.64V21.39C118.38 20.2 118.45 18.8 119.71 18.24C120.375 17.925 121.075 17.925 121.74 17.925H129.79C130.56 17.96 130.91 17.995 131.295 18.1C133.395 18.695 133.185 20.935 133.185 21.425V33.64C133.185 33.71 133.185 34.515 133.045 35.075C132.52 37.21 130.245 37 129.755 37ZM127.095 31.085V23.91C127.095 23.7 127.095 23.49 127.025 23.28C126.955 22.965 126.605 22.335 125.73 22.335C124.435 22.37 124.435 23.63 124.4 23.945V31.085C124.435 31.47 124.435 32.73 125.835 32.73C127.165 32.73 127.13 31.365 127.095 31.085ZM146.24 37H139.73C139.17 36.37 138.295 35.32 137.385 33.535C135.845 30.49 135.635 28.425 135.425 25.065V17.925H141.55V26.22C141.585 29.895 141.795 30.98 143.055 32.625C143.44 32.135 143.58 31.785 143.72 31.54C144.56 29.545 144.385 26.605 144.385 26.22V17.925H150.37V24.995C150.23 27.41 150.125 29.3 149.355 31.68C148.865 33.045 148.235 34.62 146.24 37ZM166.698 37H155.883C155.428 37 153.783 37.21 152.978 35.705C152.593 35.04 152.593 34.445 152.593 33.71V21.355C152.593 20.83 152.628 20.165 152.803 19.675C153.433 17.715 155.323 17.925 155.883 17.925H163.198C163.863 17.925 164.248 17.925 164.528 17.995C166.943 18.38 166.698 20.795 166.698 21.32V29.685H158.438V31.26C158.613 32.03 158.823 32.275 159.628 32.31H166.698V37ZM158.403 26.255H161.028V23.805C161.028 23.665 161.028 23.455 160.923 23.175C160.853 22.93 160.538 22.335 159.698 22.335C158.403 22.335 158.403 23.525 158.403 23.875V26.255Z" fill="white"/>
<path d="M37.7914 5.8422C43.0472 7.78463 47.1367 12.037 48.7605 17.2352C49.3143 18.9859 49.6829 21.6005 49.6294 23.2273C49.5775 24.9332 48.8366 28.3888 48.228 29.7752L47.7678 30.8577L47.5433 29.7321C46.771 25.8498 44.3169 23.1944 39.8766 21.4444C38.5555 20.9103 36.9901 20.6002 30.2299 19.5072C26.9885 18.9775 26.6251 18.8971 25.5508 18.3912C21.91 16.6575 20.4517 14.2423 20.4607 9.9484L20.474 9.43153L22.0321 9.25254C25.0568 8.87826 26.0089 8.92183 29.4072 9.5424C32.0305 10.0093 32.7822 10.206 34.0575 10.7319C36.8897 11.8811 39.6073 13.4977 41.484 15.1534C42.3847 15.9274 42.6304 16.0498 42.0947 15.4352C40.8199 13.9338 38.0852 11.7949 36.0443 10.7079C32.0846 8.55561 26.8991 7.6327 22.1807 8.24051C21.4744 8.31935 20.8829 8.37143 20.8579 8.3355C20.8328 8.29956 21.387 7.92617 22.0948 7.48569C26.0181 5.06851 30.3796 4.25557 34.9191 5.09497C35.88 5.26598 37.1726 5.60618 37.7914 5.8422Z" fill="white"/>
<path d="M20.1781 9.23721C20.1428 9.43548 19.7526 9.94821 19.3095 10.4043C18.8539 10.8425 18.2068 11.5612 17.8579 12.0184L17.2124 12.8161L17.9155 13.728C20.4118 16.9415 25.0387 20.0308 30.0973 21.8437C31.9772 22.5087 36.3153 23.5955 36.4699 23.4342C36.5113 23.3786 36.7185 22.8333 36.924 22.209C37.1926 21.4072 37.3743 21.0934 37.5268 21.1205C37.8013 21.1694 37.5904 21.8241 36.4629 24.5344C34.1666 30.0104 30.5743 34.9883 26.6509 38.1135C26.0471 38.5882 25.5736 39.0389 25.6264 39.0955C25.7518 39.2752 27.0309 39.6916 28.0375 39.8708L28.9651 40.0516L30.3054 39.0629C33.4091 36.8303 35.7642 34.1182 37.7033 30.5612C38.972 28.2065 40.1918 24.9777 40.5528 22.9493C40.6586 22.3545 40.7549 22.1671 40.8688 22.2345C41.3853 22.5153 39.4335 28.6191 38.1499 30.7036C38.0177 30.9161 38.2471 31.13 39.4627 31.9915C41.5882 33.4869 41.4384 33.4445 41.8802 32.642C42.6315 31.2495 43.4217 29.1086 44.001 26.9145C44.5091 24.9437 44.5983 24.7078 44.727 25.0454C44.9834 25.8148 43.3166 31.0252 42.1299 33.0956L41.8258 33.6551L42.8523 34.3413C43.4135 34.7244 43.9632 34.9953 44.0628 34.9658C44.4184 34.8246 45.7327 33.1861 46.5136 31.8932C47.3096 30.603 47.3455 30.578 47.3475 31.0975C47.3457 31.7266 46.4974 33.1333 45.239 34.5458L44.4677 35.4313L45.6152 36.2334C46.2625 36.6633 47.2558 37.3593 47.8322 37.7451C48.8004 38.4052 51.7233 40.8136 51.6307 40.8915C51.5409 40.9542 48.6681 39.3257 47.8137 38.7331C47.3081 38.3914 46.2287 37.6486 45.387 37.0739L43.8853 36.0514L42.3626 37.1808C38.2823 40.2151 33.5201 41.3344 28.4719 40.4359C25.3911 39.8876 23.0692 38.8764 20.6347 36.9956C16.5535 33.8461 14.1104 29.2731 13.6667 23.986C13.5565 22.6604 13.5932 22.1005 13.9525 19.993C14.1914 18.6509 14.4798 17.2075 14.632 16.794L14.8772 16.0352L13.5908 15.1296C12.8754 14.6404 12.2156 14.1926 12.1448 14.1485C12.0614 14.0864 11.8799 14.8409 11.6553 16.2799C11.2467 18.9293 10.9375 19.2519 11.2329 16.7083C11.7218 12.5469 11.2101 10.2058 9.91526 10.7621C9.28581 11.0277 9.33932 11.2575 10.1964 11.8349C10.7603 12.2027 11.3597 12.5612 11.3718 12.8465C11.3975 13.0557 11.469 13.8079 11.4151 13.8455C11.3612 13.8831 10.0722 12.7096 9.1192 12.0523L7.38003 10.8616L6.77397 11.0842C6.03776 11.3308 5.92829 11.327 5.30169 10.8693C4.7127 10.4656 4.46985 9.61987 4.72655 8.97323C4.99578 8.34457 5.82557 7.92581 6.57289 8.05881C7.35072 8.19725 7.95081 8.98064 7.82595 9.68221C7.75537 10.0787 7.82788 10.2018 8.25014 10.4815C8.75848 10.808 8.77644 10.7954 9.37371 10.4454C10.5916 9.7024 11.5822 10.4137 11.8632 12.1945L12.0009 13.1001L13.5483 14.1308C14.3928 14.6902 15.1235 15.1821 15.179 15.2235C15.2221 15.2469 15.4136 14.9663 15.5757 14.586C16.3166 12.9871 18.9975 9.59354 19.9792 9.02873C20.2073 8.89625 20.2324 8.93218 20.1781 9.23721ZM16.3119 14.3394C16.0339 14.8407 15.5802 15.7984 15.3154 16.4908L14.8227 17.7563L15.1371 18.1112C16.0249 19.1346 19.5731 21.6542 21.8444 22.8609C25.6956 24.9153 28.2276 25.8065 32.053 26.5031L34.8718 27.0205L35.3957 25.9336C35.69 25.3409 36.0213 24.6288 36.1311 24.3652L36.3247 23.8961L35.0436 23.6681C30.3614 22.8348 24.5296 20.2391 21.076 17.4531C19.8391 16.4462 17.9798 14.6048 17.5311 13.9428C17.3306 13.6553 17.0913 13.4082 16.9944 13.4224C16.9127 13.4393 16.6025 13.8562 16.3119 14.3394ZM14.3318 20.2494C14.2163 21.2516 14.1216 22.226 14.15 22.4198C14.1906 22.8991 18.4727 26.0686 21.0568 27.5513C24.4003 29.4523 28.8183 31.1512 31.265 31.4608L32.173 31.5752L33.319 29.7337C33.9567 28.7143 34.4937 27.8186 34.51 27.7271C34.5317 27.6051 33.7217 27.3822 31.9939 27.0118C26.231 25.7973 21.7049 23.733 17.0446 20.2129C15.8246 19.2878 14.7659 18.5172 14.6924 18.4883C14.6188 18.4595 14.4706 19.2041 14.3318 20.2494ZM14.2394 24.4813C14.2898 24.9937 14.45 25.9506 14.5979 26.622C14.8655 27.7711 14.9129 27.8582 15.896 28.7884C18.1596 30.9221 22.1877 33.5743 24.7813 34.6496C26.366 35.2935 28.3314 35.8321 28.5955 35.6746C29.1029 35.3873 31.6234 32.4529 31.6886 32.0869C31.7049 31.9954 31.591 31.9279 31.4151 31.9438C30.8901 31.9763 27.3559 30.9696 25.5936 30.2626C22.4214 28.99 18.0056 26.3946 15.383 24.2442C14.7798 23.7435 14.2617 23.3838 14.2176 23.4546C14.1762 23.5102 14.1863 23.984 14.2394 24.4813ZM37.2728 32.1839C36.4977 33.8869 33.2287 37.4905 30.9128 39.1867C29.4287 40.2758 29.3633 40.2012 31.7368 40.2145C32.995 40.2181 35.3133 39.9227 35.9123 39.6517C36.9485 39.2225 40.8979 34.8903 40.8773 34.2101C40.875 33.9579 37.7698 31.6902 37.5525 31.7616C37.4861 31.7813 37.3593 31.9633 37.2728 32.1839ZM15.7622 30.0705C17.3911 33.649 20.7262 37.0118 24.1932 38.573L24.951 38.9124L25.8269 38.2343C26.3022 37.8626 27.0246 37.2517 27.4361 36.8843L28.1541 36.2097L26.9862 35.8759C23.7489 34.9693 19.5984 32.5628 16.1568 29.6215C15.7759 29.2863 15.4397 29.0533 15.4038 29.0784C15.3678 29.1035 15.5233 29.556 15.7622 30.0705ZM40.4147 35.7484C39.8716 36.5014 38.9376 37.5939 38.3634 38.1683C37.2176 39.3018 37.2704 39.3584 38.8185 38.7056C39.8062 38.2835 43.2644 36.0038 43.3106 35.7445C43.3296 35.6378 41.7707 34.4949 41.5016 34.4156C41.4558 34.4074 40.9704 35.0133 40.4147 35.7484Z" fill="white"/>
</svg>
