<svg width="192" height="50" viewBox="0 0 192 50" fill="none" xmlns="http://www.w3.org/2000/svg">
<path d="M89.7293 11.1793V31.1793C89.6493 34.4993 89.5693 36.1793 88.6093 37.6593C88.2893 38.1393 87.9693 38.4193 87.8093 38.5393C87.2093 39.0193 86.4893 39.2193 84.8093 39.4193H80.3293C78.5693 39.1793 77.5693 38.9793 76.5693 37.4593C75.5693 35.8993 75.4493 34.0993 75.4093 33.5393C75.2093 35.0993 75.0093 36.6593 73.9693 37.8993C72.9693 39.0993 71.8093 39.2593 70.3293 39.4193H65.9693C64.2093 39.1393 63.1293 38.8993 62.2093 37.3393C61.1693 35.5393 61.1693 33.1393 61.1293 31.2193V11.1793H68.5693V31.2593C68.5693 31.6193 68.5293 33.2593 70.1693 33.2593C71.8093 33.2593 71.6893 31.5393 71.6893 31.2193V11.1793H79.2093V31.2993C79.2093 31.4593 79.1693 32.5393 79.8493 33.0993C80.0893 33.2993 80.4893 33.4193 80.8093 33.4193C82.4093 33.3793 82.3293 31.6593 82.3293 31.3793V11.1793H89.7293ZM108.929 39.4193H96.569C96.049 39.4193 94.169 39.6593 93.249 37.9393C92.809 37.1793 92.809 36.4993 92.809 35.6593V21.5393C92.809 20.9393 92.849 20.1793 93.049 19.6193C93.769 17.3793 95.929 17.6193 96.569 17.6193H104.929C105.689 17.6193 106.129 17.6193 106.449 17.6993C109.209 18.1393 108.929 20.8993 108.929 21.4993V31.0593H99.489V32.8593C99.689 33.7393 99.929 34.0193 100.849 34.0593H108.929V39.4193ZM99.449 27.1393H102.449V24.3393C102.449 24.1793 102.449 23.9393 102.329 23.6193C102.249 23.3393 101.889 22.6593 100.929 22.6593C99.449 22.6593 99.449 24.0193 99.449 24.4193V27.1393ZM130.55 39.4193H123.15V19.7393C123.11 19.4993 123.07 19.0593 123.03 18.8593C122.79 18.1793 122.19 17.7793 121.51 17.7793C121.11 17.7793 120.27 17.8993 119.95 18.8993C119.91 19.0593 119.83 19.3393 119.83 19.7793V39.4193H112.19V18.7793C112.19 18.7393 112.27 14.9393 111.83 12.8593C111.75 12.5393 111.59 11.9393 111.27 11.1793H118.99C119.43 12.5793 119.63 14.7793 119.63 14.9793C119.75 14.7793 119.83 14.5393 119.95 14.3393C120.43 13.2593 121.19 12.0193 122.35 11.4993C122.99 11.2193 123.55 11.2193 124.27 11.1793H127.07C128.03 11.2593 128.83 11.3393 129.51 12.0193C130.31 12.8193 130.47 13.7393 130.55 15.7793V39.4193ZM146.669 39.4193H137.429C137.189 39.4193 136.909 39.3793 136.669 39.3793C135.149 39.2193 134.469 38.4993 134.109 37.9393C133.629 37.1793 133.629 36.4593 133.629 35.5793V21.5793C133.669 20.2193 133.749 18.6193 135.189 17.9793C135.949 17.6193 136.749 17.6193 137.509 17.6193H146.709C147.589 17.6593 147.989 17.6993 148.429 17.8193C150.829 18.4993 150.589 21.0593 150.589 21.6193V35.5793C150.589 35.6593 150.589 36.5793 150.429 37.2193C149.829 39.6593 147.229 39.4193 146.669 39.4193ZM143.629 32.6593V24.4593C143.629 24.2193 143.629 23.9793 143.549 23.7393C143.469 23.3793 143.069 22.6593 142.069 22.6593C140.589 22.6993 140.589 24.1393 140.549 24.4993V32.6593C140.589 33.0993 140.589 34.5393 142.189 34.5393C143.709 34.5393 143.669 32.9793 143.629 32.6593ZM165.509 39.4193H158.069C157.429 38.6993 156.429 37.4993 155.389 35.4593C153.629 31.9793 153.389 29.6193 153.149 25.7793V17.6193H160.149V27.0993C160.189 31.2993 160.429 32.5393 161.869 34.4193C162.309 33.8593 162.469 33.4593 162.629 33.1793C163.589 30.8993 163.389 27.5393 163.389 27.0993V17.6193H170.229V25.6993C170.069 28.4593 169.949 30.6193 169.069 33.3393C168.509 34.8993 167.789 36.6993 165.509 39.4193ZM188.89 39.4193H176.53C176.01 39.4193 174.13 39.6593 173.21 37.9393C172.77 37.1793 172.77 36.4993 172.77 35.6593V21.5393C172.77 20.9393 172.81 20.1793 173.01 19.6193C173.73 17.3793 175.89 17.6193 176.53 17.6193H184.89C185.65 17.6193 186.09 17.6193 186.41 17.6993C189.17 18.1393 188.89 20.8993 188.89 21.4993V31.0593H179.45V32.8593C179.65 33.7393 179.89 34.0193 180.81 34.0593H188.89V39.4193ZM179.41 27.1393H182.41V24.3393C182.41 24.1793 182.41 23.9393 182.29 23.6193C182.21 23.3393 181.85 22.6593 180.89 22.6593C179.41 22.6593 179.41 24.0193 179.41 24.4193V27.1393Z" fill="#88A51D"/>
<path d="M42.4181 6.55742C48.3174 8.73766 52.9075 13.5106 54.7301 19.3452C55.3518 21.3103 55.7655 24.245 55.7054 26.071C55.6472 27.9857 54.8156 31.8644 54.1324 33.4206L53.6159 34.6356L53.364 33.3721C52.497 29.0145 49.7426 26.0341 44.7586 24.0697C43.2758 23.4703 41.5186 23.1222 33.9309 21.8954C30.2926 21.3008 29.8848 21.2106 28.6789 20.6428C24.5923 18.6968 22.9555 15.986 22.9656 11.1663L22.9805 10.5862L24.7294 10.3853C28.1244 9.96519 29.193 10.0141 33.0074 10.7106C35.9519 11.2347 36.7956 11.4555 38.227 12.0458C41.406 13.3357 44.4563 15.1502 46.5628 17.0086C47.5738 17.8773 47.8496 18.0147 47.2483 17.3249C45.8174 15.6397 42.7478 13.2389 40.4571 12.0188C36.0127 9.60303 30.1923 8.56713 24.8962 9.24936C24.1034 9.33784 23.4395 9.3963 23.4114 9.35597C23.3833 9.31564 24.0053 8.89653 24.7998 8.40212C29.2034 5.689 34.0989 4.77655 39.1942 5.71871C40.2727 5.91066 41.7235 6.29251 42.4181 6.55742Z" fill="#88A51D"/>
<path d="M22.6485 10.3682C22.6089 10.5907 22.1709 11.1662 21.6736 11.6782C21.1622 12.17 20.4358 12.9767 20.0442 13.4898L19.3197 14.3852L20.1089 15.4087C22.9108 19.0157 28.1041 22.4832 33.782 24.5181C35.8921 25.2645 40.7614 26.4843 40.9349 26.3033C40.9813 26.2409 41.2139 25.6288 41.4445 24.9281C41.746 24.0281 41.95 23.6759 42.1212 23.7063C42.4293 23.7612 42.1925 24.4961 40.927 27.5382C38.3496 33.6846 34.3175 39.2719 29.9137 42.7798C29.2361 43.3126 28.7045 43.8185 28.7638 43.882C28.9046 44.0837 30.3402 44.5511 31.47 44.7522L32.5112 44.9552L34.0157 43.8454C37.4994 41.3394 40.1428 38.2954 42.3192 34.3028C43.7433 31.6599 45.1124 28.0358 45.5176 25.759C45.6364 25.0914 45.7445 24.881 45.8723 24.9568C46.452 25.2719 44.2614 32.123 42.8206 34.4627C42.6722 34.7012 42.9297 34.9413 44.2941 35.9082C46.6798 37.5868 46.5117 37.5392 47.0075 36.6384C47.8509 35.0754 48.7377 32.6724 49.388 30.2096C49.9583 27.9976 50.0584 27.7328 50.2029 28.1117C50.4907 28.9754 48.6198 34.8237 47.2878 37.1475L46.9465 37.7755L48.0986 38.5457C48.7285 38.9757 49.3455 39.2798 49.4574 39.2467C49.8565 39.0882 51.3318 37.2491 52.2082 35.7979C53.1017 34.3498 53.142 34.3217 53.1442 34.9048C53.1422 35.6109 52.19 37.1899 50.7776 38.7752L49.9119 39.7691L51.1998 40.6695C51.9264 41.152 53.0413 41.9332 53.6883 42.3663C54.775 43.1072 58.0557 45.8104 57.9518 45.8979C57.851 45.9682 54.6265 44.1404 53.6675 43.4752C53.1 43.0917 51.8885 42.2579 50.9436 41.6129L49.2582 40.4652L47.5491 41.7328C42.9692 45.1387 37.6239 46.395 31.9576 45.3865C28.4997 44.771 25.8936 43.6361 23.161 41.525C18.5802 37.9899 15.8379 32.857 15.3399 26.9226C15.2162 25.4347 15.2574 24.8063 15.6607 22.4408C15.9288 20.9344 16.2525 19.3142 16.4234 18.8501L16.6986 17.9984L15.2547 16.982C14.4517 16.4329 13.7111 15.9302 13.6316 15.8807C13.5381 15.8111 13.3344 16.6579 13.0822 18.2731C12.6236 21.2469 12.2766 21.609 12.6081 18.7539C13.1568 14.0831 12.5825 11.4554 11.1292 12.0798C10.4226 12.3779 10.4827 12.6358 11.4447 13.2839C12.0776 13.6968 12.7504 14.0991 12.764 14.4194C12.7929 14.6541 12.8731 15.4985 12.8126 15.5407C12.7521 15.5829 11.3053 14.2657 10.2356 13.5279L8.28354 12.1914L7.60328 12.4412C6.77694 12.718 6.65407 12.7138 5.95075 12.2001C5.28966 11.7469 5.01707 10.7977 5.3052 10.0719C5.60739 9.36624 6.53877 8.89621 7.37759 9.0455C8.25064 9.20089 8.92421 10.0802 8.78406 10.8676C8.70484 11.3127 8.78623 11.4508 9.26018 11.7648C9.83075 12.1313 9.85092 12.1172 10.5213 11.7243C11.8883 10.8903 13.0002 11.6887 13.3156 13.6875L13.4702 14.704L15.207 15.8609C16.1549 16.4888 16.975 17.0409 17.0374 17.0873C17.0857 17.1136 17.3007 16.7987 17.4826 16.3718C18.3142 14.5771 21.3234 10.7681 22.4252 10.1342C22.6813 9.98546 22.7094 10.0258 22.6485 10.3682ZM18.309 16.0951C17.9969 16.6576 17.4877 17.7326 17.1904 18.5098L16.6374 19.9302L16.9903 20.3286C17.9868 21.4773 21.9694 24.3054 24.5187 25.6598C28.8415 27.9657 31.6835 28.966 35.9772 29.7479L39.1411 30.3286L39.7291 29.1087C40.0595 28.4434 40.4313 27.6442 40.5546 27.3482L40.7719 26.8218L39.334 26.5658C34.0785 25.6305 27.5327 22.7171 23.6564 19.5899C22.268 18.4598 20.181 16.3929 19.6775 15.6498C19.4523 15.3272 19.1838 15.0498 19.075 15.0658C18.9833 15.0848 18.6351 15.5526 18.309 16.0951ZM16.0864 22.7285C15.9568 23.8534 15.8504 24.9471 15.8824 25.1648C15.9279 25.7027 20.7343 29.2602 23.6348 30.9244C27.3876 33.0582 32.3465 34.9651 35.0928 35.3126L36.1119 35.441L37.3982 33.374C38.114 32.2298 38.7168 31.2245 38.7351 31.1217C38.7594 30.9848 37.8503 30.7347 35.9109 30.3189C29.4424 28.9557 24.3622 26.6387 19.1313 22.6877C17.762 21.6492 16.5737 20.7843 16.4911 20.7519C16.4086 20.7195 16.2422 21.5553 16.0864 22.7285ZM15.9827 27.4785C16.0393 28.0538 16.219 29.1277 16.3851 29.8814C16.6854 31.1711 16.7387 31.2689 17.8421 32.313C20.3829 34.7079 24.9041 37.6849 27.8153 38.8918C29.594 39.6145 31.8 40.2191 32.0964 40.0423C32.6659 39.7198 35.4951 36.4262 35.5682 36.0153C35.5865 35.9126 35.4587 35.8369 35.2612 35.8547C34.6719 35.8911 30.705 34.7613 28.727 33.9677C25.1664 32.5392 20.21 29.6261 17.2663 27.2125C16.5893 26.6505 16.0077 26.2467 15.9582 26.3262C15.9118 26.3886 15.9231 26.9204 15.9827 27.4785ZM41.8361 36.1242C40.9661 38.0357 37.2968 42.0805 34.6974 43.9844C33.0316 45.2067 32.9582 45.123 35.6223 45.138C37.0345 45.1421 39.6367 44.8105 40.309 44.5063C41.472 44.0245 45.905 39.162 45.8819 38.3984C45.8793 38.1154 42.3939 35.57 42.15 35.6503C42.0755 35.6723 41.9332 35.8766 41.8361 36.1242ZM17.6919 33.7521C19.5202 37.7687 23.2637 41.5432 27.1551 43.2955L28.0057 43.6765L28.9889 42.9154C29.5223 42.4982 30.3331 41.8124 30.7951 41.4001L31.6009 40.6429L30.2901 40.2683C26.6564 39.2507 21.9978 36.5495 18.1348 33.2481C17.7073 32.8718 17.33 32.6104 17.2896 32.6385C17.2493 32.6667 17.4238 33.1746 17.6919 33.7521ZM45.3627 40.1251C44.7531 40.9703 43.7047 42.1966 43.0602 42.8413C41.7741 44.1136 41.8334 44.1771 43.571 43.4444C44.6796 42.9706 48.5612 40.4118 48.613 40.1208C48.6344 40.001 46.8846 38.7182 46.5826 38.6291C46.5312 38.62 45.9863 39.3001 45.3627 40.1251Z" fill="#88A51D"/>
</svg>
