<svg width="118" height="91" viewBox="0 0 118 91" fill="none" xmlns="http://www.w3.org/2000/svg">
<path d="M77.8851 11.966C88.6373 15.9312 97.0034 24.6117 100.325 35.2231C101.458 38.7969 102.212 44.1342 102.103 47.4552C101.997 50.9374 100.481 57.9915 99.236 60.8218L98.2946 63.0315L97.8354 60.7336C96.2553 52.8085 91.2349 47.3881 82.1508 43.8155C79.4482 42.7253 76.2456 42.0923 62.4158 39.861C55.7845 38.7797 55.0412 38.6156 52.8434 37.5829C45.3951 34.0439 42.4117 29.1136 42.4301 20.3482L42.4573 19.2931L45.6449 18.9277C51.8328 18.1637 53.7805 18.2526 60.7328 19.5194C66.0994 20.4725 67.6372 20.8741 70.2462 21.9477C76.0404 24.2936 81.6 27.5935 85.4393 30.9734C87.282 32.5534 87.7846 32.8032 86.6887 31.5486C84.0807 28.4838 78.486 24.1176 74.3109 21.8986C66.2102 17.505 55.6018 15.621 45.949 16.8618C44.5039 17.0227 43.294 17.129 43.2427 17.0557C43.1914 16.9823 44.3252 16.2201 45.7732 15.3209C53.7993 10.3866 62.7221 8.72713 72.009 10.4406C73.9746 10.7897 76.6191 11.4842 77.8851 11.966Z" fill="#8B3130"/>
<path d="M41.8522 18.8966C41.78 19.3013 40.9817 20.348 40.0753 21.2791C39.1432 22.1735 37.8192 23.6407 37.1056 24.5739L35.7851 26.2023L37.2235 28.0638C42.3303 34.6238 51.7959 40.9301 62.1446 44.6309C65.9905 45.9884 74.8654 48.2069 75.1817 47.8776C75.2663 47.7642 75.6902 46.651 76.1106 45.3766C76.6601 43.7398 77.0319 43.0991 77.3439 43.1546C77.9055 43.2543 77.4739 44.5909 75.1674 50.1235C70.4696 61.302 63.1205 71.4636 55.0941 77.8433C53.859 78.8123 52.8901 79.7324 52.9983 79.8479C53.2548 80.2147 55.8714 81.0648 57.9307 81.4305L59.8284 81.7997L62.5705 79.7813C68.92 75.2237 73.738 69.6875 77.7048 62.4263C80.3004 57.6196 82.7958 51.0285 83.5344 46.8878C83.7509 45.6735 83.9479 45.291 84.1809 45.4287C85.2375 46.0018 81.2446 58.4618 78.6187 62.7171C78.3482 63.1508 78.8175 63.5875 81.3043 65.346C85.6526 68.3988 85.3462 68.3122 86.25 66.674C87.7871 63.8314 89.4035 59.4611 90.5887 54.9821C91.6281 50.959 91.8106 50.4775 92.0739 51.1666C92.5985 52.7373 89.1885 63.3736 86.7608 67.5999L86.1386 68.742L88.2386 70.1428C89.3867 70.9249 90.5113 71.4779 90.7151 71.4177C91.4425 71.1294 94.1314 67.7846 95.7288 65.1454C97.3574 62.5117 97.4309 62.4605 97.4349 63.5212C97.4311 64.8053 95.6957 67.677 93.1213 70.5603L91.5435 72.3678L93.891 74.0053C95.2152 74.8828 97.2472 76.3037 98.4265 77.0913C100.407 78.4387 106.387 83.355 106.197 83.5141C106.014 83.6421 100.136 80.3178 98.3887 79.1081C97.3543 78.4105 95.1462 76.8941 93.424 75.7211L90.3521 73.6338L87.2369 75.9392C78.8895 82.1334 69.147 84.4182 58.8194 82.5841C52.5168 81.4648 47.7668 79.4006 42.7863 75.5611C34.4371 69.1319 29.4389 59.7968 28.5313 49.004C28.3058 46.298 28.3809 45.155 29.116 40.853C29.6047 38.1133 30.1946 35.1667 30.5061 34.3226L31.0077 32.7736L28.376 30.9251C26.9125 29.9264 25.5626 29.0122 25.4177 28.9222C25.2472 28.7955 24.8759 30.3356 24.4163 33.2732C23.5805 38.6815 22.948 39.3401 23.5522 34.1476C24.5523 25.6529 23.5056 20.8739 20.8566 22.0094C19.5689 22.5516 19.6784 23.0207 21.4317 24.1993C22.5853 24.9502 23.8115 25.6819 23.8364 26.2645C23.889 26.6914 24.0352 28.227 23.925 28.3038C23.8147 28.3805 21.1776 25.985 19.228 24.6431L15.6701 22.2125L14.4302 22.6668C12.9241 23.1702 12.7001 23.1626 11.4182 22.2283C10.2133 21.404 9.71648 19.6777 10.2416 18.3577C10.7924 17.0744 12.49 16.2195 14.0188 16.491C15.6101 16.7736 16.8378 18.3728 16.5823 19.8049C16.438 20.6144 16.5863 20.8656 17.4501 21.4366C18.4901 22.1031 18.5268 22.0775 19.7487 21.363C22.2403 19.8462 24.2668 21.2981 24.8416 24.9334L25.1235 26.7821L28.289 28.8861C30.0167 30.028 31.5115 31.0322 31.6252 31.1167C31.7132 31.1644 32.1051 30.5916 32.4367 29.8154C33.9524 26.5514 39.437 19.6239 41.4453 18.471C41.912 18.2005 41.9632 18.2739 41.8522 18.8966ZM33.9428 29.312C33.374 30.3352 32.4459 32.2902 31.9041 33.7037L30.8961 36.2869L31.5394 37.0115C33.3557 39.1006 40.6144 44.2441 45.261 46.7074C53.1398 50.901 58.3197 52.7203 66.1457 54.1422L71.9123 55.1985L72.984 52.9798C73.5861 51.7698 74.2639 50.3163 74.4886 49.7781L74.8847 48.8206L72.2638 48.3551C62.6851 46.654 50.7543 41.3554 43.6892 35.6681C41.1587 33.6127 37.3549 29.8537 36.4371 28.5023C36.0267 27.9155 35.5373 27.411 35.339 27.44C35.1718 27.4746 34.5372 28.3255 33.9428 29.312ZM29.8918 41.3762C29.6557 43.4221 29.4618 45.4112 29.52 45.807C29.603 46.7853 38.3633 53.2554 43.6498 56.282C50.49 60.1627 59.5283 63.6308 64.5337 64.2628L66.3912 64.4963L68.7356 60.7371C70.0402 58.6561 71.1389 56.8277 71.1722 56.6409C71.2166 56.3918 69.5595 55.9369 66.0248 55.1807C54.235 52.7015 44.9757 48.4875 35.4417 41.3019C32.9459 39.4133 30.78 37.8402 30.6296 37.7814C30.4791 37.7225 30.1758 39.2425 29.8918 41.3762ZM29.7029 50.015C29.806 51.0612 30.1336 53.0144 30.4364 54.3851C30.9837 56.7307 31.0807 56.9085 33.0919 58.8074C37.7228 63.163 45.9633 68.5772 51.2694 70.7722C54.5114 72.0867 58.5321 73.1862 59.0723 72.8646C60.1104 72.278 65.2669 66.288 65.4001 65.5408C65.4335 65.354 65.2005 65.2163 64.8406 65.2488C63.7666 65.315 56.5364 63.2601 52.9311 61.8168C46.4415 59.2189 37.4077 53.9208 32.0425 49.5312C30.8085 48.509 29.7484 47.7747 29.6583 47.9193C29.5736 48.0328 29.5943 49 29.7029 50.015ZM76.8243 65.7388C75.2385 69.2152 68.5508 76.5714 63.813 80.0341C60.7769 82.2572 60.6431 82.1049 65.4989 82.1322C68.0727 82.1396 72.8155 81.5365 74.0409 80.9832C76.1607 80.107 84.2403 71.2636 84.1983 69.875C84.1936 69.3602 77.841 64.731 77.3965 64.8769C77.2606 64.917 77.0012 65.2885 76.8243 65.7388ZM32.8182 61.4248C36.1505 68.7296 42.9735 75.5944 50.0662 78.7812L51.6164 79.474L53.4084 78.0899C54.3807 77.3311 55.8585 76.084 56.7004 75.3341L58.1693 73.9569L55.78 73.2756C49.1572 71.4249 40.6663 66.5123 33.6254 60.5082C32.8462 59.8237 32.1585 59.3483 32.0849 59.3995C32.0114 59.4507 32.3295 60.3744 32.8182 61.4248ZM83.2519 73.0152C82.1408 74.5524 80.2301 76.7826 79.0553 77.9551C76.7112 80.269 76.8194 80.3846 79.9863 79.0519C82.007 78.1903 89.0818 73.5366 89.1762 73.0074C89.2151 72.7894 86.026 70.4565 85.4755 70.2945C85.3818 70.2779 84.3887 71.5148 83.2519 73.0152Z" fill="#8B3130"/>
</svg>
