<svg width="192" height="50" viewBox="0 0 192 50" fill="none" xmlns="http://www.w3.org/2000/svg">
<path d="M89.7294 11.1793V31.1793C89.6494 34.4993 89.5694 36.1793 88.6094 37.6593C88.2894 38.1393 87.9694 38.4193 87.8094 38.5393C87.2094 39.0193 86.4894 39.2193 84.8094 39.4193H80.3294C78.5694 39.1793 77.5694 38.9793 76.5694 37.4593C75.5694 35.8993 75.4494 34.0993 75.4094 33.5393C75.2094 35.0993 75.0094 36.6593 73.9694 37.8993C72.9694 39.0993 71.8094 39.2593 70.3294 39.4193H65.9694C64.2094 39.1393 63.1294 38.8993 62.2094 37.3393C61.1694 35.5393 61.1694 33.1393 61.1294 31.2193V11.1793H68.5694V31.2593C68.5694 31.6193 68.5294 33.2593 70.1694 33.2593C71.8094 33.2593 71.6894 31.5393 71.6894 31.2193V11.1793H79.2094V31.2993C79.2094 31.4593 79.1694 32.5393 79.8494 33.0993C80.0894 33.2993 80.4894 33.4193 80.8094 33.4193C82.4094 33.3793 82.3294 31.6593 82.3294 31.3793V11.1793H89.7294ZM108.929 39.4193H96.5691C96.0491 39.4193 94.1691 39.6593 93.2491 37.9393C92.8091 37.1793 92.8091 36.4993 92.8091 35.6593V21.5393C92.8091 20.9393 92.8491 20.1793 93.0491 19.6193C93.7691 17.3793 95.9291 17.6193 96.5691 17.6193H104.929C105.689 17.6193 106.129 17.6193 106.449 17.6993C109.209 18.1393 108.929 20.8993 108.929 21.4993V31.0593H99.4891V32.8593C99.6891 33.7393 99.9291 34.0193 100.849 34.0593H108.929V39.4193ZM99.4491 27.1393H102.449V24.3393C102.449 24.1793 102.449 23.9393 102.329 23.6193C102.249 23.3393 101.889 22.6593 100.929 22.6593C99.4491 22.6593 99.4491 24.0193 99.4491 24.4193V27.1393ZM130.55 39.4193H123.15V19.7393C123.11 19.4993 123.07 19.0593 123.03 18.8593C122.79 18.1793 122.19 17.7793 121.51 17.7793C121.11 17.7793 120.27 17.8993 119.95 18.8993C119.91 19.0593 119.83 19.3393 119.83 19.7793V39.4193H112.19V18.7793C112.19 18.7393 112.27 14.9393 111.83 12.8593C111.75 12.5393 111.59 11.9393 111.27 11.1793H118.99C119.43 12.5793 119.63 14.7793 119.63 14.9793C119.75 14.7793 119.83 14.5393 119.95 14.3393C120.43 13.2593 121.19 12.0193 122.35 11.4993C122.99 11.2193 123.55 11.2193 124.27 11.1793H127.07C128.03 11.2593 128.83 11.3393 129.51 12.0193C130.31 12.8193 130.47 13.7393 130.55 15.7793V39.4193ZM146.669 39.4193H137.429C137.189 39.4193 136.909 39.3793 136.669 39.3793C135.149 39.2193 134.469 38.4993 134.109 37.9393C133.629 37.1793 133.629 36.4593 133.629 35.5793V21.5793C133.669 20.2193 133.749 18.6193 135.189 17.9793C135.949 17.6193 136.749 17.6193 137.509 17.6193H146.709C147.589 17.6593 147.989 17.6993 148.429 17.8193C150.829 18.4993 150.589 21.0593 150.589 21.6193V35.5793C150.589 35.6593 150.589 36.5793 150.429 37.2193C149.829 39.6593 147.229 39.4193 146.669 39.4193ZM143.629 32.6593V24.4593C143.629 24.2193 143.629 23.9793 143.549 23.7393C143.469 23.3793 143.069 22.6593 142.069 22.6593C140.589 22.6993 140.589 24.1393 140.549 24.4993V32.6593C140.589 33.0993 140.589 34.5393 142.189 34.5393C143.709 34.5393 143.669 32.9793 143.629 32.6593ZM165.509 39.4193H158.069C157.429 38.6993 156.429 37.4993 155.389 35.4593C153.629 31.9793 153.389 29.6193 153.149 25.7793V17.6193H160.149V27.0993C160.189 31.2993 160.429 32.5393 161.869 34.4193C162.309 33.8593 162.469 33.4593 162.629 33.1793C163.589 30.8993 163.389 27.5393 163.389 27.0993V17.6193H170.229V25.6993C170.069 28.4593 169.949 30.6193 169.069 33.3393C168.509 34.8993 167.789 36.6993 165.509 39.4193ZM188.89 39.4193H176.53C176.01 39.4193 174.13 39.6593 173.21 37.9393C172.77 37.1793 172.77 36.4993 172.77 35.6593V21.5393C172.77 20.9393 172.81 20.1793 173.01 19.6193C173.73 17.3793 175.89 17.6193 176.53 17.6193H184.89C185.65 17.6193 186.09 17.6193 186.41 17.6993C189.17 18.1393 188.89 20.8993 188.89 21.4993V31.0593H179.45V32.8593C179.65 33.7393 179.89 34.0193 180.81 34.0593H188.89V39.4193ZM179.41 27.1393H182.41V24.3393C182.41 24.1793 182.41 23.9393 182.29 23.6193C182.21 23.3393 181.85 22.6593 180.89 22.6593C179.41 22.6593 179.41 24.0193 179.41 24.4193V27.1393Z" fill="white"/>
<path d="M42.4182 6.55743C48.3175 8.73767 52.9076 13.5106 54.7302 19.3452C55.3518 21.3103 55.7656 24.245 55.7055 26.071C55.6473 27.9857 54.8157 31.8644 54.1325 33.4206L53.616 34.6356L53.364 33.3721C52.4971 29.0145 49.7426 26.0341 44.7587 24.0697C43.2759 23.4703 41.5187 23.1222 33.9309 21.8954C30.2926 21.3009 29.8848 21.2106 28.679 20.6428C24.5924 18.6969 22.9556 15.986 22.9657 11.1663L22.9806 10.5862L24.7295 10.3853C28.1245 9.96519 29.1931 10.0141 33.0075 10.7106C35.9519 11.2347 36.7957 11.4555 38.2271 12.0458C41.4061 13.3357 44.4564 15.1502 46.5629 17.0086C47.5739 17.8773 47.8497 18.0147 47.2483 17.3249C45.8175 15.6397 42.7479 13.239 40.4572 12.0189C36.0127 9.60303 30.1924 8.56714 24.8963 9.24936C24.1035 9.33785 23.4396 9.39631 23.4115 9.35598C23.3833 9.31565 24.0054 8.89653 24.7999 8.40213C29.2035 5.68901 34.099 4.77655 39.1943 5.71872C40.2727 5.91066 41.7236 6.29251 42.4182 6.55743Z" fill="white"/>
<path d="M22.6485 10.3682C22.6089 10.5907 22.1709 11.1662 21.6736 11.6782C21.1622 12.17 20.4358 12.9767 20.0443 13.4898L19.3198 14.3852L20.1089 15.4087C22.9109 19.0157 28.1042 22.4832 33.7821 24.5181C35.8921 25.2645 40.7614 26.4843 40.9349 26.3033C40.9813 26.2409 41.2139 25.6288 41.4446 24.9281C41.746 24.0281 41.95 23.6759 42.1212 23.7063C42.4293 23.7612 42.1926 24.4961 40.9271 27.5382C38.3496 33.6846 34.3175 39.2719 29.9137 42.7798C29.2361 43.3126 28.7045 43.8185 28.7639 43.882C28.9046 44.0837 30.3402 44.5511 31.4701 44.7522L32.5113 44.9552L34.0157 43.8454C37.4994 41.3394 40.1428 38.2954 42.3193 34.3028C43.7433 31.6599 45.1124 28.0358 45.5176 25.759C45.6365 25.0914 45.7446 24.881 45.8724 24.9568C46.4521 25.2719 44.2614 32.123 42.8206 34.4627C42.6722 34.7012 42.9297 34.9413 44.2941 35.9082C46.6798 37.5868 46.5117 37.5392 47.0076 36.6384C47.8509 35.0754 48.7378 32.6724 49.388 30.2096C49.9583 27.9976 50.0584 27.7328 50.2029 28.1117C50.4907 28.9754 48.6198 34.8237 47.2879 37.1475L46.9465 37.7755L48.0987 38.5457C48.7286 38.9757 49.3456 39.2798 49.4574 39.2467C49.8565 39.0882 51.3318 37.2491 52.2082 35.7979C53.1017 34.3498 53.1421 34.3217 53.1442 34.9049C53.1422 35.6109 52.19 37.1899 50.7776 38.7753L49.9119 39.7691L51.1999 40.6695C51.9264 41.152 53.0413 41.9332 53.6883 42.3663C54.7751 43.1072 58.0557 45.8104 57.9518 45.8979C57.851 45.9682 54.6265 44.1404 53.6676 43.4752C53.1 43.0917 51.8885 42.2579 50.9437 41.6129L49.2582 40.4652L47.5491 41.7328C42.9692 45.1387 37.6239 46.395 31.9577 45.3865C28.4997 44.771 25.8936 43.6361 23.161 41.525C18.5802 37.9899 15.8379 32.857 15.3399 26.9226C15.2162 25.4347 15.2574 24.8063 15.6608 22.4409C15.9289 20.9344 16.2525 19.3142 16.4234 18.8501L16.6987 17.9984L15.2548 16.982C14.4518 16.4329 13.7112 15.9302 13.6317 15.8807C13.5381 15.8111 13.3344 16.6579 13.0823 18.2731C12.6236 21.2469 12.2766 21.609 12.6081 18.7539C13.1569 14.0831 12.5826 11.4554 11.1292 12.0798C10.4227 12.3779 10.4827 12.6358 11.4447 13.2839C12.0777 13.6968 12.7504 14.0991 12.7641 14.4194C12.7929 14.6541 12.8732 15.4985 12.8127 15.5407C12.7522 15.5829 11.3053 14.2657 10.2357 13.5279L8.28357 12.1914L7.60331 12.4413C6.77697 12.718 6.6541 12.7138 5.95078 12.2001C5.28969 11.7469 5.0171 10.7977 5.30523 10.0719C5.60742 9.36625 6.5388 8.89622 7.37762 9.04551C8.25067 9.20089 8.92424 10.0802 8.78409 10.8677C8.70487 11.3127 8.78626 11.4509 9.26021 11.7648C9.83078 12.1313 9.85095 12.1172 10.5213 11.7243C11.8884 10.8903 13.0002 11.6887 13.3156 13.6875L13.4702 14.704L15.207 15.8609C16.1549 16.4888 16.975 17.0409 17.0374 17.0874C17.0857 17.1136 17.3007 16.7987 17.4827 16.3719C18.3142 14.5772 21.3234 10.7681 22.4252 10.1342C22.6813 9.98547 22.7095 10.0258 22.6485 10.3682ZM18.309 16.0951C17.9969 16.6577 17.4877 17.7326 17.1905 18.5098L16.6374 19.9302L16.9904 20.3286C17.9869 21.4773 21.9694 24.3054 24.5188 25.6598C28.8415 27.9657 31.6835 28.966 35.9773 29.7479L39.1412 30.3286L39.7292 29.1087C40.0595 28.4434 40.4313 27.6442 40.5547 27.3483L40.772 26.8218L39.334 26.5659C34.0786 25.6305 27.5327 22.7171 23.6564 19.59C22.268 18.4598 20.181 16.3929 19.6775 15.6498C19.4523 15.3272 19.1838 15.0498 19.075 15.0658C18.9833 15.0848 18.6351 15.5526 18.309 16.0951ZM16.0864 22.7285C15.9568 23.8534 15.8505 24.9471 15.8824 25.1648C15.9279 25.7027 20.7343 29.2602 23.6348 30.9244C27.3877 33.0582 32.3466 34.9651 35.0928 35.3126L36.112 35.441L37.3982 33.374C38.114 32.2298 38.7168 31.2245 38.7351 31.1217C38.7595 30.9848 37.8503 30.7347 35.9109 30.3189C29.4424 28.9557 24.3622 26.6387 19.1314 22.6877C17.762 21.6492 16.5737 20.7843 16.4912 20.7519C16.4086 20.7196 16.2422 21.5553 16.0864 22.7285ZM15.9828 27.4785C16.0393 28.0538 16.2191 29.1277 16.3852 29.8814C16.6855 31.1711 16.7387 31.2689 17.8421 32.313C20.3829 34.7079 24.9041 37.6849 27.8153 38.8918C29.594 39.6146 31.8 40.2191 32.0964 40.0423C32.666 39.7198 35.4951 36.4262 35.5682 36.0153C35.5865 35.9126 35.4587 35.8369 35.2612 35.8547C34.672 35.8911 30.7051 34.7613 28.727 33.9677C25.1665 32.5393 20.21 29.6261 17.2664 27.2125C16.5893 26.6505 16.0077 26.2467 15.9583 26.3262C15.9118 26.3886 15.9231 26.9204 15.9828 27.4785ZM41.8361 36.1242C40.9661 38.0357 37.2969 42.0805 34.6974 43.9844C33.0316 45.2068 32.9582 45.123 35.6224 45.138C37.0345 45.1421 39.6367 44.8105 40.309 44.5063C41.4721 44.0245 45.905 39.162 45.8819 38.3984C45.8793 38.1154 42.3939 35.57 42.1501 35.6503C42.0755 35.6723 41.9332 35.8766 41.8361 36.1242ZM17.692 33.7521C19.5203 37.7687 23.2637 41.5432 27.1552 43.2955L28.0057 43.6765L28.9889 42.9154C29.5223 42.4982 30.3332 41.8124 30.7951 41.4001L31.601 40.6429L30.2901 40.2683C26.6564 39.2507 21.9979 36.5495 18.1349 33.2482C17.7073 32.8718 17.33 32.6104 17.2897 32.6385C17.2493 32.6667 17.4239 33.1746 17.692 33.7521ZM45.3627 40.1251C44.7531 40.9703 43.7048 42.1966 43.0602 42.8413C41.7741 44.1136 41.8334 44.1771 43.571 43.4444C44.6797 42.9706 48.5613 40.4118 48.6131 40.1208C48.6344 40.001 46.8847 38.7182 46.5826 38.6291C46.5313 38.62 45.9864 39.3001 45.3627 40.1251Z" fill="white"/>
</svg>
